/* XPM */
static char * arrow_left_xpm[] = {
"32 32 33 1",
" 	c None",
".	c #000000",
"+	c #C6D7C6",
"@	c #E7EBE7",
"#	c #FFFFFF",
"$	c #DEEBDE",
"%	c #F7F7F7",
"&	c #DEE7DE",
"*	c #EFF3EF",
"=	c #101810",
"-	c #B5C7AD",
";	c #EFEFEF",
">	c #D6E3D6",
",	c #213021",
"'	c #315931",
")	c #52824A",
"!	c #739A6B",
"~	c #84A673",
"{	c #7BA673",
"]	c #84AA73",
"^	c #84AA7B",
"/	c #84AE7B",
"(	c #63925A",
"_	c #526D4A",
":	c #4A7D42",
"<	c #739E6B",
"[	c #739A63",
"}	c #4A7539",
"|	c #638E52",
"1	c #427139",
"2	c #6BA663",
"3	c #5A8A52",
"4	c #315929",
"                                ",
"                                ",
"                                ",
"                                ",
"                                ",
"                                ",
"                                ",
"                                ",
"                                ",
"                     ..         ",
"                   ..+.         ",
"                 ..@#+.         ",
"               ..$#%%+.         ",
"             ..&#%*%%+.         ",
"           .=&#******+.         ",
"         ..-#;>&@****+,         ",
"         ..')!~{]^/^/(.         ",
"           .._:<^~^/^(.         ",
"             ..':[]~/(.         ",
"               ..}:[~|.         ",
"                 ..123.         ",
"                   ..4.         ",
"                     ..         ",
"                                ",
"                                ",
"                                ",
"                                ",
"                                ",
"                                ",
"                                ",
"                                ",
"                                "};
