/* XPM */
static char * arrows_xpm[] = {
"30 15 7 1",
" 	c None",
".	c #000000",
"+	c #FFFFFF",
"@	c #CCCCCC",
"#	c #989898",
"$	c #666666",
"%	c #323232",
"                              ",
"      .                       ",
"     ..                       ",
"    .+.                       ",
"   .@@@........               ",
"  .###########.        .      ",
"   .$$$$$$$$$$.        ..     ",
"    .%%........        .+.    ",
"     ..        ........@@@.   ",
"      .        .###########.  ",
"               .$$$$$$$$$$.   ",
"               ........%%.    ",
"                       ..     ",
"                       .      ",
"                              "};
