/* XPM */
static char * arrow_right_xpm[] = {
"32 32 33 1",
" 	c None",
".	c #000000",
"+	c #C6D7C6",
"@	c #FFFFFF",
"#	c #E7EBE7",
"$	c #F7F7F7",
"%	c #DEEBDE",
"&	c #EFF3EF",
"*	c #DEE7DE",
"=	c #101810",
"-	c #213021",
";	c #D6E3D6",
">	c #EFEFEF",
",	c #B5C7AD",
"'	c #63925A",
")	c #84AE7B",
"!	c #84AA7B",
"~	c #84AA73",
"{	c #7BA673",
"]	c #84A673",
"^	c #739A6B",
"/	c #52824A",
"(	c #315931",
"_	c #739E6B",
":	c #4A7D42",
"<	c #526D4A",
"[	c #739A63",
"}	c #638E52",
"|	c #4A7539",
"1	c #5A8A52",
"2	c #6BA663",
"3	c #427139",
"4	c #315929",
"                                ",
"                                ",
"                                ",
"                                ",
"                                ",
"                                ",
"                                ",
"                                ",
"                                ",
"         ..                     ",
"         .+..                   ",
"         .+@#..                 ",
"         .+$$@%..               ",
"         .+$$&$@*..             ",
"         .+&&&&&&@*=.           ",
"         -+&&&&#*;>@,..         ",
"         .')!)!~{]^/(..         ",
"         .'!)!]!_:<..           ",
"         .')]~[:(..             ",
"         .}][:|..               ",
"         .123..                 ",
"         .4..                   ",
"         ..                     ",
"                                ",
"                                ",
"                                ",
"                                ",
"                                ",
"                                ",
"                                ",
"                                ",
"                                "};
