/* XPM */
static char * cam_xpm[] = {
"28 15 85 1",
" 	c None",
".	c #000000",
"+	c #626262",
"@	c #B5B5B5",
"#	c #949494",
"$	c #AAAAAA",
"%	c #747474",
"&	c #D5D5D5",
"*	c #5E5E5E",
"=	c #757575",
"-	c #5D5D5D",
";	c #565656",
">	c #595959",
",	c #5A5A5A",
"'	c #555555",
")	c #4E4E4E",
"!	c #BDBDBD",
"~	c #646464",
"{	c #6A6A6A",
"]	c #5B5B5B",
"^	c #00FF00",
"/	c #575757",
"(	c #3C3C3C",
"_	c #7C7C7C",
":	c #6E6E6E",
"<	c #636363",
"[	c #656565",
"}	c #585858",
"|	c #696969",
"1	c #676767",
"2	c #3A3A3A",
"3	c #A0A0A0",
"4	c #424242",
"5	c #868686",
"6	c #686868",
"7	c #545454",
"8	c #797979",
"9	c #7B7B7B",
"0	c #3F3F3F",
"a	c #444444",
"b	c #C9C9C9",
"c	c #B3B3B3",
"d	c #8A8A8A",
"e	c #9D9D9D",
"f	c #CDCDCD",
"g	c #4A4A4A",
"h	c #A7A7A7",
"i	c #4D4D4D",
"j	c #979797",
"k	c #808080",
"l	c #AEAEAE",
"m	c #AFAFAF",
"n	c #989898",
"o	c #E4E4E4",
"p	c #505050",
"q	c #D7D7D7",
"r	c #ACACAC",
"s	c #8E8E8E",
"t	c #C4C4C4",
"u	c #8B8B8B",
"v	c #7D7D7D",
"w	c #FCFCFC",
"x	c #FFFFFF",
"y	c #CCCCCC",
"z	c #ECECEC",
"A	c #919191",
"B	c #BCBCBC",
"C	c #B8B8B8",
"D	c #F2F2F2",
"E	c #ADADAD",
"F	c #878787",
"G	c #454545",
"H	c #3B3B3B",
"I	c #CECECE",
"J	c #D9D9D9",
"K	c #A6A6A6",
"L	c #4F4F4F",
"M	c #DDDDDD",
"N	c #5F5F5F",
"O	c #C3C3C3",
"P	c #D6D6D6",
"Q	c #EDEDED",
"R	c #E6E6E6",
"S	c #CACACA",
"T	c #616161",
"..                          ",
".+.........                 ",
".@#$$$$$$$%...........      ",
".&+*******=.-;;;>,>;').     ",
".!.........~{>>>]^^^;/(.    ",
".._:<[[[[[<'}|{{{1++[{2.    ",
" .34.........5'67676890.    ",
" .@a.bccccc_.@%.d.d.eda.    ",
" .fg.hi_[i_).fjklklkmng.... ",
" .op.q..r..:.ors.r.r.tp.uv}.",
" .w'.xyxzyxA.wBCqzqzqD'.EFG.",
" .x].C]]]]]H.xIIIIIIII].JKL.",
" .xr.........xMMMMMMMMN.xO>.",
" .P{jQQQQQQQRC[[[[[[[[4.ST0.",
"  ......................... "};
