/* XPM */
static char * editing_xpm[] = {
"30 15 46 1",
" 	c None",
".	c #2C2C2C",
"+	c #595959",
"@	c #424242",
"#	c #353535",
"$	c #0E0E0E",
"%	c #747474",
"&	c #8C8C8C",
"*	c #939393",
"=	c #999999",
"-	c #B1B1B1",
";	c #B3B3B3",
">	c #ADADAD",
",	c #3E3E3E",
"'	c #000000",
")	c #565656",
"!	c #6E6E6E",
"~	c #767676",
"{	c #797979",
"]	c #7F7F7F",
"^	c #878787",
"/	c #8D8D8D",
"(	c #A0A0A0",
"_	c #C0C0C0",
":	c #555555",
"<	c #5A5A5A",
"[	c #464646",
"}	c #929292",
"|	c #3C3C3C",
"1	c #171717",
"2	c #4C4C4C",
"3	c #080808",
"4	c #4D4D4D",
"5	c #1B1B1B",
"6	c #1A1A1A",
"7	c #121212",
"8	c #6F6F6F",
"9	c #FEFEFE",
"0	c #434343",
"a	c #D4D4D4",
"b	c #F8F8F8",
"c	c #1E1E1E",
"d	c #3B3B3B",
"e	c #202020",
"f	c #E4E4E4",
"g	c #060606",
"                              ",
"        .+@                   ",
"        # $%&*=-;>>>          ",
"        , ')!!!!!~{]^/(_      ",
"        , ':<[<[<[<[<[<}      ",
"        | 12 3 3 3 3 3 4      ",
"        567                   ",
"                              ",
"                     89       ",
"                     0ab      ",
"       cdddddddddddde,*f      ",
"                     g*f      ",
"                     ''8      ",
"                              ",
"                              "};
