/* XPM */
static char * effect_text_xpm[] = {
"64 32 162 2",
"  	c None",
". 	c #535353",
"+ 	c #585858",
"@ 	c #616161",
"# 	c #6A6A6A",
"$ 	c #727272",
"% 	c #7B7B7B",
"& 	c #848484",
"* 	c #8D8D8D",
"= 	c #969696",
"- 	c #9F9F9F",
"; 	c #A7A7A7",
"> 	c #B0B0B0",
", 	c #B8B8B8",
"' 	c #C1C1C1",
") 	c #CDCDCD",
"! 	c #C7C7C7",
"~ 	c #BEBEBE",
"{ 	c #B5B5B5",
"] 	c #ACACAC",
"^ 	c #A3A3A3",
"/ 	c #9A9A9A",
"( 	c #909090",
"_ 	c #878787",
": 	c #7E7E7E",
"< 	c #757575",
"[ 	c #6C6C6C",
"} 	c #636363",
"| 	c #595959",
"1 	c #565656",
"2 	c #404040",
"3 	c #474747",
"4 	c #555555",
"5 	c #828282",
"6 	c #666666",
"7 	c #898989",
"8 	c #BABABA",
"9 	c #747474",
"0 	c #AEAEAE",
"a 	c #B3B3B3",
"b 	c #676767",
"c 	c #656565",
"d 	c #646464",
"e 	c #6E6E6E",
"f 	c #464646",
"g 	c #494949",
"h 	c #000000",
"i 	c #1D1D1D",
"j 	c #515151",
"k 	c #525252",
"l 	c #BBBBBB",
"m 	c #2E2E2E",
"n 	c #8E8E8E",
"o 	c #ADADAD",
"p 	c #0D0D0D",
"q 	c #252525",
"r 	c #484848",
"s 	c #020202",
"t 	c #010101",
"u 	c #1E1E1E",
"v 	c #4D4D4D",
"w 	c #2A2A2A",
"x 	c #A6A6A6",
"y 	c #505050",
"z 	c #121212",
"A 	c #292929",
"B 	c #575757",
"C 	c #868686",
"D 	c #B1B1B1",
"E 	c #B7B7B7",
"F 	c #B9B9B9",
"G 	c #AAAAAA",
"H 	c #939393",
"I 	c #8A8A8A",
"J 	c #838383",
"K 	c #717171",
"L 	c #303030",
"M 	c #2D2D2D",
"N 	c #BFBFBF",
"O 	c #C4C4C4",
"P 	c #C9C9C9",
"Q 	c #CECECE",
"R 	c #D4D4D4",
"S 	c #D9D9D9",
"T 	c #D5D5D5",
"U 	c #CFCFCF",
"V 	c #CACACA",
"W 	c #C5C5C5",
"X 	c #C0C0C0",
"Y 	c #BCBCBC",
"Z 	c #B4B4B4",
"` 	c #2C2C2C",
" .	c #A0A0A0",
"..	c #FFFFFF",
"+.	c #7F7F7F",
"@.	c #5E5E5E",
"#.	c #BDBDBD",
"$.	c #313131",
"%.	c #9D9C9D",
"&.	c #8A898A",
"*.	c #080708",
"=.	c #818081",
"-.	c #787578",
";.	c #2D2C2D",
">.	c #808080",
",.	c #FEFEFE",
"'.	c #FDFDFD",
").	c #5C5A5C",
"!.	c #060606",
"~.	c #1B1B1B",
"{.	c #959595",
"].	c #DCDCDC",
"^.	c #DFDFDF",
"/.	c #E3E3E3",
"(.	c #E7E7E7",
"_.	c #EAEAEA",
":.	c #ECECEC",
"<.	c #EEEEEE",
"[.	c #F0F0F0",
"}.	c #F1F1F1",
"|.	c #F3F3F3",
"1.	c #F5F5F5",
"2.	c #F4F4F4",
"3.	c #F2F2F2",
"4.	c #EFEFEF",
"5.	c #EDEDED",
"6.	c #EBEBEB",
"7.	c #E4E4E4",
"8.	c #E0E0E0",
"9.	c #DBDBDB",
"0.	c #5A5A5A",
"a.	c #686868",
"b.	c #777777",
"c.	c #A1A1A1",
"d.	c #A9A9A9",
"e.	c #C8C8C8",
"f.	c #D2D2D2",
"g.	c #AFAFAF",
"h.	c #A4A4A4",
"i.	c #989898",
"j.	c #797979",
"k.	c #737373",
"l.	c #696969",
"m.	c #5B5B5B",
"n.	c #4E4E4E",
"o.	c #141414",
"p.	c #626262",
"q.	c #9B9B9B",
"r.	c #282828",
"s.	c #5C5C5C",
"t.	c #2F2F2F",
"u.	c #212121",
"v.	c #222222",
"w.	c #383838",
"x.	c #6B6B6B",
"y.	c #3D3D3D",
"z.	c #3B3B3B",
"A.	c #9D9D9D",
"B.	c #323232",
"C.	c #343434",
"D.	c #232323",
"E.	c #373737",
"                                                                                                                                ",
"                                                                                                                                ",
"                                                                                                                                ",
"    . + @ # $ % & * = - ; > , ' ) ! ~ { ] ^ / ( _ : < [ } | .                                                                   ",
"    . 1 2 3 4 % & 5 } 6 7 > 8 _ 9 $ 0 { a b c d _ : e 3 2 f .                                                                   ",
"    . g h h i % & j h h k > l m h h n { o h h p _ : k h h q .                                                                   ",
"    . r s t u % & v h h j > 8 w h h n { x t h p _ : y s s z A h h h h h h h                                                     ",
"    . B | @ # % & C C n - > , D E a F { G H I J _ : K L M h h h h h h h h h h h                                                 ",
"    . + @ % 0 > a E l N O P Q R S T U V W X Y E Z > 1 h h ` .           h h h h h                                               ",
"    . + @  .......................................+.h @.} | A h h h h h       h h h h                                           ",
"    . + @  .....................................h h ..#.$.` h h h h h h h h h     h h h h                                       ",
"    . + @  .............................h %.&.*.=...+.@.h h A h h h h h h h h h h     h h h                                     ",
"    . + @  .............................h -.;.J ..+.h h $.` .           h h h h h h h     h h                                   ",
"    . + @  ...........................h h h ....+.h >.@.} | .                 h h h h h h   h                                   ",
"    . + @  .....,.....................h h ,.: : h +.,.#.} | .                       h h h h h                                   ",
"    . + @  ...,.'.'...................h ).C !.t '.'.'.#.} | .                           h h h                                   ",
"    . + @  ...,.'.'.'...............h h h h '.'.'.'.'.#.} | .       h                       h               h         h h h h   ",
"    . + @  ...,.'.'.'.............h h h h '.'.'.'.'.'.#.} | .   h h h                                   h h h         h h h h   ",
"    . + @  ...,.'.'.'.'...........>.h h h '.'.'.'.'.'.#.} | .   h h h                                   h h h         h h h h   ",
"    . + @  ...,.'.'.'.'...............h h '.'.'.'.'.'.#.} | m h h h h h h     h h h         h h h     h h h h h h     h h h h   ",
"    . + @  ...,.'.'.'.'.'.........'.'.'.'.'.'.'.'.'.'.#.} | ~.h h h h h h     h h h h     h h h h   h h h h h h h       h h h   ",
"    . + @  ...,.'.'.'.'.'.........'.'.'.'.'.'.'.'.'.'.#.} | ~.h h h h h h       h h h h h h h h     h h h h h h h       h h h   ",
"    . + @  ...,.'.'.'.'.....'...'.'.'.'.'.'.'.'.'.'.'.#.} | .   h h h             h h h h h h           h h h           h h h   ",
"    . + @  ...,.'.'.'.'.'.'.'.'.'.'.'.'.'.'.'.'.'.'.'.#.} | .   h h h               h h h h h           h h h           h h     ",
"    . + @ {.].^./.(._.:.<.[.}.|.1.2.3.}.4.5.6.(.7.8.9.G } | .   h h h             h h h h h h           h h h                   ",
"    . 0.a.$ b.% & {.c.d.G > F e.f.) ~ { g.o h.i._ : j.k.l.m..   h h h             h h h h h h h         h h h         h h h h   ",
"    . n.z o.m % & p.i i d > l f i i q.{ > i i r._ : s.o.z t..   h h h h         h h h h   h h h         h h h h       h h h h   ",
"    . g h h i % & j h h k > l m h h n { o h h p _ : k h h q .   h h h h h     h h h h     h h h h       h h h h h     h h h h   ",
"    . v u.v.w.% & @.` t.x.> F 4 y.z.A.{ h.B.m C._ : m.D.v.E..     h h h h     h h h         h h h h       h h h h       h h h   ",
"    . + @ # $ % & * = - ; > , ' ) ! ~ { ] ^ / ( _ : < [ } | .                                                                   ",
"                                                                                                                                ",
"                                                                                                                                "};
