/* XPM */
static char * effect_picture_xpm[] = {
"64 32 291 2",
"  	c None",
". 	c #535353",
"+ 	c #585858",
"@ 	c #616161",
"# 	c #6A6A6A",
"$ 	c #727272",
"% 	c #7B7B7B",
"& 	c #848484",
"* 	c #8D8D8D",
"= 	c #969696",
"- 	c #9F9F9F",
"; 	c #A7A7A7",
"> 	c #B0B0B0",
", 	c #B8B8B8",
"' 	c #C1C1C1",
") 	c #CDCDCD",
"! 	c #C7C7C7",
"~ 	c #BEBEBE",
"{ 	c #B5B5B5",
"] 	c #ACACAC",
"^ 	c #A3A3A3",
"/ 	c #9A9A9A",
"( 	c #909090",
"_ 	c #878787",
": 	c #7E7E7E",
"< 	c #757575",
"[ 	c #6C6C6C",
"} 	c #636363",
"| 	c #595959",
"1 	c #565656",
"2 	c #404040",
"3 	c #474747",
"4 	c #555555",
"5 	c #828282",
"6 	c #666666",
"7 	c #898989",
"8 	c #BABABA",
"9 	c #747474",
"0 	c #AEAEAE",
"a 	c #B3B3B3",
"b 	c #676767",
"c 	c #656565",
"d 	c #646464",
"e 	c #6E6E6E",
"f 	c #464646",
"g 	c #494949",
"h 	c #000000",
"i 	c #1D1D1D",
"j 	c #515151",
"k 	c #525252",
"l 	c #BBBBBB",
"m 	c #2E2E2E",
"n 	c #8E8E8E",
"o 	c #ADADAD",
"p 	c #0D0D0D",
"q 	c #252525",
"r 	c #484848",
"s 	c #020202",
"t 	c #010101",
"u 	c #1E1E1E",
"v 	c #4D4D4D",
"w 	c #2A2A2A",
"x 	c #A6A6A6",
"y 	c #505050",
"z 	c #262626",
"A 	c #575757",
"B 	c #868686",
"C 	c #B1B1B1",
"D 	c #B7B7B7",
"E 	c #B9B9B9",
"F 	c #AAAAAA",
"G 	c #939393",
"H 	c #8A8A8A",
"I 	c #838383",
"J 	c #717171",
"K 	c #626262",
"L 	c #5B5B5B",
"M 	c #BFBFBF",
"N 	c #C4C4C4",
"O 	c #C9C9C9",
"P 	c #CECECE",
"Q 	c #D4D4D4",
"R 	c #D9D9D9",
"S 	c #D5D5D5",
"T 	c #CFCFCF",
"U 	c #CACACA",
"V 	c #C5C5C5",
"W 	c #C0C0C0",
"X 	c #BCBCBC",
"Y 	c #B4B4B4",
"Z 	c #313131",
"` 	c #2C2C2C",
" .	c #292929",
"..	c #A0A0A0",
"+.	c #FFFFFF",
"@.	c #7F7F7F",
"#.	c #5E5E5E",
"$.	c #020204",
"%.	c #363636",
"&.	c #09090C",
"*.	c #808080",
"=.	c #BDBDBD",
"-.	c #09090A",
";.	c #0C0C0E",
">.	c #646363",
",.	c #070608",
"'.	c #545454",
").	c #6B6B6B",
"!.	c #030305",
"~.	c #9D9C9D",
"{.	c #8A898A",
"].	c #080708",
"^.	c #818081",
"/.	c #4F4F50",
"(.	c #3F3A2B",
"_.	c #797877",
":.	c #7E7E7D",
"<.	c #0D0D0E",
"[.	c #FEFEFE",
"}.	c #787578",
"|.	c #2D2C2D",
"1.	c #211F1E",
"2.	c #A7842B",
"3.	c #E7BD0E",
"4.	c #D2B31D",
"5.	c #B5A24F",
"6.	c #070606",
"7.	c #FDFDFD",
"8.	c #332406",
"9.	c #D19D0C",
"0.	c #EDCB17",
"a.	c #DDB710",
"b.	c #CB9C15",
"c.	c #161411",
"d.	c #0D0D0F",
"e.	c #0F0E0F",
"f.	c #AF9F7F",
"g.	c #B58822",
"h.	c #BD9A4F",
"i.	c #D8D5CE",
"j.	c #3B3A3B",
"k.	c #1F1F21",
"l.	c #5C5A5C",
"m.	c #060606",
"n.	c #696969",
"o.	c #E7E7E6",
"p.	c #CBCAC9",
"q.	c #EAEAE9",
"r.	c #FEFEFC",
"s.	c #B4B4B3",
"t.	c #030204",
"u.	c #050507",
"v.	c #D4D4D3",
"w.	c #FDFDFB",
"x.	c #F8F8F7",
"y.	c #FAFAF9",
"z.	c #ECECEB",
"A.	c #0E0E10",
"B.	c #040406",
"C.	c #272627",
"D.	c #E4E3E3",
"E.	c #FCFCFA",
"F.	c #F7F7F6",
"G.	c #EEEEED",
"H.	c #D8D8D7",
"I.	c #101011",
"J.	c #0F0E10",
"K.	c #989898",
"L.	c #E6E6E5",
"M.	c #222222",
"N.	c #252526",
"O.	c #F6F6F4",
"P.	c #F6F6F5",
"Q.	c #404041",
"R.	c #0F0F10",
"S.	c #060608",
"T.	c #5A5A5A",
"U.	c #FDFDFC",
"V.	c #F3F3F2",
"W.	c #5B5B5C",
"X.	c #0B0B0D",
"Y.	c #1C1609",
"Z.	c #777777",
"`.	c #F4F4F3",
" +	c #FCFCFB",
".+	c #0C0C0D",
"++	c #0A0A0B",
"@+	c #959595",
"#+	c #DCDCDC",
"$+	c #DFDFDF",
"%+	c #E3E3E3",
"&+	c #E7E7E7",
"*+	c #EAEAEA",
"=+	c #ECECEC",
"-+	c #EEEEEE",
";+	c #F0F0F0",
">+	c #F1F1F1",
",+	c #F3F3F3",
"'+	c #F5F5F5",
")+	c #F4F4F4",
"!+	c #F2F2F2",
"~+	c #EFEFEF",
"{+	c #EDEDED",
"]+	c #EBEBEB",
"^+	c #E4E4E4",
"/+	c #E0E0E0",
"(+	c #DBDBDB",
"_+	c #EDB50D",
":+	c #8F721C",
"<+	c #C4C4C3",
"[+	c #F5F5F4",
"}+	c #F3D678",
"|+	c #544614",
"1+	c #2A2511",
"2+	c #686868",
"3+	c #A1A1A1",
"4+	c #A9A9A9",
"5+	c #C8C8C8",
"6+	c #D2D2D2",
"7+	c #AFAFAF",
"8+	c #A4A4A4",
"9+	c #797979",
"0+	c #737373",
"a+	c #E0A70B",
"b+	c #E8B00B",
"c+	c #F5BC0C",
"d+	c #F1BB0C",
"e+	c #40340D",
"f+	c #9B9B9A",
"g+	c #F4F4F2",
"h+	c #DEB545",
"i+	c #936907",
"j+	c #473206",
"k+	c #B38709",
"l+	c #EFB70C",
"m+	c #4E4E4E",
"n+	c #121212",
"o+	c #141414",
"p+	c #9B9B9B",
"q+	c #282828",
"r+	c #5C5C5C",
"s+	c #2F2F2F",
"t+	c #EBB20D",
"u+	c #F5BD0C",
"v+	c #C1990A",
"w+	c #080605",
"x+	c #DDDDDC",
"y+	c #F0F0EE",
"z+	c #C29931",
"A+	c #E8AE0A",
"B+	c #E3A90A",
"C+	c #F3BB0C",
"D+	c #F2BA0C",
"E+	c #E9AF0B",
"F+	c #F3BE0C",
"G+	c #BFA858",
"H+	c #EBEBEA",
"I+	c #545455",
"J+	c #A27508",
"K+	c #F4BC0C",
"L+	c #EDB40C",
"M+	c #212121",
"N+	c #383838",
"O+	c #3D3D3D",
"P+	c #3B3B3B",
"Q+	c #9D9D9D",
"R+	c #323232",
"S+	c #343434",
"T+	c #232323",
"U+	c #373737",
"V+	c #E6AC0B",
"W+	c #F0B70C",
"X+	c #F4BB0C",
"Y+	c #C28F0A",
"Z+	c #59554F",
"`+	c #121213",
" @	c #040304",
".@	c #AC7B08",
"+@	c #EAB10C",
"@@	c #DCA30C",
"#@	c #AF7707",
"$@	c #B17B07",
"%@	c #C48D09",
"&@	c #D49A0A",
"*@	c #946306",
"=@	c #150E04",
"-@	c #050404",
";@	c #8F5F06",
">@	c #D49B09",
",@	c #C88F09",
"'@	c #784F06",
"                                                                                                                                ",
"                                                                                                                                ",
"                                                                                                                                ",
"    . + @ # $ % & * = - ; > , ' ) ! ~ { ] ^ / ( _ : < [ } | .                                                                   ",
"    . 1 2 3 4 % & 5 } 6 7 > 8 _ 9 $ 0 { a b c d _ : e 3 2 f .                                                                   ",
"    . g h h i % & j h h k > l m h h n { o h h p _ : k h h q .                                                                   ",
"    . r s t u % & v h h j > 8 w h h n { x t h p _ : y s s z .                                                                   ",
"    . A | @ # % & B B n - > , C D a E { F G H I _ : J K L 4 .                                                                   ",
"    . + @ % 0 > a D l M N O P Q R S T U V W X D Y > 0 ( Z `  .h h h h h h                                                       ",
"    . + @ ..+.+.+.+.+.+.+.+.+.+.+.+.+.+.+.+.+.+.+.+.@.#.h h h h h h h h h h h                             $.$.$.                ",
"    . + @ ..+.+.+.+.+.+.+.+.+.+.+.+.+.+.+.+.+.+.+.@.h h Z | .         h h h h h                         $.$.$.%.&.              ",
"    . + @ ..+.+.+.+.+.+.+.+.+.+.+.+.+.+.+.+.+.+.@.h *.=.} `  .h h h h       h h h h                   $.$.$.$.-.$.              ",
"    . + @ ..+.+.+.+.+.+.+.+.+.+.+.+.+.+.+.+.+.h h +.+.#.Z h h h h h h h h h     h h h h               ;.>.,.'.).!.$.            ",
"    . + @ ..+.+.+.+.+.+.+.+.+.+.+.+.+.h ~.{.].^.+.@.@.h h `  .h h h h h h h h h     h h h             /.6 (._.:.<.$.            ",
"    . + @ ..+.+.[.+.+.+.+.+.+.+.+.+.+.h }.|.I [.: h h #.Z | .         h h h h h h h     h h           1.2.3.4.5.6.$.            ",
"    . + @ ..+.[.7.7.+.+.+.+.+.+.+.+.h h h 7.7.: h : : =.} | .               h h h h h h   h           8.9.0.a.b.c.d.            ",
"    . + @ ..+.[.7.7.7.+.+.+.+.+.+.+.h h 7.: : h : 7.7.=.} | .                     h h h h h           e.f.g.h.i.j.k.            ",
"    . + @ ..+.[.7.7.7.+.+.+.+.+.+.+.h l.B m.t 7.7.7.7.=.} | .                         h h h           n.o.p.q.r.s.$.t.          ",
"    . + @ ..+.[.7.7.7.7.+.+.+.+.+.h h h h 7.7.7.7.7.7.=.} | .                             h         u.v.w.x.w.y.z.A.$.$.        ",
"    . + @ ..+.[.7.7.7.7.+.+.+.+.h h h h 7.7.7.7.7.7.7.=.} | j                                     B.C.D.E.F.w.G.H.9 I.$.        ",
"    . + @ ..+.[.7.7.7.7.7.+.+.+.*.h h h 7.7.7.7.7.7.7.=.} | k                                     J.K.w.w.w.w.w.w.L.M.A.$.      ",
"    . + @ ..+.[.7.7.7.7.7.+.+.+.+.7.h h 7.7.7.7.7.7.7.=.} | k                                     N.O.w.P.w.w.w.w.r.Q.R.$.      ",
"    . + @ ..+.[.7.7.7.7.+.+.7.+.7.7.7.7.7.7.7.7.7.7.7.=.} | .                                   S.T.w.U.V.w.w.w.w.w.W.X.$.      ",
"    . + @ ..+.[.7.7.7.7.7.7.7.7.7.7.7.7.7.7.7.7.7.7.7.=.} | .                                   Y.Z.r.w.`.w.U.w. +w.+ .+++      ",
"    . + @ @+#+$+%+&+*+=+-+;+>+,+'+)+!+>+~+{+]+&+^+/+(+F } | .                                   _+:+<+r.[+ +w.w.w.}+|+$.1+      ",
"    . T.2+$ Z.% & @+3+4+F > E 5+6+) ~ { 7+o 8+K._ : 9+0+n.L .                               a+b+c+d+e+f+w.w.w. +g+h+i+j+k+l+    ",
"    . m+n+o+m % & K i i d > l f i i p+{ > i i q+_ : r+o+n+s+.                               t+u+u+u+v+w+x+w.U.w.y+z+A+B+C+D+    ",
"    . g h h i % & j h h k > l m h h n { o h h p _ : k h h q .                               E+u+u+u+F+G+E.w.w.H+I+J+K+u+u+u+L+  ",
"    . v M+M.N+% & #.` s+).> E 4 O+P+Q+{ 8+R+m S+_ : L T+M.U+.                               V+W+X+u+c+Y+Z+J W.`+ @.@K+K++@@@    ",
"    . + @ # $ % & * = - ; > , ' ) ! ~ { ] ^ / ( _ : < [ } | .                                 #@$@%@&@*@=@      -@;@>@,@        ",
"                                                                                                                    '@          ",
"                                                                                                                                "};
