/* XPM */
static char * effect_fade_xpm[] = {
"48 32 2 1",
"      c #000000000000",
".     c #FFFFFFFFFFFF",
"                                                ",
"   ...........................................  ",
"    ..........................................  ",
"      ........................................  ",
"       .......................................  ",
"         .....................................  ",
"          ....................................  ",
"            ..................................  ",
"             .................................  ",
"               ...............................  ",
"                ..............................  ",
"                  ............................  ",
"                   ...........................  ",
"                     .........................  ",
"                      ........................  ",
"                        ......................  ",
"                          ....................  ",
"                           ...................  ",
"                             .................  ",
"                              ................  ",
"                                ..............  ",
"                                 .............  ",
"                                   ...........  ",
"                                    ..........  ",
"                                      ........  ",
"                                       .......  ",
"                                         .....  ",
"                                          ....  ",
"                                            ..  ",
"                                             .  ",
"                                                ",
"                                                "};

