/* XPM */
static char * effect_transition_xpm[] = {
"64 32 232 2",
"  	c None",
". 	c #535353",
"+ 	c #585858",
"@ 	c #616161",
"# 	c #6A6A6A",
"$ 	c #727272",
"% 	c #7B7B7B",
"& 	c #848484",
"* 	c #8D8D8D",
"= 	c #969696",
"- 	c #9F9F9F",
"; 	c #A7A7A7",
"> 	c #B0B0B0",
", 	c #AEAEAE",
"' 	c #A3A3A3",
") 	c #A6A6A6",
"! 	c #A1A1A1",
"~ 	c #9D9D9D",
"{ 	c #939393",
"] 	c #818181",
"^ 	c #6C6C6C",
"/ 	c #6B6B6B",
"( 	c #676767",
"_ 	c #5A5A5A",
": 	c #252525",
"< 	c #212121",
"[ 	c #1E1E1E",
"} 	c #1B1B1B",
"| 	c #191919",
"1 	c #1A1A1A",
"2 	c #1C1C1C",
"3 	c #1F1F1F",
"4 	c #505050",
"5 	c #575757",
"6 	c #606060",
"7 	c #666666",
"8 	c #6E6E6E",
"9 	c #707070",
"0 	c #898989",
"a 	c #9B9B9B",
"b 	c #999999",
"c 	c #ADADAD",
"d 	c #9A9A9A",
"e 	c #909090",
"f 	c #878787",
"g 	c #7E7E7E",
"h 	c #757575",
"i 	c #636363",
"j 	c #595959",
"k 	c #565656",
"l 	c #404040",
"m 	c #474747",
"n 	c #555555",
"o 	c #828282",
"p 	c #858585",
"q 	c #787878",
"r 	c #979797",
"s 	c #959595",
"t 	c #2E2E2E",
"u 	c #2A2A2A",
"v 	c #000000",
"w 	c #242424",
"x 	c #292929",
"y 	c #6F6F6F",
"z 	c #7D7D7D",
"A 	c #8A8A8A",
"B 	c #ABABAB",
"C 	c #656565",
"D 	c #646464",
"E 	c #464646",
"F 	c #494949",
"G 	c #1D1D1D",
"H 	c #515151",
"I 	c #525252",
"J 	c #ACACAC",
"K 	c #5F5F5F",
"L 	c #3A3A3A",
"M 	c #919191",
"N 	c #696969",
"O 	c #343434",
"P 	c #282828",
"Q 	c #444444",
"R 	c #434343",
"S 	c #414141",
"T 	c #222222",
"U 	c #303030",
"V 	c #747474",
"W 	c #7F7F7F",
"X 	c #A4A4A4",
"Y 	c #0D0D0D",
"Z 	c #484848",
"` 	c #020202",
" .	c #010101",
"..	c #4D4D4D",
"+.	c #545454",
"@.	c #989898",
"#.	c #888888",
"$.	c #737373",
"%.	c #3C3C3C",
"&.	c #373737",
"*.	c #5C5C5C",
"=.	c #313131",
"-.	c #7C7C7C",
";.	c #8E8E8E",
">.	c #A5A5A5",
",.	c #AAAAAA",
"'.	c #262626",
").	c #868686",
"!.	c #B7B7B7",
"~.	c #B1B1B1",
"{.	c #9E9E9E",
"].	c #929292",
"^.	c #4F4F4F",
"/.	c #8C8C8C",
"(.	c #3B3B3B",
"_.	c #2D2D2D",
":.	c #323232",
"<.	c #777777",
"[.	c #838383",
"}.	c #949494",
"|.	c #A8A8A8",
"1.	c #A9A9A9",
"2.	c #B4B4B4",
"3.	c #B3B3B3",
"4.	c #717171",
"5.	c #626262",
"6.	c #5B5B5B",
"7.	c #BBBBBB",
"8.	c #BFBFBF",
"9.	c #C4C4C4",
"0.	c #D0D0D0",
"a.	c #D1D1D1",
"b.	c #C9C9C9",
"c.	c #4C4C4C",
"d.	c #2B2B2B",
"e.	c #4A4A4A",
"f.	c #080708",
"g.	c #7C7B7C",
"h.	c #C7C7C7",
"i.	c #C6C6C6",
"j.	c #CDCDCD",
"k.	c #C0C0C0",
"l.	c #BCBCBC",
"m.	c #A0A0A0",
"n.	c #FFFFFF",
"o.	c #EEEEEE",
"p.	c #EFEFEF",
"q.	c #F0F0F0",
"r.	c #DEDEDE",
"s.	c #DADADA",
"t.	c #454545",
"u.	c #383838",
"v.	c #424242",
"w.	c #C2C2C2",
"x.	c #2D2C2D",
"y.	c #787578",
"z.	c #E1E1E1",
"A.	c #E2E2E2",
"B.	c #EDEDED",
"C.	c #ECECEC",
"D.	c #BDBDBD",
"E.	c #FBFBFB",
"F.	c #F1F1F1",
"G.	c #B2B2B2",
"H.	c #DBDBDB",
"I.	c #DDDDDD",
"J.	c #FDFDFD",
"K.	c #E5E5E5",
"L.	c #767676",
"M.	c #B8B8B8",
"N.	c #6D6D6D",
"O.	c #F8F8F8",
"P.	c #FEFEFE",
"Q.	c #E4E4E4",
"R.	c #D7D7D7",
"S.	c #C3C3C3",
"T.	c #7A7A7A",
"U.	c #686868",
"V.	c #5D5D5D",
"W.	c #D4D4D4",
"X.	c #E3E3E3",
"Y.	c #060606",
"Z.	c #5C5A5C",
"`.	c #F5F5F5",
" +	c #E8E8E8",
".+	c #5E5E5E",
"++	c #D8D8D8",
"@+	c #E7E7E7",
"#+	c #F4F4F4",
"$+	c #F7F7F7",
"%+	c #F6F6F6",
"&+	c #F2F2F2",
"*+	c #EAEAEA",
"=+	c #8F8F8F",
"-+	c #D9D9D9",
";+	c #F9F9F9",
">+	c #DCDCDC",
",+	c #E9E9E9",
"'+	c #FCFCFC",
")+	c #FAFAFA",
"!+	c #E6E6E6",
"~+	c #808080",
"{+	c #D6D6D6",
"]+	c #8B8B8B",
"^+	c #DFDFDF",
"/+	c #D5D5D5",
"(+	c #9C9C9C",
"_+	c #C5C5C5",
":+	c #797979",
"<+	c #797879",
"[+	c #646364",
"}+	c #363636",
"|+	c #3E3E3E",
"1+	c #BABABA",
"2+	c #CCCCCC",
"3+	c #E0E0E0",
"4+	c #EBEBEB",
"5+	c #C1C1C1",
"6+	c #BEBEBE",
"7+	c #B9B9B9",
"8+	c #AFAFAF",
"9+	c #4E4E4E",
"0+	c #121212",
"a+	c #141414",
"b+	c #353535",
"c+	c #2C2C2C",
"d+	c #2F2F2F",
"e+	c #272727",
"f+	c #4B4B4B",
"g+	c #232323",
"h+	c #131313",
"i+	c #151515",
"                                                                                                                                ",
"                                                                                                                                ",
"                                                                                                                                ",
"    . + @ # $ % & * = - ; > , ; ' ) ! ~ { ] ^ / ( @ _ : < [ } | | 1 2 3 4 5 6 7 / 8 9 0 = a b ' ) c > , ' d e f g h ^ i j .     ",
"    . k l m n % & o i 7 0 , ' p 9 q r s f $ / / ( t u v v v v v v v v v w x 6 7 / 8 y z * e A 9 q r B , ( C D f g 8 m l E .     ",
"    . F v v G % & H v v I J s K L F M e ] N 9 8 O v v P w m Q R S R E T v v U ^ 9 $ V h f A ] L F W X B v v Y f g I v v : .     ",
"    . Z `  .[ % & ..v v H , b ( E +.@.= #.$.%.v v &.N K +.T [ 2 2 G < I *.=.v L -.g ] g ;.M 0 E +.p >.,. .v Y f g 4 ` ` '..     ",
"    . 5 j @ # % & ).).;.- !.~.{.].r c B ^.v v m /.p (.O _.v v v v v v u :.<.[.v v }.s b >.|.X ].r 1.2.3.{ A [.f g 4.5.6.n .     ",
"    . + @ % , > 3.!.7.8.9.0.a.0.0.0.b.i v *.J ,.H c.v v v d.: T < w x v v R e.' n f.@ g.v h.i.0.0.a.0.j.k.l.!.2.> , e i j .     ",
"    . + @ m.n.n.n.n.n.n.n.o.p.p.q.p.9 v r.s.5.6 v v ^.t.L N *.n +._ 7 u.v.v v *.w.( x.y.v z.A.q.p.o.B.C.n.n.n.n.n.n.D.i j .     ",
"    . + @ m.n.n.n.n.n.n.n.E.E.E.E.E.v F.<.<.v v ( @ G.a ).$ @ j + K y o @.n K v # H.I.v v v F.E.E.E.E.E.n.n.n.n.n.n.D.i j .     ",
"    . + @ m.n.n.n.n.n.n.n.J.J.J.J.J.v % v v V K.I.0.l.>.* L.C *._ i $.0 ! M.j.N.v $.V O.v v O.J.J.J.J.J.n.n.n.n.n.n.D.i j .     ",
"    . + @ m.n.n.n.n.n.n.n.P.P.P.P.P.v v z E.F.B.Q.R.S.,.M T.U.V.*.C h * ) 8.W.X.C. .Y.p Z.v E.P.P.P.P.P.n.n.n.n.n.n.D.i j .     ",
"    . + @ m.n.n.n.n.n.n.n.P.P.P.P.P.z E.E.E.`.F. +s.i.J { % N .+V.( q ;.1.w.++@+q.#+$+v v v v P.P.J.J.J.n.n.n.n.n.n.D.i j .     ",
"    . + @ m.n.n.P.n.n.n.n.P.P.P.P.P.E.E.E.E.%+&+*+H.h.c { % N .+V.7 q =+,.S.-+ +F.%+;+E.v v v v P.J.J.J.P.P.P.P.P.P.D.i j .     ",
"    . + @ m.n.P.J.J.n.n.n.P.P.P.P.J.E.E.E.E.%+&+*+>+h., }.-.N .+V.7 q =+,.S.s.,+&+%+;+E.v v v W J.J.J.'+J.J.J.J.J.J.D.i j .     ",
"    . + @ m.n.P.J.J.J.n.n.P.P.P.J.J.E.E.v v `.F.,+H.i.c }.-.N .+V.7 q =+,.S.-+ +F.`.O.E.v v E.J.J.J.'+'+J.J.J.J.J.J.D.i j .     ",
"    . + @ m.n.P.J.J.J.n.n.P.P.P.J.J.z v v v `.F.,+H.i.c }.-.N .+V.7 q =+,.S.-+ +F.`.O.E.E.E.E.J.J.J.'+'+J.J.J.J.J.J.D.i j .     ",
"    . + @ m.n.P.J.J.J.J.n.P.P.J.J.J.v v v v `.F.,+H.i.c }.-.N .+V.7 q =+,.S.-+@+q.`.$+E.E.E.E.J.J.'+'+'+J.J.J.J.J.J.D.i j .     ",
"    . + @ m.n.P.J.J.J.J.n.P.P.J.J.J.)+v v v v q. +s.i.J { T.N .+V.7 q =+1.w.++!+p.#+%+)+)+E.E.g J.'+'+'+J.J.J.J.J.J.D.i j H     ",
"    . + @ m.n.P.J.J.J.J.J.J.J.J.'+'+)+)+v Z.~+Y. .++9.B ].T.( .+V.C <.;.|.k.{+K.B.&+#+)+)+z v v '+'+'+'+J.J.J.J.J.J.D.i j I     ",
"    . + @ m.n.P.J.J.J.J.J.J.J.'+'+'+;+;+v v C.$.y v .+; ;.<.7 6.6.D V ]+' 7.a.^+@+C.o.-.v v -.v '+'+'+'+J.J.J.J.J.J.D.i j I     ",
"    . + @ m.n.P.J.J.J.J.n.'+'+'+E.E.`.`.v v v I./+i v ..S V D _ j @ 9 p (+G._+W.8 9 v v :+T.`.v E.E.E.E.J.J.J.J.J.J.D.i j .     ",
"    . + @ m.n.P.J.J.J.J.J.%+%+$+$+$+*+*+ +v y.x.7 M.I v v :.x k k *./ -.M 4 _ @ v v ( $.,+*+v % $+%+%+`.J.J.J.J.J.J.D.i j .     ",
"    . + @ s >+^+X.@+*+C.o.z.A.X.Q.Q.{+W.0.v <+[+f.I s l }+v v T T : d.O |+v v v j 6.1+2+N v N Q.Q.X.A.3+B.4+@+Q.3+H.,.i j .     ",
"    . _ U.$ <.% & s ! 1.,.5+6+3.,.c 7+!.8+! (+d s v v $ D P T v v v v v v %.R Z a {.^.v v _ G.,.c 1+5+5+c X @.f g :+$.N 6..     ",
"    . 9+0+a+t % & 5.G G D > - V 5 i - {.M -.[.o W q b+v P 9+F 2 2 [ < '.c+^ <.g l v v v.= b M 5 i ;.B > G G P f g *.a+0+d+.     ",
"    . F v v G % & H v v I c s *.}+t.].M ] N $ 4.y # 5.e+v v 2 S v.R E f+n d.U v v }+L.V f 0 ~+}+t.g X B v v Y f g I v v : .     ",
"    . ..< T u.% & .+c+d+/ c ~ h _ 7 ].e ] # ( ( 7 @ j H [ 1 v v v v v v v v v c+_.^ ^ h f A ] _ 7 * ; 1.:.t O f g 6.g+T &..     ",
"    . + @ # $ % & * = - ; , ,.(+].r d = #.h C D @ V.k ^.m S a+a+h+h+i+| 2 3 g+@ C ( N g ;.{ * ].r ) c ,.' d e f g h ^ i j .     ",
"                                            C D @ *.n ..                  I _ K D ( N                                           ",
"                                                                                                                                "};
