/* XPM */
static char * encode_video_xpm[] = {
"32 32 333 2",
"  	c None",
". 	c #969696",
"+ 	c #010101",
"@ 	c #2D1412",
"# 	c #E48E6E",
"$ 	c #FCAC8C",
"% 	c #FFC6AA",
"& 	c #FDCCB4",
"* 	c #FFCCB4",
"= 	c #FAAB96",
"- 	c #F1A796",
"; 	c #BEB1B3",
"> 	c #A8AAB4",
", 	c #0F0F10",
"' 	c #595959",
") 	c #2F1515",
"! 	c #954240",
"~ 	c #AB5244",
"{ 	c #D6795B",
"] 	c #F79E7E",
"^ 	c #FFBEA2",
"/ 	c #FFD4BF",
"( 	c #FFCCB5",
"_ 	c #EF9580",
": 	c #EC8F7F",
"< 	c #CDADAD",
"[ 	c #9EA4B3",
"} 	c #0F1011",
"| 	c #2F1312",
"1 	c #8D3938",
"2 	c #9B3F3A",
"3 	c #BC5944",
"4 	c #E17F61",
"5 	c #FB9C7F",
"6 	c #FFBCA4",
"7 	c #F0A78E",
"8 	c #D76E56",
"9 	c #D57D6F",
"0 	c #D4B1B5",
"a 	c #A9B9D4",
"b 	c #101215",
"c 	c #050302",
"d 	c #0E0606",
"e 	c #0F0606",
"f 	c #120807",
"g 	c #160C09",
"h 	c #190F0C",
"i 	c #191210",
"j 	c #17100D",
"k 	c #150A08",
"l 	c #140D0B",
"m 	c #151213",
"n 	c #121417",
"o 	c #030303",
"p 	c #040101",
"q 	c #0D0301",
"r 	c #220902",
"s 	c #3B1C12",
"t 	c #44271E",
"u 	c #4B2D23",
"v 	c #54352B",
"w 	c #5C3E33",
"x 	c #5E4137",
"y 	c #62443B",
"z 	c #584846",
"A 	c #444753",
"B 	c #070809",
"C 	c #080201",
"D 	c #2E0902",
"E 	c #772A17",
"F 	c #A5533A",
"G 	c #B5664D",
"H 	c #C4755A",
"I 	c #DB896E",
"J 	c #F0A085",
"K 	c #F7AB90",
"L 	c #FEAF95",
"M 	c #DCB4B2",
"N 	c #A5ADCB",
"O 	c #101114",
"P 	c #120604",
"Q 	c #64261C",
"R 	c #A5513D",
"S 	c #B5624B",
"T 	c #B8684F",
"U 	c #C67961",
"V 	c #E08D75",
"W 	c #F0A187",
"X 	c #F1A78C",
"Y 	c #F0A590",
"Z 	c #C8ACAF",
"` 	c #97A0BA",
" .	c #0F1013",
"..	c #2A120F",
"+.	c #95483C",
"@.	c #BA6650",
"#.	c #C8755B",
"$.	c #BD6C55",
"%.	c #BF7055",
"&.	c #CC7F5F",
"*.	c #D38969",
"=.	c #C67755",
"-.	c #CF927C",
";.	c #A5A2AE",
">.	c #9396A8",
",.	c #0E0F10",
"'.	c #321713",
").	c #A45144",
"!.	c #C16E58",
"~.	c #D98669",
"{.	c #DD8B6C",
"].	c #D5825F",
"^.	c #CF805C",
"/.	c #E09876",
"(.	c #DC8D6F",
"_.	c #E4AD9B",
":.	c #A4A6B2",
"<.	c #A0A0AD",
"[.	c #101011",
"}.	c #000000",
"|.	c #331714",
"1.	c #A24B41",
"2.	c #BE6750",
"3.	c #E48F70",
"4.	c #FAAB8B",
"5.	c #FABB9E",
"6.	c #F5BB9F",
"7.	c #FCC3A8",
"8.	c #F7AB95",
"9.	c #F1AD9C",
"0.	c #B6B0B5",
"a.	c #A7A8B2",
"b.	c #111112",
"c.	c #301616",
"d.	c #964440",
"e.	c #AD5545",
"f.	c #D97D5E",
"g.	c #F8A182",
"h.	c #FFC1A5",
"i.	c #FFD6C1",
"j.	c #FFCEB7",
"k.	c #F29A86",
"l.	c #EE9383",
"m.	c #CBADAC",
"n.	c #A1A5B1",
"o.	c #020202",
"p.	c #2F1313",
"q.	c #8E3A3A",
"r.	c #9D413B",
"s.	c #BF5D46",
"t.	c #E58364",
"u.	c #FCA083",
"v.	c #FFBFA7",
"w.	c #F3AD94",
"x.	c #DA725A",
"y.	c #D97E6F",
"z.	c #D1ADB0",
"A.	c #A0B0CA",
"B.	c #0C0505",
"C.	c #220E0D",
"D.	c #250F0E",
"E.	c #2C1410",
"F.	c #341D16",
"G.	c #3C231C",
"H.	c #3D2C26",
"I.	c #38251F",
"J.	c #321913",
"K.	c #311E1B",
"L.	c #322B2C",
"M.	c #2B2F36",
"N.	c #050506",
"O.	c #030101",
"P.	c #150602",
"Q.	c #25120C",
"R.	c #2B1913",
"S.	c #2F1D16",
"T.	c #35221B",
"U.	c #3A2720",
"V.	c #3B2923",
"W.	c #3D2B25",
"X.	c #372D2C",
"Y.	c #2B2D34",
"Z.	c #2B0801",
"`.	c #6F2613",
" +	c #A35037",
".+	c #B4664D",
"++	c #F7AA90",
"@+	c #FEB096",
"#+	c #DEB5B3",
"$+	c #A8B0CE",
"%+	c #0F0403",
"&+	c #591F15",
"*+	c #A04B38",
"=+	c #B26048",
"-+	c #B8684E",
";+	c #C67960",
">+	c #E18D75",
",+	c #F2A389",
"'+	c #F6AC91",
")+	c #F6A993",
"!+	c #CDADAF",
"~+	c #99A2BE",
"{+	c #27110E",
"]+	c #914539",
"^+	c #B8644E",
"/+	c #C67259",
"(+	c #BA6A55",
"_+	c #BF7158",
":+	c #CF8163",
"<+	c #D48A6B",
"[+	c #C77A58",
"}+	c #CE8F79",
"|+	c #A7A2AD",
"1+	c #9194A7",
"2+	c #0E0E10",
"3+	c #A35143",
"4+	c #C06E58",
"5+	c #D78467",
"6+	c #D88567",
"7+	c #D07D59",
"8+	c #CC7E59",
"9+	c #DB9370",
"0+	c #D78768",
"a+	c #E2AB99",
"b+	c #A3A5B2",
"c+	c #9FA0AD",
"d+	c #353535",
"e+	c #A34D41",
"f+	c #BF6952",
"g+	c #E38F70",
"h+	c #F7A989",
"i+	c #F6B496",
"j+	c #F0B193",
"k+	c #FABDA2",
"l+	c #F5A993",
"m+	c #F0AF9D",
"n+	c #B3AEB5",
"o+	c #A6A7B1",
"p+	c #311615",
"q+	c #984540",
"r+	c #B05947",
"s+	c #DC8263",
"t+	c #FAA586",
"u+	c #FFC4A8",
"v+	c #FFD6C2",
"w+	c #FFD0B9",
"x+	c #F5A08C",
"y+	c #EF9888",
"z+	c #C9AFAE",
"A+	c #A5A8B2",
"B+	c #101112",
"C+	c #080808",
"D+	c #2F1414",
"E+	c #8F3C3B",
"F+	c #9E433C",
"G+	c #C36049",
"H+	c #E88767",
"I+	c #FDA588",
"J+	c #FFC2AB",
"K+	c #F6B39A",
"L+	c #DC765F",
"M+	c #DD7F70",
"N+	c #D3AEB1",
"O+	c #9DADC6",
"P+	c #0F1113",
"Q+	c #393B3C",
"R+	c #120707",
"S+	c #361515",
"T+	c #3A1716",
"U+	c #451F19",
"V+	c #532E23",
"W+	c #60382D",
"X+	c #62453C",
"Y+	c #593B31",
"Z+	c #50271E",
"`+	c #4E302B",
" @	c #524547",
".@	c #464C57",
"+@	c #141414",
"@@	c #61676F",
"#@	c #020101",
"$@	c #090301",
"%@	c #100805",
"&@	c #120A08",
"*@	c #140C0A",
"=@	c #160E0B",
"-@	c #18100E",
";@	c #18110E",
">@	c #171312",
",@	c #121215",
"'@	c #5C6674",
")@	c #270701",
"!@	c #68210F",
"~@	c #A04E35",
"{@	c #B4654C",
"]@	c #DC8A6E",
"^@	c #F6AA8F",
"/@	c #FEB097",
"(@	c #E0B7B4",
"_@	c #ABB2D1",
":@	c #111215",
"<@	c #36393E",
"[@	c #3A4455",
"}@	c #0D0402",
"|@	c #531B12",
"1@	c #9B4733",
"2@	c #B15E47",
"3@	c #C6785F",
"4@	c #E08C74",
"5@	c #F2A288",
"6@	c #F8AA93",
"7@	c #CFAEAF",
"8@	c #9AA3BF",
"9@	c #000001",
"0@	c #4C5767",
"a@	c #333F54",
"b@	c #220E0B",
"c@	c #873E33",
"d@	c #B45F4B",
"e@	c #C16D54",
"f@	c #B86853",
"g@	c #BF735D",
"h@	c #D5856A",
"i@	c #DD9173",
"j@	c #CE8262",
"k@	c #D18E78",
"l@	c #ADA4AD",
"m@	c #9094A8",
"n@	c #090907",
"o@	c #4B5E78",
"p@	c #35455C",
"q@	c #4D607B",
"r@	c #3C4B66",
"                                                                ",
"                                                                ",
"                                                                ",
"            .     + @     # $ % & * = - ; > ,                   ",
"            ' + + + ) ! ~ { ] ^ / ( _ : < [ } + +               ",
"            ' + + + | 1 2 3 4 5 6 7 8 9 0 a b + + +             ",
"            ' +   + c d e f g h i j k l m n o +   +             ",
"            ' + + + p q r s t u v w x y z A B + + +             ",
"            ' + + + C D E F G H I J K L M N O + + +             ",
"            ' +   + P Q R S T U V W X Y Z `  .+   +             ",
"            ' + + + ..+.@.#.$.%.&.*.=.-.;.>.,.+ + +             ",
"            ' + + + '.).!.~.{.].^./.(._.:.<.[.+ + +             ",
"            ' + }.+ |.1.2.3.4.5.6.7.8.9.0.a.b.+   +             ",
"            ' + + + c.d.e.f.g.h.i.j.k.l.m.n.[.+ o.+             ",
"            ' + + + p.q.r.s.t.u.v.w.x.y.z.A.O + + +             ",
"            ' + }.+ B.C.D.E.F.G.H.I.J.K.L.M.N.+ }.+             ",
"            ' + }.+ O.C P.Q.R.S.T.U.V.W.X.Y.N.+ }.+             ",
"            ' + + + C Z.`. +.+H I J ++@+#+$+b + + +             ",
"            ' + }.+ %+&+*+=+-+;+>+,+'+)+!+~+ .+ + +             ",
"            ' + }.+ {+]+^+/+(+_+:+<+[+}+|+1+2++ o.+             ",
"            ' + + + '.3+4+5+6+7+8+9+0+a+b+c+[.+ + +             ",
"            d++ + + |.e+f+g+h+i+j+k+l+m+n+o+b.+ + }.            ",
"              + }.+ p+q+r+s+t+u+v+w+x+y+z+A+B++ o.C+            ",
"              + + + D+E+F+G+H+I+J+K+L+M+N+O+P++ + Q+            ",
"              + + + R+S+T+U+V+W+X+Y+Z+`+ @.@B + +@@@            ",
"              +   + #@p $@%@&@*@=@-@;@i >@,@o +   '@            ",
"              + + + C )@!@~@{@H ]@J ^@/@(@_@:@+ <@[@            ",
"              + + + }@|@1@2@-+3@4@5@'+6@7@8@ .9@0@a@            ",
"              +   + b@c@d@e@f@g@h@i@j@k@l@m@2+n@o@p@            ",
"                                                q@r@            ",
"                                                                ",
"                                                                "};
