/* XPM */
static char * encode_all_xpm[] = {
"32 32 286 2",
"  	c None",
". 	c #242424",
"+ 	c #010101",
"@ 	c #2F1515",
"# 	c #974440",
"$ 	c #B95F4A",
"% 	c #E58868",
"& 	c #FFB698",
"* 	c #FFCFB9",
"= 	c #FFD1BB",
"- 	c #F29B86",
"; 	c #EC9688",
"> 	c #BFAFB3",
", 	c #676B74",
"' 	c #2F1312",
") 	c #8E3A39",
"! 	c #A4443B",
"~ 	c #C8664D",
"{ 	c #F49374",
"] 	c #FFB097",
"^ 	c #F5B198",
"/ 	c #D76F58",
"( 	c #D98577",
"_ 	c #C6B8C4",
": 	c #6D798B",
"< 	c #050101",
"[ 	c #160401",
"} 	c #4B190B",
"| 	c #6D3726",
"1 	c #7F4B3B",
"2 	c #8C5744",
"3 	c #9F6A57",
"4 	c #A4715F",
"5 	c #AA7768",
"6 	c #8F7D82",
"7 	c #4C5162",
"8 	c #0B0302",
"9 	c #4E160C",
"0 	c #A44E37",
"a 	c #B26048",
"b 	c #BF7156",
"c 	c #D38268",
"d 	c #F09F85",
"e 	c #F7AB91",
"f 	c #FAAD95",
"g 	c #BEACB6",
"h 	c #656D81",
"i 	c #1F0D0A",
"j 	c #883E33",
"k 	c #BA654E",
"l 	c #BD6952",
"m 	c #BA6E59",
"n 	c #CF8067",
"o 	c #E09377",
"p 	c #D58A6B",
"q 	c #D39785",
"r 	c #AAA4B0",
"s 	c #5D6070",
"t 	c #321713",
"u 	c #A55345",
"v 	c #C9765D",
"w 	c #D78669",
"x 	c #CE7A59",
"y 	c #C97752",
"z 	c #D48F6C",
"A 	c #D58464",
"B 	c #D8AB9E",
"C 	c #A1A4B2",
"D 	c #6A6A73",
"E 	c #331714",
"F 	c #A54E42",
"G 	c #CB755B",
"H 	c #ED9978",
"I 	c #F8B293",
"J 	c #F0B092",
"K 	c #FABDA1",
"L 	c #F5AA94",
"M 	c #E7B0A2",
"N 	c #AEACB4",
"O 	c #6E6E76",
"P 	c #301616",
"Q 	c #E58768",
"R 	c #BEADB1",
"S 	c #020101",
"T 	c #C2B4C0",
"U 	c #6D788B",
"V 	c #000000",
"W 	c #919AA9",
"X 	c #ADB4C0",
"Y 	c #B9C0CA",
"Z 	c #78879D",
"` 	c #3F495A",
" .	c #273040",
"..	c #293345",
"+.	c #707685",
"@.	c #BCC4CE",
"#.	c #748091",
"$.	c #232A36",
"%.	c #191E25",
"&.	c #232B3A",
"*.	c #222D42",
"=.	c #1A2437",
"-.	c #6B6F7B",
";.	c #9EA6B4",
">.	c #E09376",
",.	c #D4896B",
"'.	c #6B778B",
").	c #29313C",
"!.	c #191E26",
"~.	c #1D232B",
"{.	c #1F2733",
"].	c #222D40",
"^.	c #25334B",
"/.	c #212B3D",
"(.	c #B1B6C1",
"_.	c #808B9D",
":.	c #2C3440",
"<.	c #181D25",
"[.	c #1E232B",
"}.	c #1E242B",
"|.	c #1E242C",
"1.	c #212A3A",
"2.	c #2B3956",
"3.	c #151F35",
"4.	c #8792A2",
"5.	c #6F7B8D",
"6.	c #161616",
"7.	c #4C5563",
"8.	c #131923",
"9.	c #1C222C",
"0.	c #20252C",
"a.	c #20252A",
"b.	c #1D252D",
"c.	c #1F2A3D",
"d.	c #293955",
"e.	c #1D2A44",
"f.	c #5B6980",
"g.	c #7A879A",
"h.	c #0D0D0D",
"i.	c #6C7583",
"j.	c #121925",
"k.	c #1C222A",
"l.	c #1E232C",
"m.	c #20242A",
"n.	c #202730",
"o.	c #36445C",
"p.	c #394861",
"q.	c #283852",
"r.	c #24344E",
"s.	c #55657E",
"t.	c #79869A",
"u.	c #38393C",
"v.	c #313847",
"w.	c #151B26",
"x.	c #1E222B",
"y.	c #1F242D",
"z.	c #1F232A",
"A.	c #3B485F",
"B.	c #7185A1",
"C.	c #667996",
"D.	c #2B3B56",
"E.	c #23334F",
"F.	c #61728E",
"G.	c #636B75",
"H.	c #121A26",
"I.	c #1D242E",
"J.	c #21262E",
"K.	c #1E2227",
"L.	c #3C4656",
"M.	c #8D9FB7",
"N.	c #687B9A",
"O.	c #576A89",
"P.	c #323E56",
"Q.	c #2D3C5B",
"R.	c #6A809D",
"S.	c #1C1D1F",
"T.	c #49525F",
"U.	c #1B2433",
"V.	c #252D3C",
"W.	c #262D39",
"X.	c #1F232D",
"Y.	c #6B7990",
"Z.	c #99ABC2",
"`.	c #63799C",
" +	c #425372",
".+	c #404E65",
"++	c #485C7D",
"@+	c #5E7393",
"#+	c #43526B",
"$+	c #2A2F36",
"%+	c #3F4B5E",
"&+	c #2E3A51",
"*+	c #354158",
"=+	c #344054",
"-+	c #313E53",
";+	c #7A8AA2",
">+	c #687D9E",
",+	c #3B4D6E",
"'+	c #2E3A4F",
")+	c #7D90AC",
"!+	c #62799E",
"~+	c #323C4B",
"{+	c #41526E",
"]+	c #44587B",
"^+	c #404D5C",
"/+	c #3B4C65",
"(+	c #34425A",
"_+	c #35425B",
":+	c #38465D",
"<+	c #45536C",
"[+	c #4F5D77",
"}+	c #334561",
"|+	c #1A2336",
"1+	c #5B6576",
"2+	c #8A9DB9",
"3+	c #51617D",
"4+	c #252B38",
"5+	c #37465F",
"6+	c #3C4D68",
"7+	c #3C4B65",
"8+	c #46536D",
"9+	c #505E77",
"0+	c #68778F",
"a+	c #808C9F",
"b+	c #585F6E",
"c+	c #828997",
"d+	c #B5C1D5",
"e+	c #60718D",
"f+	c #242C38",
"g+	c #181E26",
"h+	c #2D384B",
"i+	c #455570",
"j+	c #46546D",
"k+	c #637189",
"l+	c #778499",
"m+	c #96A2B3",
"n+	c #C9D1DE",
"o+	c #D3DAE4",
"p+	c #C3CCD9",
"q+	c #7A89A1",
"r+	c #324055",
"s+	c #0C101A",
"t+	c #171B24",
"u+	c #2B3547",
"v+	c #64738B",
"w+	c #44526A",
"x+	c #8F9AAC",
"y+	c #B9BFCA",
"z+	c #C7CBD0",
"A+	c #CACFD7",
"B+	c #BFC9D7",
"C+	c #707C8F",
"D+	c #2C3342",
"E+	c #171E29",
"F+	c #1C2330",
"G+	c #232732",
"H+	c #7C8AA1",
"I+	c #5A687F",
"J+	c #828EA2",
"K+	c #B6BEC9",
"L+	c #BEC5CD",
"M+	c #C4CCD7",
"N+	c #7B8599",
"O+	c #2A303C",
"P+	c #15181C",
"Q+	c #020302",
"R+	c #7F889A",
"S+	c #646F82",
"T+	c #929AA7",
"U+	c #9DA4AD",
"V+	c #9498A0",
"W+	c #454C57",
"X+	c #171D26",
"Y+	c #090A0B",
"Z+	c #020202",
"`+	c #323743",
" @	c #28303C",
".@	c #232931",
"+@	c #13171D",
"@@	c #101215",
"#@	c #080809",
"$@	c #030303",
"%@	c #040404",
"&@	c #0A0A0B",
"*@	c #060607",
"=@	c #030302",
"                                                                ",
"                                                                ",
"  .   + @ # $ % & * = - ; > , +                                 ",
"  . + + ' ) ! ~ { ] ^ / ( _ : + + +                             ",
"  .   + + + + + + + + + + + + +   +                             ",
"  . + + < [ } | 1 2 3 4 5 6 7 + + +                             ",
"  . + + 8 9 0 a b c d e f g h + + +                             ",
"  .   + i j k l m n o p q r s +   +                             ",
"  . + + t u v w x y z A B C D + + +                             ",
"  . + + E F G H I J K L M N O +   +                             ",
"  . + + P # $ Q & * = - ; R , + + S                             ",
"  . + + ' ) ! ~ { ] ^ / ( T U + + +                             ",
"  . V + + + + + + + + + + + + +   +             W X Y           ",
"  . + + < [ } | 1 2 3 4 5 6 7 + + +         Z `  ...+.@.        ",
"  . + + 8 9 0 a b c d e f g h + + +       #.$.%.&.*.=.-.;.      ",
"  .   + i j k l m n >.,.q r s +   +     '.).!.~.{.].^./.(.      ",
"  . + + t u v w x y z A B C D + + +   _.:.<.[.}.|.1.2.3.4.5.    ",
"  6.+ + E F G H I J K L M N O + + V   7.8.9.0.a.b.c.d.e.f.g.    ",
"  + V + P # $ Q & * = - ; > , + + h.i.j.k.l.m.n.o.p.q.r.s.t.    ",
"  + + + ' ) ! ~ { ] ^ / ( _ : + + u.v.w.x.y.z.A.B.C.D.E.F.      ",
"  +   + + + + + + + + + + + + +   G.H.I.J.K.L.M.N.O.P.Q.R.      ",
"  + + + < [ } | 1 2 3 4 5 6 7 + S.T.U.V.W.X.Y.Z.`. +.+++@+#+    ",
"  + + + 8 9 0 a b c d e f g h + $+%+&+*+=+-+;+>+,+'+)+!+~+{+]+  ",
"  +   + i j k l m n o p q r s + ^+/+(+_+:+<+[+}+|+1+2+3+4+5+    ",
"                                  6+7+8+9+0+a+b+c+d+e+f+g+h+    ",
"                                  i+j+k+l+m+n+o+p+q+r+s+t+u+    ",
"                                  v+w+x+y+z+A+B+C+D+E+F+G+      ",
"                                  H+I+J+K+L+M+N+O+P+Q++ V       ",
"                                  R+S+T+U+V+W+X+Y++ Z+Z+Z++     ",
"                                    `+ @.@+@@@#@Z+$@%@%@$@$@    ",
"                                      #@&@*@=@$@$@$@Z+Z+        ",
"                                                                "};
