/* XPM */
static char * encode_audio_xpm[] = {
"32 32 379 2",
"  	c None",
". 	c #7F8575",
"+ 	c #7D8575",
"@ 	c #757C6B",
"# 	c #51574A",
"$ 	c #40453B",
"% 	c #505142",
"& 	c #555F51",
"* 	c #515949",
"= 	c #4E5747",
"- 	c #4A5243",
"; 	c #42473C",
"> 	c #4F5040",
", 	c #444C42",
"' 	c #586452",
") 	c #42493D",
"! 	c #3B4238",
"~ 	c #3C4138",
"{ 	c #282821",
"] 	c #586350",
"^ 	c #292B25",
"/ 	c #939CA9",
"( 	c #A0A7B3",
"_ 	c #AFB4BF",
": 	c #ABB2BC",
"< 	c #606C5E",
"[ 	c #4C5747",
"} 	c #393E36",
"| 	c #8A93A1",
"1 	c #667080",
"2 	c #3C4657",
"3 	c #303A4B",
"4 	c #404A5D",
"5 	c #767E8C",
"6 	c #B1B8C3",
"7 	c #949CAA",
"8 	c #7E877E",
"9 	c #566255",
"0 	c #3E483B",
"a 	c #A0A799",
"b 	c #495446",
"c 	c #8C929D",
"d 	c #4B5464",
"e 	c #272D3A",
"f 	c #202733",
"g 	c #202A3B",
"h 	c #1C273C",
"i 	c #1E293C",
"j 	c #646C7B",
"k 	c #B2B8C3",
"l 	c #6A7383",
"m 	c #4B564A",
"n 	c #576153",
"o 	c #6E7B63",
"p 	c #2D322C",
"q 	c #373D34",
"r 	c #5A6757",
"s 	c #414A3C",
"t 	c #7F8693",
"u 	c #414854",
"v 	c #1E232B",
"w 	c #1D222A",
"x 	c #1F2530",
"y 	c #212939",
"z 	c #222E43",
"A 	c #263247",
"B 	c #212C3E",
"C 	c #7C8490",
"D 	c #9097A4",
"E 	c #576453",
"F 	c #444D40",
"G 	c #3C4337",
"H 	c #535E4C",
"I 	c #4B483B",
"J 	c #24251F",
"K 	c #7D828E",
"L 	c #39404B",
"M 	c #1E242C",
"N 	c #1C212A",
"O 	c #1D232B",
"P 	c #1E242E",
"Q 	c #1F2734",
"R 	c #232E42",
"S 	c #28354D",
"T 	c #253046",
"U 	c #343F50",
"V 	c #A4ABB7",
"W 	c #565E6C",
"X 	c #626F57",
"Y 	c #62705B",
"Z 	c #464E3F",
"` 	c #2A2F26",
" .	c #80838F",
"..	c #4D5562",
"+.	c #1A2029",
"@.	c #1E242B",
"#.	c #1E242D",
"$.	c #222C3F",
"%.	c #28364F",
"&.	c #283650",
"*.	c #1F2A3C",
"=.	c #8D99A8",
"-.	c #616B79",
";.	c #3A4033",
">.	c #465040",
",.	c #353B2F",
"'.	c #535A68",
").	c #1E242F",
"!.	c #1E232C",
"~.	c #1F242C",
"{.	c #1F242B",
"].	c #1F2632",
"^.	c #27354E",
"/.	c #2A3A56",
"(.	c #1F2B40",
"_.	c #67758B",
":.	c #657080",
"<.	c #394236",
"[.	c #11130F",
"}.	c #747B87",
"|.	c #181E28",
"1.	c #1C222B",
"2.	c #22262C",
"3.	c #21252B",
"4.	c #202731",
"5.	c #263042",
"6.	c #263249",
"7.	c #26344D",
"8.	c #2D3E5B",
"9.	c #212F47",
"0.	c #5A6A81",
"a.	c #657081",
"b.	c #90998B",
"c.	c #637061",
"d.	c #404B3D",
"e.	c #3D4551",
"f.	c #171E29",
"g.	c #1B212A",
"h.	c #20252B",
"i.	c #232B35",
"j.	c #37445C",
"k.	c #4D5D78",
"l.	c #43536E",
"m.	c #2A3852",
"n.	c #304160",
"o.	c #24324C",
"p.	c #5F6F88",
"q.	c #606C7D",
"r.	c #C9CDC9",
"s.	c #8D988B",
"t.	c #2D352C",
"u.	c #37362E",
"v.	c #7B8089",
"w.	c #1F2532",
"x.	c #1B212C",
"y.	c #1D222B",
"z.	c #232931",
"A.	c #364358",
"B.	c #697A96",
"C.	c #7285A1",
"D.	c #607490",
"E.	c #35445E",
"F.	c #324361",
"G.	c #263550",
"H.	c #677893",
"I.	c #586476",
"J.	c #303831",
"K.	c #1A1D19",
"L.	c #474E5B",
"M.	c #19202C",
"N.	c #1D232D",
"O.	c #20252D",
"P.	c #21252C",
"Q.	c #20242B",
"R.	c #394353",
"S.	c #7C8CA3",
"T.	c #7689A4",
"U.	c #657998",
"V.	c #566887",
"W.	c #37445D",
"X.	c #374865",
"Y.	c #2F3F5C",
"Z.	c #6A7E9A",
"`.	c #626F81",
" +	c #4E4F43",
".+	c #9398A0",
"++	c #2F3644",
"@+	c #202837",
"#+	c #212834",
"$+	c #232A35",
"%+	c #222731",
"&+	c #22272F",
"*+	c #647288",
"=+	c #9DACC1",
"-+	c #7186A3",
";+	c #5E7395",
">+	c #465876",
",+	c #38455B",
"'+	c #435574",
")+	c #465A7B",
"!+	c #617593",
"~+	c #4F5C74",
"{+	c #4F5947",
"]+	c #445241",
"^+	c #4E5343",
"/+	c #656D7B",
"(+	c #2A3445",
"_+	c #2A3548",
":+	c #2D384B",
"<+	c #2E384A",
"[+	c #2C3546",
"}+	c #2D3849",
"|+	c #8594AA",
"1+	c #8C9EB8",
"2+	c #607598",
"3+	c #4D6284",
"4+	c #3B4A63",
"5+	c #526179",
"6+	c #566A8B",
"7+	c #5C7395",
"8+	c #44536A",
"9+	c #3F4E68",
"0+	c #43536F",
"a+	c #4B6145",
"b+	c #1E211D",
"c+	c #515C6D",
"d+	c #2F3B52",
"e+	c #323F55",
"f+	c #344157",
"g+	c #344156",
"h+	c #374459",
"i+	c #3C4A61",
"j+	c #77879F",
"k+	c #667A99",
"l+	c #3D5072",
"m+	c #35445F",
"n+	c #394458",
"o+	c #7C8BA2",
"p+	c #647999",
"q+	c #566987",
"r+	c #2E3745",
"s+	c #3C4C67",
"t+	c #3B4A65",
"u+	c #80867D",
"v+	c #50614C",
"w+	c #30462B",
"x+	c #4E5B70",
"y+	c #35435A",
"z+	c #36445C",
"A+	c #38475E",
"B+	c #404E66",
"C+	c #516079",
"D+	c #4C5A73",
"E+	c #384864",
"F+	c #243045",
"G+	c #252E3E",
"H+	c #717D8F",
"I+	c #8FA0B7",
"J+	c #657795",
"K+	c #394355",
"L+	c #27303F",
"M+	c #334057",
"N+	c #303D54",
"O+	c #636D64",
"P+	c #6F7A6F",
"Q+	c #445043",
"R+	c #435941",
"S+	c #505E76",
"T+	c #38465F",
"U+	c #3D4C65",
"V+	c #425069",
"W+	c #485670",
"X+	c #54627B",
"Y+	c #6C7C94",
"Z+	c #6C798D",
"`+	c #4B5666",
" @	c #495160",
".@	c #7D8796",
"+@	c #A9B5C8",
"@@	c #7B8CA6",
"#@	c #49576F",
"$@	c #1C222A",
"%@	c #1D2430",
"&@	c #2A354A",
"*@	c #353C34",
"=@	c #3C4237",
"-@	c #464A3C",
";@	c #58677F",
">@	c #3A4861",
",@	c #495871",
"'@	c #58667F",
")@	c #616F87",
"!@	c #77859B",
"~@	c #909DAF",
"{@	c #BDC6D4",
"]@	c #C1CAD6",
"^@	c #BFC7D2",
"/@	c #BFC7D5",
"(@	c #8696AE",
"_@	c #55647E",
":@	c #2A3446",
"<@	c #11151E",
"[@	c #171C25",
"}@	c #262E3E",
"|@	c #667389",
"1@	c #3C4A63",
"2@	c #57667E",
"3@	c #7A869B",
"4@	c #8E9AAB",
"5@	c #A7B0BD",
"6@	c #B8C0CA",
"7@	c #C9CFD8",
"8@	c #CBD1DB",
"9@	c #B8C1CF",
"0@	c #8A97AB",
"a@	c #475367",
"b@	c #2D384A",
"c@	c #121926",
"d@	c #141923",
"e@	c #1E222D",
"f@	c #727E91",
"g@	c #47556D",
"h@	c #536179",
"i@	c #9BA4B4",
"j@	c #B5BCC6",
"k@	c #C2C6CD",
"l@	c #C7CBD0",
"m@	c #C8CDD5",
"n@	c #BCC6D2",
"o@	c #919DAF",
"p@	c #4D5868",
"q@	c #262D37",
"r@	c #191D25",
"s@	c #0F131A",
"t@	c #161A21",
"u@	c #101318",
"v@	c #7E899C",
"w@	c #626F86",
"x@	c #5B6980",
"y@	c #959FB0",
"z@	c #B4BCC9",
"A@	c #BDC3CC",
"B@	c #BFC5CF",
"C@	c #B4BDCA",
"D@	c #858FA0",
"E@	c #394151",
"F@	c #21252D",
"G@	c #0F1013",
"H@	c #000000",
"I@	c #838A95",
"J@	c #616E83",
"K@	c #6E798D",
"L@	c #9DA5B2",
"M@	c #AAB1BC",
"N@	c #ADB3BB",
"O@	c #A5A9B2",
"P@	c #5F6874",
"Q@	c #303743",
"R@	c #1A1E24",
"S@	c #0C0D0E",
"T@	c #010101",
"U@	c #4B515D",
"V@	c #404858",
"W@	c #3B4453",
"X@	c #3F4651",
"Y@	c #2D323B",
"Z@	c #21262E",
"`@	c #1C2025",
" #	c #131519",
".#	c #040404",
"+#	c #020202",
"@#	c #030303",
"##	c #181A1D",
"$#	c #202328",
"%#	c #1E2226",
"&#	c #1A1C1F",
"*#	c #121314",
"=#	c #090A0A",
"-#	c #050505",
"                                                                ",
"                                                                ",
"                                                                ",
"              . + @ # $ %                                       ",
"              & * = - ; >                                       ",
"              , ' ) ! ~ {                                       ",
"                ]       ^               / ( _ :                 ",
"              < [       }           | 1 2 3 4 5 6 7             ",
"            8 9 0     a b         c d e f g h i j k l           ",
"    m n o     p q     r s       t u v w x y z A B C D           ",
"    E F G H           I J     K L M N O P Q R S T U V W         ",
"    X Y Z `                  ...+.N v @.M #.$.%.&.*.=.-.        ",
"      ;.>.,.                '.).+.!.~.{.@.].$.^./.(._.:.        ",
"      <.  [.              }.f |.1.~.2.3.4.5.6.7.8.9.0.a.        ",
"  b.c.d.                  e.f.g.v ~.h.i.j.k.l.m.n.o.p.q.        ",
"  r.s.t.u.              v.w.x.y.~.~.z.A.B.C.D.E.F.G.H.I.        ",
"    J.K.                L.M.N.O.P.Q.R.S.T.U.V.W.X.Y.Z.`.        ",
"               +      .+++@+#+$+%+&+*+=+-+;+>+,+'+)+!+~+        ",
"            {+]+^+    /+(+_+:+<+[+}+|+1+2+3+4+5+6+7+8+9+0+      ",
"            a+  b+    c+d+e+f+g+h+i+j+k+l+m+n+o+p+q+r+s+t+      ",
"      u+  v+w+        x+y+z+z+A+B+C+D+E+F+G+H+I+J+K+L+M+N+      ",
"    O+P+Q+R+          S+T+U+V+W+X+Y+Z+`+ @.@+@@@#@$@%@(+&@      ",
"      *@=@-@          ;@>@,@'@)@!@~@{@]@^@/@(@_@:@<@[@}@        ",
"                      |@1@2@3@4@5@6@7@8@9@0@a@b@c@d@e@          ",
"                      f@g@h@i@j@k@l@m@n@o@p@q@r@s@t@u@          ",
"                      v@w@x@y@z@A@B@C@D@E@F@G@H@H@H@H@          ",
"                      I@J@K@L@M@N@O@P@Q@R@S@T@T@T@T@T@T@        ",
"                        U@V@W@X@Y@Z@`@ #.#+#+#@#@#@#@#@#+#      ",
"                          ##$#%#&#*#=#-#.#.#.#.#.#.#@#+#        ",
"                                .#.#@#@#@#@#+#+#T@              ",
"                                                                ",
"                                                                "};
