/* XPM */
static char * file_open_xpm[] = {
"32 32 5 1",
" 	c None",
".	c #000000",
"+	c #9C917B",
"@	c #FFFFF6",
"#	c #FFFFFF",
"                                ",
"                                ",
"                                ",
"                                ",
"                                ",
"                                ",
"                                ",
"                                ",
"                                ",
"                  ..            ",
"               ...++.           ",
"        ..  ...++++@@#...       ",
"       .++..++++@@@@..++.       ",
"       .+++++@@@@@..++++.       ",
"        .++@@@@@..++++++.       ",
"        .++@@@..++++++++.       ",
"         .+@@.++++++++++.       ",
"         .++@.++++++++++.       ",
"          .+@.++++++++++.       ",
"          .++.++++++++..        ",
"           .+.++++++..          ",
"           .+.+++++.            ",
"            ..+++..             ",
"            ..+..               ",
"             ..                 ",
"                                ",
"                                ",
"                                ",
"                                ",
"                                ",
"                                ",
"                                "};
