/* XPM */
static char * file_widget_open_xpm[] = {
"15 17 5 1",
" 	c None",
".	c #949594",
"+	c #000000",
"@	c #FFFFFF",
"#	c #8E8E8E",
"       .       ",
"      .+.      ",
"     .+++.     ",
"    .+++++.    ",
"   .+++++++.   ",
"  .+++++++++.  ",
" .+++++++++++. ",
".+++++++++++++@",
".+############@",
".@@@@@@@@@@@@@@",
"               ",
"..............@",
".++++++++++++#@",
".++++++++++++#@",
".++++++++++++#@",
".+############@",
".@@@@@@@@@@@@@@"};
