/* XPM */
static char * gnome_color_browser_xpm[] = {
"32 32 258 2",
"  	c None",
". 	c #230C12",
"+ 	c #35131C",
"@ 	c #0B120F",
"# 	c #20352D",
"$ 	c #113232",
"% 	c #0B2121",
"& 	c #6A2537",
"* 	c #9F3853",
"= 	c #5FA087",
"- 	c #329596",
"; 	c #216364",
"> 	c #319394",
", 	c #2E8888",
"' 	c #2F8C8D",
") 	c #29797A",
"! 	c #385954",
"~ 	c #1D5051",
"{ 	c #2F8D8D",
"] 	c #4E5346",
"^ 	c #A18C6C",
"/ 	c #253835",
"( 	c #2A7C7D",
"_ 	c #1E2119",
": 	c #988162",
"< 	c #A08360",
"[ 	c #0C1312",
"} 	c #0F2B2B",
"| 	c #854531",
"1 	c #C76849",
"2 	c #3C473D",
"3 	c #B4D6B8",
"4 	c #B3D5B7",
"5 	c #7C8A75",
"6 	c #A28C6D",
"7 	c #B8976F",
"8 	c #5D5441",
"9 	c #61A2A3",
"0 	c #60A2A4",
"a 	c #579395",
"b 	c #72C0C2",
"c 	c #538B8D",
"d 	c #8AA48D",
"e 	c #8B7F65",
"f 	c #C9A982",
"g 	c #856E50",
"h 	c #56746E",
"i 	c #67ADAF",
"j 	c #558E90",
"k 	c #5C9B9D",
"l 	c #76C8CA",
"m 	c #A2C0A5",
"n 	c #7D7F68",
"o 	c #CAAC87",
"p 	c #A48661",
"q 	c #5D6A5E",
"r 	c #6AB1B2",
"s 	c #558F91",
"t 	c #73C2C4",
"u 	c #7CD0D1",
"v 	c #6E7865",
"w 	c #A99272",
"x 	c #C4A47C",
"y 	c #6C573E",
"z 	c #5F9A9A",
"A 	c #64A8AA",
"B 	c #548D8F",
"C 	c #5E9EA0",
"D 	c #7CD0D2",
"E 	c #B2D3B6",
"F 	c #95B198",
"G 	c #839A84",
"H 	c #9A886C",
"I 	c #CFB088",
"J 	c #887153",
"K 	c #27231B",
"L 	c #538C8D",
"M 	c #335556",
"N 	c #406C6D",
"O 	c #60A3A5",
"P 	c #7BD0D2",
"Q 	c #7CD1D3",
"R 	c #3B473D",
"S 	c #819984",
"T 	c #75735A",
"U 	c #74735C",
"V 	c #D3B793",
"W 	c #B5966D",
"X 	c #69624B",
"Y 	c #20241F",
"Z 	c #252A24",
"` 	c #1F1E17",
" .	c #2E4848",
"..	c #548E90",
"+.	c #77C9CB",
"@.	c #582E20",
"#.	c #22241D",
"$.	c #918265",
"%.	c #AD9979",
"&.	c #C6AB87",
"*.	c #C8A67C",
"=.	c #876E4F",
"-.	c #2F2F25",
";.	c #4A4234",
">.	c #595140",
",.	c #554631",
"'.	c #1F2C2A",
").	c #385E5F",
"!.	c #4C8182",
"~.	c #375D5E",
"{.	c #6A5F39",
"].	c #9F8F55",
"^.	c #383026",
"/.	c #B7A389",
"(.	c #BDA88E",
"_.	c #D9BF9F",
":.	c #B4946C",
"<.	c #A08867",
"[.	c #7F6B52",
"}.	c #7E6951",
"|.	c #62503A",
"1.	c #312B21",
"2.	c #1C2726",
"3.	c #4C6764",
"4.	c #6B918D",
"5.	c #739B97",
"6.	c #EED680",
"7.	c #EAD27E",
"8.	c #8A775E",
"9.	c #C2AE95",
"0.	c #DDC19D",
"a.	c #CCB08B",
"b.	c #C2A37B",
"c.	c #D9BB94",
"d.	c #C3A681",
"e.	c #604E37",
"f.	c #3C392E",
"g.	c #534837",
"h.	c #3A4A46",
"i.	c #60827F",
"j.	c #89B9B4",
"k.	c #ACE8E2",
"l.	c #C3AF69",
"m.	c #B09D85",
"n.	c #D5BFA2",
"o.	c #E5CCAF",
"p.	c #D8B993",
"q.	c #D9BB97",
"r.	c #CAAE8C",
"s.	c #C9A77F",
"t.	c #AC906D",
"u.	c #746552",
"v.	c #63543E",
"w.	c #344441",
"x.	c #668A86",
"y.	c #88B8B4",
"z.	c #ECD47F",
"A.	c #AE9860",
"B.	c #BBA487",
"C.	c #E3CDB0",
"D.	c #E7D2B7",
"E.	c #E1C39D",
"F.	c #DEC3A1",
"G.	c #CAAA81",
"H.	c #DCBE99",
"I.	c #C5A47B",
"J.	c #75644B",
"K.	c #232018",
"L.	c #282822",
"M.	c #587571",
"N.	c #8FC2BD",
"O.	c #ABE7E1",
"P.	c #E3CC7A",
"Q.	c #9E8C5B",
"R.	c #D6BB9B",
"S.	c #EBD7BF",
"T.	c #E4CAA9",
"U.	c #E4CAAA",
"V.	c #DCB98E",
"W.	c #E0C29F",
"X.	c #C7AB86",
"Y.	c #BB9E7B",
"Z.	c #A48C6B",
"`.	c #6A573F",
" +	c #4A4536",
".+	c #587470",
"++	c #81AFAA",
"@+	c #A6E1DB",
"#+	c #B8A563",
"$+	c #AE9771",
"%+	c #E8D1B4",
"&+	c #E7D1B4",
"*+	c #E2C6A1",
"=+	c #DEBD93",
"-+	c #E1C6A3",
";+	c #DCBA8F",
">+	c #C7A479",
",+	c #C1A077",
"'+	c #8A7355",
")+	c #766146",
"!+	c #485852",
"~+	c #678B87",
"{+	c #88B8B3",
"]+	c #AAE5DF",
"^+	c #AE9B5F",
"/+	c #C3A477",
"(+	c #E8D2B5",
"_+	c #E1C49F",
":+	c #DDBD93",
"<+	c #DEC29F",
"[+	c #D6B68D",
"}+	c #CEAB7F",
"|+	c #A88A65",
"1+	c #9E825F",
"2+	c #6A573E",
"3+	c #505246",
"4+	c #54726F",
"5+	c #749D99",
"6+	c #A1DAD4",
"7+	c #000000",
"8+	c #433829",
"9+	c #D6B995",
"0+	c #E3C7A3",
"a+	c #DAB78B",
"b+	c #CEAC83",
"c+	c #C3A177",
"d+	c #AB8C65",
"e+	c #8E7353",
"f+	c #7D6648",
"g+	c #55432F",
"h+	c #17120B",
"i+	c #010000",
"j+	c #71604B",
"k+	c #E2C5A1",
"l+	c #DDB98E",
"m+	c #DBB688",
"n+	c #D0AC7F",
"o+	c #A3845F",
"p+	c #846A4B",
"q+	c #776045",
"r+	c #423424",
"s+	c #1D170E",
"t+	c #B39978",
"u+	c #DFBE96",
"v+	c #CFAC7F",
"w+	c #A48560",
"x+	c #83694B",
"y+	c #34291D",
"z+	c #382C1F",
"A+	c #C4A47D",
"B+	c #DEBC92",
"C+	c #C4A176",
"D+	c #937654",
"E+	c #6A543B",
"F+	c #DEBC91",
"G+	c #D4AF82",
"H+	c #BB996F",
"I+	c #6C563B",
"                                                                ",
"                                                                ",
"                                                                ",
"                                                                ",
"          . + + + + + + @ # # # # # # @ $ $ $ $ $ $ %           ",
"          & * * * * * * # = = = = = = # - - - - - - ;           ",
"          & * * * * * * # = = = = = = # - - - - - - ;           ",
"          & * * * * * * # = = = = = = # - - - - - - ;           ",
"          & * * * * * * # = = = = = = # > , ' - - - ;           ",
"          & * * * * * * # = = = = = = # ) ! ~ { - - ;           ",
"          & * * * * * * # = = = = = = # ] ^ / ( - - ;           ",
"          . + + + + + + @ # # # # # # _ : < [ } $ $ %           ",
"          | 1 1 1 1 1 1 2 3 3 3 3 4 5 6 7 8 9 0 a b c           ",
"          | 1 1 1 1 1 1 2 3 3 3 3 d e f g h i j k l c           ",
"          | 1 1 1 1 1 1 2 3 3 3 m n o p q r s j t u c           ",
"          | 1 1 1 1 1 1 2 3 3 3 v w x y z A B C D D c           ",
"          | 1 1 1 1 1 1 2 E F G H I J K L M N O P Q c           ",
"          | 1 1 1 1 1 1 R S T U V W X Y Z `  ...+.Q c           ",
"          @.| | | | | | #.$.%.&.*.=.-.;.>.,.'.).!.c ~.          ",
"          {.].].].].].].^./.(._.:.<.[.}.|.1.2.3.4.5.3.          ",
"          ].6.6.6.6.6.7.8.9.0.a.b.c.d.e.f.g.h.i.j.k.5.          ",
"          ].6.6.6.6.6.l.m.n.o.p.q.r.s.t.u.v.w.x.y.k.5.          ",
"          ].6.6.6.6.z.A.B.C.D.E.F.G.H.I.J.K.L.M.N.O.5.          ",
"          ].6.6.6.6.P.Q.R.S.T.U.V.W.X.Y.Z.`. +.+++@+5.          ",
"          ].6.6.6.6.#+$+%+&+*+=+-+;+>+,+'+)+!+~+{+]+5.          ",
"          ].6.6.6.6.^+/+(+_+:+<+[+}+|+1+2+3+4+5+6+k.5.          ",
"          7+7+7+7+7+8+9+0+a+b+c+d+e+f+g+h+i+7+7+7+7+7+          ",
"                    j+k+l+m+n+o+p+q+r+s+                        ",
"                    t+u+m+v+w+x+y+z+                            ",
"                    A+B+m+C+D+E+                                ",
"                      F+G+H+I+                                  ",
"                                                                "};
