/* XPM */
static char * gnome_fontsel_xpm[] = {
"32 32 169 2",
"  	c None",
". 	c #000000",
"+ 	c #171717",
"@ 	c #080808",
"# 	c #1D3333",
"$ 	c #414843",
"% 	c #2C3031",
"& 	c #6E6C5B",
"* 	c #806F55",
"= 	c #303230",
"- 	c #544533",
"; 	c #A68C6C",
"> 	c #66543C",
", 	c #171818",
"' 	c #696654",
") 	c #C1A27B",
"! 	c #A58761",
"~ 	c #3B3831",
"{ 	c #646259",
"] 	c #AA977A",
"^ 	c #B89770",
"/ 	c #6E5E46",
"( 	c #0F1212",
"_ 	c #878986",
": 	c #918370",
"< 	c #CAAB84",
"[ 	c #856B4B",
"} 	c #2A2922",
"| 	c #645C4B",
"1 	c #CCAE88",
"2 	c #B59770",
"3 	c #4B3B29",
"4 	c #7F7D76",
"5 	c #B39D81",
"6 	c #BD9E76",
"7 	c #74654C",
"8 	c #32302F",
"9 	c #5F5F5F",
"0 	c #626454",
"a 	c #67635B",
"b 	c #9D9176",
"c 	c #D1B38C",
"d 	c #957B58",
"e 	c #686357",
"f 	c #0E0D0C",
"g 	c #28241D",
"h 	c #1F1D18",
"i 	c #666057",
"j 	c #AB9574",
"k 	c #A48F71",
"l 	c #D7B890",
"m 	c #C3A177",
"n 	c #514330",
"o 	c #444038",
"p 	c #4C4033",
"q 	c #5C4E3D",
"r 	c #443928",
"s 	c #937F67",
"t 	c #BFAB91",
"u 	c #C9B295",
"v 	c #CDB08E",
"w 	c #B9976F",
"x 	c #8C785D",
"y 	c #7D6A52",
"z 	c #7C664C",
"A 	c #50422F",
"B 	c #2A271F",
"C 	c #373028",
"D 	c #AA977D",
"E 	c #C7B092",
"F 	c #E1C8A7",
"G 	c #BD9D75",
"H 	c #CDB088",
"I 	c #DABB94",
"J 	c #AC906E",
"K 	c #413626",
"L 	c #423E32",
"M 	c #4F493B",
"N 	c #7D756C",
"O 	c #C3B39D",
"P 	c #DABF9F",
"Q 	c #E6CFB4",
"R 	c #D1AE83",
"S 	c #DFC7A9",
"T 	c #C0A078",
"U 	c #C9A880",
"V 	c #907A5F",
"W 	c #74634D",
"X 	c #4B4436",
"Y 	c #4C4E4E",
"Z 	c #8B8070",
"` 	c #C7AD8D",
" .	c #EAD7BE",
"..	c #E6CEB0",
"+.	c #E1C29D",
"@.	c #D9BC99",
"#.	c #CEAF87",
"$.	c #D7B78F",
"%.	c #B1936E",
"&.	c #534937",
"*.	c #221E17",
"=.	c #242722",
"-.	c #9F8B68",
";.	c #DCC2A1",
">.	c #E6CDAE",
",.	c #E0C29D",
"'.	c #DDBA90",
").	c #DBC09E",
"!.	c #BDA07B",
"~.	c #BDA17D",
"{.	c #8E7A5D",
"].	c #62513B",
"^.	c #34342A",
"/.	c #564D2E",
"(.	c #DEC29B",
"_.	c #E9D4B9",
":.	c #E4CBAA",
"<.	c #E1C5A1",
"[.	c #DEBD94",
"}.	c #E1C5A2",
"|.	c #D5B083",
"1.	c #C2A076",
"2.	c #B2946E",
"3.	c #866E50",
"4.	c #665A44",
"5.	c #998656",
"6.	c #DFBF97",
"7.	c #E8D1B4",
"8.	c #DDBC92",
"9.	c #DEC19A",
"0.	c #DDC09B",
"a.	c #CFAD83",
"b.	c #C4A379",
"c.	c #A78964",
"d.	c #8B7151",
"e.	c #685840",
"f.	c #444F48",
"g.	c #A98C68",
"h.	c #E4C9A7",
"i.	c #E1C29C",
"j.	c #D3B084",
"k.	c #D3B186",
"l.	c #9E7F5B",
"m.	c #887050",
"n.	c #7A6446",
"o.	c #382B1D",
"p.	c #B19776",
"q.	c #E2C49F",
"r.	c #DCB88B",
"s.	c #DAB587",
"t.	c #C8A579",
"u.	c #907452",
"v.	c #806849",
"w.	c #66523B",
"x.	c #392D1F",
"y.	c #0A0804",
"z.	c #CFB28E",
"A.	c #DDBA8F",
"B.	c #DBB688",
"C.	c #C09E74",
"D.	c #9C7E5B",
"E.	c #645038",
"F.	c #34291D",
"G.	c #D3B288",
"H.	c #AF8E67",
"I.	c #8C704F",
"J.	c #DEBB91",
"K.	c #CDAA7D",
"L.	c #A68661",
"                                                                ",
"                                                                ",
"                                                                ",
"                                                                ",
"          . . . . . .                 . . . . . . .             ",
"            . .     .                   . .       .             ",
"            .                           + @                     ",
"          . .     .                   # $ %     .               ",
"          . . . . .                   & * = . . .               ",
"          . .     .                 - ; > ,   .                 ",
"          . .                     ' ) ! ~                       ",
"          .                     { ] ^ / (                       ",
"        . . .                 _ : < [ } . .                     ",
"                              | 1 2 3                           ",
"                            4 5 6 7 8 9                         ",
"                        0 a b c d e f g h                       ",
"                      i j k l m n o p q r                       ",
"        . . . . . . . s t u v w x y z A B                       ",
"          .       . C D E F G H I J K L M                       ",
"          .   . .   N O P Q R S T U V W X Y                     ",
"          . . .     Z `  ...+.@.#.$.%.&.*.=.                    ",
"        . .   .     -.;. .>.,.'.).!.~.{.].^.                    ",
"        .         /.(._.:.<.[.}.|.1.2.3.4.                      ",
"      . . .       5.6.7.8.9.0.a.b.c.d.e.f.                      ",
"                  g.h.i.j.k.w l.m.n.o.                          ",
"                  p.q.r.s.t.u.v.w.x.y.                          ",
"                  z.A.B.C.D.E.F.x.                              ",
"                  G.A.B.H.I.                                    ",
"                    J.K.L.                                      ",
"                                                                ",
"                                                                ",
"                                                                "};
