/* XPM */
static char * tmp_xpm[] = {
"48 48 727 2",
"  	c None",
". 	c #000002",
"+ 	c #000000",
"@ 	c #010102",
"# 	c #010103",
"$ 	c #000001",
"% 	c #131313",
"& 	c #252525",
"* 	c #030305",
"= 	c #5E5E5D",
"- 	c #1B1A1A",
"; 	c #171616",
"> 	c #1A1A1A",
", 	c #070708",
"' 	c #030304",
") 	c #0E0D0E",
"! 	c #060607",
"~ 	c #020204",
"{ 	c #0A090A",
"] 	c #181819",
"^ 	c #3E3E3F",
"/ 	c #636263",
"( 	c #141414",
"_ 	c #0B0B0D",
": 	c #696969",
"< 	c #9F9E9E",
"[ 	c #474747",
"} 	c #080809",
"| 	c #08080A",
"1 	c #AFAFAF",
"2 	c #D0D0CF",
"3 	c #585858",
"4 	c #5B5B5C",
"5 	c #DCDCDA",
"6 	c #AFAFAE",
"7 	c #BEBEBD",
"8 	c #09080A",
"9 	c #1B1B1E",
"0 	c #6F6F6F",
"a 	c #515151",
"b 	c #969695",
"c 	c #151515",
"d 	c #878686",
"e 	c #69696A",
"f 	c #303031",
"g 	c #B9B9B8",
"h 	c #2F2F30",
"i 	c #1A1A1B",
"j 	c #656565",
"k 	c #121111",
"l 	c #907F4E",
"m 	c #6E5606",
"n 	c #867742",
"o 	c #4C4B49",
"p 	c #9E9E9D",
"q 	c #38383A",
"r 	c #050507",
"s 	c #A7A6A2",
"t 	c #835F0B",
"u 	c #DEA909",
"v 	c #E3B90A",
"w 	c #D7B214",
"x 	c #C3A113",
"y 	c #6C591E",
"z 	c #CFCCC2",
"A 	c #0F0F11",
"B 	c #030204",
"C 	c #886419",
"D 	c #D79F07",
"E 	c #EAB80A",
"F 	c #EBC80F",
"G 	c #F3D637",
"H 	c #F5D61A",
"I 	c #F2CF0E",
"J 	c #DAB216",
"K 	c #251C04",
"L 	c #211704",
"M 	c #BB8206",
"N 	c #E5AD08",
"O 	c #EABD0A",
"P 	c #EFCF1F",
"Q 	c #F5D622",
"R 	c #F2D30E",
"S 	c #D4AB09",
"T 	c #CF9A08",
"U 	c #302304",
"V 	c #050303",
"W 	c #74530A",
"X 	c #DCA809",
"Y 	c #EBC613",
"Z 	c #ECCD14",
"` 	c #D6B30B",
" .	c #C09008",
"..	c #D19607",
"+.	c #C29123",
"@.	c #14110A",
"#.	c #262627",
"$.	c #272728",
"%.	c #7A756D",
"&.	c #9A721E",
"*.	c #BE9407",
"=.	c #C08C07",
"-.	c #C38706",
";.	c #C48B0E",
">.	c #BDA46D",
",.	c #C3C1BE",
"'.	c #424142",
").	c #0D0D0F",
"!.	c #0F0E10",
"~.	c #8A8A89",
"{.	c #B6AD9D",
"].	c #A67D2E",
"^.	c #AB760F",
"/.	c #AC7F2B",
"(.	c #BAAB8D",
"_.	c #CCCBCA",
":.	c #F1F1EF",
"<.	c #A09F9F",
"[.	c #020103",
"}.	c #101011",
"|.	c #020203",
"1.	c #080707",
"2.	c #161617",
"3.	c #DFDFDE",
"4.	c #C6C6C5",
"5.	c #BCBBB9",
"6.	c #BAB7B0",
"7.	c #BEBCBA",
"8.	c #D1D1D0",
"9.	c #F4F4F3",
"0.	c #FDFDFB",
"a.	c #F7F7F5",
"b.	c #2B2A2C",
"c.	c #060507",
"d.	c #878787",
"e.	c #E6E6E5",
"f.	c #C1C1C0",
"g.	c #C3C2C1",
"h.	c #E0E0E0",
"i.	c #F9F9F8",
"j.	c #949493",
"k.	c #18181A",
"l.	c #EDEDEC",
"m.	c #F2F2F1",
"n.	c #F7F7F6",
"o.	c #5D6161",
"p.	c #2D3030",
"q.	c #303333",
"r.	c #3E4343",
"s.	c #2B2E2E",
"t.	c #2B2D2D",
"u.	c #343737",
"v.	c #4F5252",
"w.	c #626667",
"x.	c #777A79",
"y.	c #121214",
"z.	c #FBFBF9",
"A.	c #FCFCFA",
"B.	c #F1F1F0",
"C.	c #222223",
"D.	c #3F3F40",
"E.	c #525253",
"F.	c #4C4C4D",
"G.	c #7A7A7A",
"H.	c #888888",
"I.	c #808080",
"J.	c #767676",
"K.	c #7B7B7B",
"L.	c #757575",
"M.	c #4F4949",
"N.	c #272324",
"O.	c #2A2C2D",
"P.	c #323636",
"Q.	c #272A2B",
"R.	c #2A2B2B",
"S.	c #575757",
"T.	c #535353",
"U.	c #313232",
"V.	c #2E2F2F",
"W.	c #494C4D",
"X.	c #505355",
"Y.	c #E1E0E0",
"Z.	c #F7F7F7",
"`.	c #E7E7E7",
" +	c #EEEEEE",
".+	c #FAFAF9",
"++	c #FAFAF8",
"@+	c #EBEBEB",
"#+	c #DDDDDC",
"$+	c #D4D4D3",
"%+	c #D0CFCF",
"&+	c #5A595A",
"*+	c #666667",
"=+	c #747474",
"-+	c #5B5B5B",
";+	c #4E4E4E",
">+	c #555555",
",+	c #525454",
"'+	c #242627",
")+	c #2C3030",
"!+	c #333838",
"~+	c #353B3B",
"{+	c #3C3F40",
"]+	c #525656",
"^+	c #6F7071",
"/+	c #1E1E20",
"(+	c #404445",
"_+	c #474B4D",
":+	c #7B7E7E",
"<+	c #737675",
"[+	c #9A9C9C",
"}+	c #D0D2D1",
"|+	c #F9FAF8",
"1+	c #FCFCFB",
"2+	c #F8F8F6",
"3+	c #EBEBEA",
"4+	c #D9D9D9",
"5+	c #C8C8C7",
"6+	c #1C1C1E",
"7+	c #646464",
"8+	c #464038",
"9+	c #625B4B",
"0+	c #665C55",
"a+	c #555545",
"b+	c #484843",
"c+	c #3A3A3A",
"d+	c #505050",
"e+	c #3C3C3C",
"f+	c #BABABA",
"g+	c #545656",
"h+	c #353939",
"i+	c #2F3535",
"j+	c #2B2E2F",
"k+	c #2D3131",
"l+	c #434A4D",
"m+	c #3F4547",
"n+	c #343B3B",
"o+	c #3E4546",
"p+	c #575B5B",
"q+	c #333636",
"r+	c #313434",
"s+	c #2D3031",
"t+	c #2B2D2E",
"u+	c #2E3232",
"v+	c #555F61",
"w+	c #5A6467",
"x+	c #687172",
"y+	c #E9E9E8",
"z+	c #F3F3F2",
"A+	c #D2D2D2",
"B+	c #5D5D5F",
"C+	c #71604C",
"D+	c #D3AF76",
"E+	c #F3DD9C",
"F+	c #E1CF88",
"G+	c #CBAD6D",
"H+	c #9D835B",
"I+	c #645E52",
"J+	c #333333",
"K+	c #B1B1B1",
"L+	c #4C5151",
"M+	c #373F3F",
"N+	c #374040",
"O+	c #383E3E",
"P+	c #505559",
"Q+	c #3F4648",
"R+	c #535B5E",
"S+	c #3C4242",
"T+	c #3A3F40",
"U+	c #464D4F",
"V+	c #545E62",
"W+	c #343636",
"X+	c #42433F",
"Y+	c #4C5250",
"Z+	c #515859",
"`+	c #6A7378",
" @	c #677179",
".@	c #606A72",
"+@	c #E7E8E6",
"@@	c #F5F5F4",
"#@	c #D9D8D8",
"$@	c #595959",
"%@	c #5D5344",
"&@	c #9D793B",
"*@	c #D0AA53",
"=@	c #D7AF59",
"-@	c #C89053",
";@	c #AB7F4B",
">@	c #6F6352",
",@	c #4C4C4C",
"'@	c #313131",
")@	c #B7B7B7",
"!@	c #6C706F",
"~@	c #6E7271",
"{@	c #4B4849",
"]@	c #404648",
"^@	c #454B4E",
"/@	c #3B4143",
"(@	c #4E5558",
"_@	c #525A5D",
":@	c #5D6363",
"<@	c #3F4545",
"[@	c #262929",
"}@	c #272424",
"|@	c #322D2D",
"1@	c #393633",
"2@	c #43433E",
"3@	c #565957",
"4@	c #525757",
"5@	c #43494B",
"6@	c #EBECEA",
"7@	c #4A4949",
"8@	c #3E3430",
"9@	c #735B33",
"0@	c #8A6633",
"a@	c #6B5633",
"b@	c #564834",
"c@	c #514C49",
"d@	c #4D4D4D",
"e@	c #C2C2C2",
"f@	c #4C5050",
"g@	c #464949",
"h@	c #65504F",
"i@	c #404547",
"j@	c #414949",
"k@	c #363C3C",
"l@	c #3C4343",
"m@	c #4E5555",
"n@	c #3C403F",
"o@	c #161717",
"p@	c #121212",
"q@	c #1F1C1C",
"r@	c #2D2828",
"s@	c #312B2A",
"t@	c #353231",
"u@	c #4D4E48",
"v@	c #A1A2A0",
"w@	c #8F8F8F",
"x@	c #4F4F4F",
"y@	c #2D2A28",
"z@	c #3E312E",
"A@	c #2F2C2C",
"B@	c #272727",
"C@	c #444444",
"D@	c #494949",
"E@	c #3B3B3B",
"F@	c #5F6463",
"G@	c #3F4647",
"H@	c #383E3F",
"I@	c #383F3F",
"J@	c #303434",
"K@	c #1F2222",
"L@	c #282C2D",
"M@	c #343A3A",
"N@	c #141415",
"O@	c #101111",
"P@	c #171818",
"Q@	c #636464",
"R@	c #DBDAD9",
"S@	c #959392",
"T@	c #8D8C89",
"U@	c #EBEBE9",
"V@	c #A6A6A5",
"W@	c #8A8C8A",
"X@	c #5D5D5D",
"Y@	c #454545",
"Z@	c #2F2F2F",
"`@	c #262424",
" #	c #999999",
".#	c #676868",
"+#	c #2E3333",
"@#	c #303535",
"##	c #323535",
"$#	c #040404",
"%#	c #0F0F0F",
"&#	c #161818",
"*#	c #1F2223",
"=#	c #09090A",
"-#	c #1F201F",
";#	c #5A5959",
">#	c #838281",
",#	c #D7D7D5",
"'#	c #F6F6F4",
")#	c #FBFBFA",
"!#	c #A9A9A8",
"~#	c #323233",
"{#	c #565656",
"]#	c #5F5F5F",
"^#	c #565454",
"/#	c #4D3838",
"(#	c #232222",
"_#	c #242424",
":#	c #B4B4B4",
"<#	c #3B3D3C",
"[#	c #212322",
"}#	c #1D1E1E",
"|#	c #080808",
"1#	c #3E3E3E",
"2#	c #626261",
"3#	c #111212",
"4#	c #252727",
"5#	c #2F3232",
"6#	c #313334",
"7#	c #373837",
"8#	c #202120",
"9#	c #36393A",
"0#	c #5B6562",
"a#	c #696E6D",
"b#	c #707371",
"c#	c #626666",
"d#	c #585C5C",
"e#	c #8D8E8D",
"f#	c #C1C1C1",
"g#	c #63635E",
"h#	c #070706",
"i#	c #2B2B2A",
"j#	c #939393",
"k#	c #A6A6A6",
"l#	c #020202",
"m#	c #161615",
"n#	c #6B6B6A",
"o#	c #313738",
"p#	c #424A4C",
"q#	c #373A3A",
"r#	c #131414",
"s#	c #292D2E",
"t#	c #3A4240",
"u#	c #464644",
"v#	c #2B1B1B",
"w#	c #140E0F",
"x#	c #060606",
"y#	c #1C1D1D",
"z#	c #D5D5D4",
"A#	c #84786D",
"B#	c #7E7060",
"C#	c #877473",
"D#	c #686868",
"E#	c #363634",
"F#	c #5D5D5C",
"G#	c #A8A8A8",
"H#	c #2E2E2E",
"I#	c #0D0D0B",
"J#	c #1A1917",
"K#	c #3E4143",
"L#	c #373B3E",
"M#	c #313637",
"N#	c #363A3B",
"O#	c #212222",
"P#	c #0A0A0A",
"Q#	c #131515",
"R#	c #392E2E",
"S#	c #1D0D0D",
"T#	c #120E0F",
"U#	c #AEAEAD",
"V#	c #818181",
"W#	c #83736D",
"X#	c #7C665F",
"Y#	c #887370",
"Z#	c #6A6A6A",
"`#	c #0C0A06",
" $	c #525251",
".$	c #2D2C28",
"+$	c #020100",
"@$	c #181816",
"#$	c #363838",
"$$	c #313333",
"%$	c #1D1F1F",
"&$	c #1D1D1D",
"*$	c #727272",
"=$	c #2B2C2C",
"-$	c #2C2829",
";$	c #160D0D",
">$	c #171719",
",$	c #08090C",
"'$	c #515252",
")$	c #FBF9F3",
"!$	c #E7DCBC",
"~$	c #676766",
"{$	c #3A3A39",
"]$	c #41393B",
"^$	c #554A47",
"/$	c #897D6D",
"($	c #6B6B6B",
"_$	c #070602",
":$	c #B9B2A4",
"<$	c #735407",
"[$	c #3F3003",
"}$	c #433403",
"|$	c #826B25",
"1$	c #E2E2E1",
"2$	c #A1A3A3",
"3$	c #3F3F3F",
"4$	c #1E1E1E",
"5$	c #1F2020",
"6$	c #C2C2C1",
"7$	c #626362",
"8$	c #232526",
"9$	c #222527",
"0$	c #151616",
"a$	c #90908F",
"b$	c #F0DDAD",
"c$	c #7E713C",
"d$	c #535350",
"e$	c #525252",
"f$	c #3F3D3E",
"g$	c #404040",
"h$	c #645831",
"i$	c #655B23",
"j$	c #010101",
"k$	c #0B0B0A",
"l$	c #8D8D8D",
"m$	c #C68D08",
"n$	c #C38A0B",
"o$	c #C88E0A",
"p$	c #E5AB0A",
"q$	c #F1BA0B",
"r$	c #F0B90B",
"s$	c #EFBA0B",
"t$	c #DFD2A6",
"u$	c #C5C5C4",
"v$	c #AAABAA",
"w$	c #CDCDCC",
"x$	c #4F5050",
"y$	c #636463",
"z$	c #969796",
"A$	c #D2D2D1",
"B$	c #ABA8A1",
"C$	c #50504E",
"D$	c #545454",
"E$	c #4D4B4A",
"F$	c #514D46",
"G$	c #2A2727",
"H$	c #3D3D3D",
"I$	c #BEBEBE",
"J$	c #C68D0A",
"K$	c #E5AC0A",
"L$	c #E7AE0A",
"M$	c #ECB20B",
"N$	c #F3BB0B",
"O$	c #F4BC0B",
"P$	c #E0BB2E",
"Q$	c #F7F7F4",
"R$	c #BBAD8C",
"S$	c #AE8E33",
"T$	c #7E6F49",
"U$	c #5F5D59",
"V$	c #4D4D49",
"W$	c #464646",
"X$	c #262626",
"Y$	c #ADADAD",
"Z$	c #CB920A",
"`$	c #EFB50B",
" %	c #F4BB0B",
".%	c #EFBE0B",
"+%	c #E1D098",
"@%	c #E1E1E0",
"#%	c #C5B287",
"$%	c #E2A909",
"%%	c #DBA20A",
"&%	c #BB8919",
"*%	c #987B39",
"=%	c #756A4F",
"-%	c #464340",
";%	c #403D3D",
">%	c #3F3823",
",%	c #848484",
"'%	c #C9900A",
")%	c #EBB20B",
"!%	c #F3BC0B",
"~%	c #DEB825",
"{%	c #F1EFE9",
"]%	c #E8E8E7",
"^%	c #B9A77F",
"/%	c #DBA007",
"(%	c #EAB009",
"_%	c #E0A508",
":%	c #DCA208",
"<%	c #E3AA0A",
"[%	c #D5AA25",
"}%	c #A08A42",
"|%	c #837444",
"1%	c #D5A310",
"2%	c #A9A18A",
"3%	c #C88C0A",
"4%	c #E9AF0B",
"5%	c #F0BF0B",
"6%	c #DCC67C",
"7%	c #DBDBD8",
"8%	c #6C5628",
"9%	c #DAA007",
"0%	c #F1B70A",
"a%	c #F1B80A",
"b%	c #EFB60A",
"c%	c #F4BC0D",
"d%	c #E6B318",
"e%	c #D2BD81",
"f%	c #C88C08",
"g%	c #E8AE0A",
"h%	c #F2BB0B",
"i%	c #E0B713",
"j%	c #E8DFCA",
"k%	c #E0E0DF",
"l%	c #333334",
"m%	c #523805",
"n%	c #DBA207",
"o%	c #F2B90B",
"p%	c #D4A314",
"q%	c #9A9A9A",
"r%	c #C68A06",
"s%	c #ECB20A",
"t%	c #EBBB0A",
"u%	c #BF9B35",
"v%	c #F3F2F0",
"w%	c #B7B7B6",
"x%	c #5C3E04",
"y%	c #F3BA0B",
"z%	c #E7AC0C",
"A%	c #73540A",
"B%	c #D19507",
"C%	c #F0B70B",
"D%	c #EDB50A",
"E%	c #C38F07",
"F%	c #635641",
"G%	c #B5B5B4",
"H%	c #E5E5E4",
"I%	c #A5A5A4",
"J%	c #040406",
"K%	c #674505",
"L%	c #DAA108",
"M%	c #CA9309",
"N%	c #59400A",
"O%	c #302F2E",
"P%	c #A9A9A9",
"Q%	c #C78C06",
"R%	c #DEA308",
"S%	c #E6AC0A",
"T%	c #EBB10B",
"U%	c #EFB60B",
"V%	c #EDB40A",
"W%	c #C58C06",
"X%	c #4D3203",
"Y%	c #060608",
"Z%	c #070709",
"`%	c #030303",
" &	c #784F04",
".&	c #D59B07",
"+&	c #E8AE0B",
"@&	c #D69C09",
"#&	c #725007",
"$&	c #26221A",
"%&	c #636363",
"&&	c #B2B2B2",
"*&	c #AA905E",
"=&	c #896215",
"-&	c #AB7506",
";&	c #BF8406",
">&	c #D29808",
",&	c #DFA509",
"'&	c #F1B80B",
")&	c #F1B70B",
"!&	c #DFA408",
"~&	c #A97205",
"{&	c #533503",
"]&	c #040303",
"^&	c #6D4604",
"/&	c #C38806",
"(&	c #DCA109",
"_&	c #B77E06",
":&	c #3A2908",
"<&	c #9F9F9F",
"[&	c #A5A5A5",
"}&	c #817F7A",
"|&	c #6C5B3F",
"1&	c #6E4F18",
"2&	c #825607",
"3&	c #9D6905",
"4&	c #C78D07",
"5&	c #CC9107",
"6&	c #AF7705",
"7&	c #7E4F03",
"8&	c #2E1E03",
"9&	c #1E1E1F",
"0&	c #2D2D2D",
"a&	c #363636",
"b&	c #323234",
"c&	c #232324",
"d&	c #5A3B08",
"e&	c #A66F05",
"f&	c #C68B07",
"g&	c #CF9507",
"h&	c #C38906",
"i&	c #9B6905",
"j&	c #271D0A",
"k&	c #BDBDBD",
"l&	c #898988",
"m&	c #655E52",
"n&	c #644A1F",
"o&	c #784D04",
"p&	c #805103",
"q&	c #714703",
"r&	c #432B05",
"s&	c #171614",
"t&	c #B3B3B3",
"u&	c #C0C0C0",
"v&	c #C7C7C7",
"w&	c #B9B9B9",
"x&	c #847862",
"y&	c #724A05",
"z&	c #966204",
"A&	c #9A6504",
"B&	c #7D5205",
"C&	c #241A08",
"D&	c #5A5A5A",
"E&	c #C3C3C3",
"F&	c #B6B6B6",
"G&	c #85837F",
"H&	c #534937",
"I&	c #30281A",
"J&	c #2C2B2A",
"K&	c #908B83",
"L&	c #4B3F29",
"M&	c #342915",
"N&	c #262320",
"O&	c #616161",
"P&	c #ABABAB",
"Q&	c #B8B8B8",
"R&	c #B0B0B0",
"                                            . . .                                               ",
"                                        + @ # # # . $                                           ",
"                                      $ # # # # # % & *                                         ",
"                                      # # # # # # & = - #                                       ",
"                                    . # # # # # # ; > , #                                       ",
"                                    # # # # # # # # # # # #                                     ",
"                                    # ' ) ! # # ~ { ] ~ # #                                     ",
"                                    # ^ / ( # _ : < [ } # #                                     ",
"                                    | 1 2 3 # 4 5 6 7 8 # #                                     ",
"                                    9 0 a b c d e f g h # #                                     ",
"                                    i j k l m n o ~ p q # #                                     ",
"                                    r s t u v w x y z A # #                                     ",
"                                    B C D E F G H I J K # #                                     ",
"                                    L M N O P Q R S T U # # .                                   ",
"                                    V W X Y Z `  ...+.@.#.$.#                                   ",
"                                    # %.&.*.=.-.;.>.,.'.).0 !.                                  ",
"                                    # ~.{.].^./.(._.:.<.[.}.~ |.                                ",
"                                  1.2.3.4.5.6.7.8.9.0.a.b.# # #                                 ",
"                                  c.d.0.e.f.g.h.i.0.0.0.j.# # # #                               ",
"                                # k.l.0.0.m.n.0.0.0.0.0.3.! # # # .                             ",
"          o.p.q.r.s.t.u.v.w.x.y.# / i.0.0.z.A.0.0.0.0.z.B.C.# D.E.F.G.H.I.J.K.L.                ",
"          M.N.O.P.Q.R.S.T.U.V.W.X.L.Y.n.Z.`. +.+++@+#+$+%+&+# *+=+L.j -+T.;+>+a G.              ",
"          ,+'+)+!+~+r.{+]+^+/+A (+_+:+<+[+}+|+1+1+2+3+4+4.5+6+7+8+9+0+a+b+c+[ d+e+f+            ",
"          g+h+i+j+k+l+m+n+o+p+q+r+s+t+u+v+w+x+y+A.A.A.A.z+A+d.B+C+D+E+F+G+H+I+;+J+K+            ",
"          L+M+N+O+P+Q+R+S+T+U+V+W+X+Y+Z+`+ @.@+@A.A.A.A.A.@@#@$@%@&@*@=@-@;@>@,@'@)@            ",
"          !@~@{@]@^@/@(@_@:@<@[@}@|@1@2@3@4@5@6@A.A.A.A.A.A.A.L.7@8@9@0@a@b@c@d@J+e@            ",
"          f@g@h@i@j@k@l@U+m@n@o@p@q@r@s@t@u@v@A.A.A.A.A.A.A.A.w@x@& y@z@A@B@C@D@E@              ",
"          F@G@m+H@I@J@K@L@m+M@N@O@P@Q@R@S@T@U@A.A.A.A.A.A.A.A.V@W@K.X@Y@Z@`@[ ,@a  #            ",
"          .#+#@#P.##$#+ %#&#*#=#p@-#Z@;#>#,#'#)#)#)#A.A.A.A.A.!#~#{#]#-+^#/#(#%#_#'@:#          ",
"            <#[#}#|#+ + 1#2#3#4#h+5#6#7#8#9#0#a#b#c#d#e#z.A.A.f#0 g#= 3 a % + h#J.i#j#          ",
"            k#a B@l#+ + m#n#8#s+o#p#5#q#r#s#t#u#v#w#x#y#.+A.A.z#w@A#B#C#D#l#+ + ;+E#F#          ",
"                G#H#+ + l#I#J#K#L#M#N#O#P#Q#s.R#S#T#! U.A.A.A.U#V#W#X#Y#Z#l#+ + |#`# $          ",
"                    .$+ + +$@$#$$$r+%$&$d.*$=$-$;$>$,$'$A.)$!$~${$]$^$/$($c + + + _$j           ",
"                    :$<$[$}$|$1$2$3$4$5$6$z.7$8$9$o@0$a$A.b$c$d$e$e$f$g$h$i$j$+ + k$l$          ",
"                m$n$o$p$q$r$s$t$.+B.u$v$9.)#w$x$y$z$A$z.)#B$C$e$D$a ;+,@E$F$G$j$$#H$I$          ",
"              J$K$L$M$N$O$O$N$P$Q$.+.+A.A.A.A.A.A.A.A.A.y+R$S$T$U$T.d@d@V$W$E@X$x@Y$            ",
"              Z$`$ %O$O$O$O$O$.%+%)#i..+A.A.A.A.A.A.A.A.@%#%$%%%&%*%=%o -%;%>%,%                ",
"              '%)%O$O$O$O$O$O$!%~%{%)#.+A.A.A.A.A.A.A.A.]%^%/%(%_%:%<%[%}%|%1%2%                ",
"              3%4%O$O$O$O$O$O$ %5%6%)#)#A.A.A.A.A.A.A.A.7%8%9%0%a%b%a% %O$c%N$d%e%              ",
"              f%g%N$O$O$O$O$O$O$h%i%j%)#A.A.A.A.A.A.A.k%l%m%n%o%O$O$O$O$O$O$O$N$p%q%            ",
"              r%s% %O$O$O$O$O$O$ %t%u%v%A.A.A.A.A.z.w%C.# x%:%y%O$O$O$O$O$O$N$z%A%:             ",
"              B%C%N$O$O$O$O$O$O$ %D%E%F%G%1$H%$+I%;+J%# # K%L%y%O$O$O$ %y%M$M%N%O%P%            ",
"              Q%R%S%T%U%o%N$O$O$O$V%W%X%# Y%Z%* # # # # `% &.&o%O$N$o%+&@&#&$&%&&&              ",
"              *&=&-&;&Q%>&,&M$'&)&!&~&{&# # # # # # # # ]&^&/&S%U%s%(&_&:&H$<&                  ",
"                [&}&|&1&2&3&_&4&5&6&7&8&|#9&0&a&a&a&a&b&c&d&e&f&g&h&i&j&S.k&                    ",
"                      Y$l&m&n&o&p&q&r&s&D#t&u&        v&w&x&y&z&A&B&C&D&E&                      ",
"                            F&G&H&I&J&,%                    K&L&M&N&O&u&                        ",
"                                  P&Q&                        f+k#R&                            "};
