/* XPM */
static char * poweroff_xpm[] = {
"30 30 188 2",
"  	c None",
". 	c #191919",
"+ 	c #252525",
"@ 	c #303030",
"# 	c #383838",
"$ 	c #404040",
"% 	c #454545",
"& 	c #4B4B4B",
"* 	c #515151",
"= 	c #000000",
"- 	c #272727",
"; 	c #464646",
"> 	c #565656",
", 	c #5B5B5B",
"' 	c #606060",
") 	c #4E4E4E",
"! 	c #818181",
"~ 	c #A4A4A4",
"{ 	c #C0C0C0",
"] 	c #CCCCCC",
"^ 	c #C4C4C4",
"/ 	c #AFAFAF",
"( 	c #989898",
"_ 	c #828282",
": 	c #6C6C6C",
"< 	c #646464",
"[ 	c #696969",
"} 	c #6D6D6D",
"| 	c #4A4A4A",
"1 	c #969696",
"2 	c #FFFFFF",
"3 	c #E6E6E6",
"4 	c #D8D8D8",
"5 	c #CECECE",
"6 	c #C5C5C5",
"7 	c #BEBEBE",
"8 	c #B6B6B6",
"9 	c #B0B0B0",
"0 	c #ABABAB",
"a 	c #A5A5A5",
"b 	c #8B8B8B",
"c 	c #747474",
"d 	c #717171",
"e 	c #737373",
"f 	c #ECECEC",
"g 	c #E4E4E4",
"h 	c #D5D5D5",
"i 	c #BCBCBC",
"j 	c #B5B5B5",
"k 	c #A9A9A9",
"l 	c #9F9F9F",
"m 	c #9A9A9A",
"n 	c #959595",
"o 	c #7F7F7F",
"p 	c #787878",
"q 	c #7C7C7C",
"r 	c #7E7E7E",
"s 	c #DFDFDF",
"t 	c #D4D4D4",
"u 	c #C9C9C9",
"v 	c #C2C2C2",
"w 	c #BBBBBB",
"x 	c #B4B4B4",
"y 	c #AEAEAE",
"z 	c #A3A3A3",
"A 	c #9E9E9E",
"B 	c #909090",
"C 	c #8C8C8C",
"D 	c #838383",
"E 	c #EFEFEF",
"F 	c #DDDDDD",
"G 	c #D1D1D1",
"H 	c #C8C8C8",
"I 	c #BFBFBF",
"J 	c #B9B9B9",
"K 	c #B3B3B3",
"L 	c #ACACAC",
"M 	c #A7A7A7",
"N 	c #A2A2A2",
"O 	c #9D9D9D",
"P 	c #949494",
"Q 	c #8F8F8F",
"R 	c #888888",
"S 	c #868686",
"T 	c #8A8A8A",
"U 	c #0B0B0B",
"V 	c #E9E9E9",
"W 	c #DADADA",
"X 	c #CFCFCF",
"Y 	c #C6C6C6",
"Z 	c #B8B8B8",
"` 	c #B1B1B1",
" .	c #A6A6A6",
"..	c #A1A1A1",
"+.	c #9C9C9C",
"@.	c #979797",
"#.	c #939393",
"$.	c #8D8D8D",
"%.	c #929292",
"&.	c #808080",
"*.	c #7B7B7B",
"=.	c #878787",
"-.	c #8E8E8E",
";.	c #202020",
">.	c #D7D7D7",
",.	c #CDCDCD",
"'.	c #BDBDBD",
").	c #AAAAAA",
"!.	c #A0A0A0",
"~.	c #9B9B9B",
"{.	c #999999",
"].	c #7D7D7D",
"^.	c #767676",
"/.	c #505050",
"(.	c #E1E1E1",
"_.	c #CACACA",
":.	c #C3C3C3",
"<.	c #919191",
"[.	c #7A7A7A",
"}.	c #2B2B2B",
"|.	c #D2D2D2",
"1.	c #BABABA",
"2.	c #ADADAD",
"3.	c #A8A8A8",
"4.	c #898989",
"5.	c #707070",
"6.	c #686868",
"7.	c #2D2D2D",
"8.	c #353535",
"9.	c #C7C7C7",
"0.	c #B2B2B2",
"a.	c #6B6B6B",
"b.	c #676767",
"c.	c #626262",
"d.	c #363636",
"e.	c #3C3C3C",
"f.	c #B7B7B7",
"g.	c #C1C1C1",
"h.	c #6A6A6A",
"i.	c #666666",
"j.	c #616161",
"k.	c #5C5C5C",
"l.	c #5F5F5F",
"m.	c #3D3D3D",
"n.	c #434343",
"o.	c #727272",
"p.	c #656565",
"q.	c #444444",
"r.	c #5A5A5A",
"s.	c #545454",
"t.	c #4F4F4F",
"u.	c #636363",
"v.	c #5E5E5E",
"w.	c #595959",
"x.	c #535353",
"y.	c #4D4D4D",
"z.	c #474747",
"A.	c #858585",
"B.	c #5D5D5D",
"C.	c #575757",
"D.	c #525252",
"E.	c #4C4C4C",
"F.	c #3F3F3F",
"G.	c #757575",
"H.	c #6E6E6E",
"I.	c #555555",
"J.	c #424242",
"K.	c #3B3B3B",
"L.	c #333333",
"M.	c #282828",
"N.	c #797979",
"O.	c #484848",
"P.	c #414141",
"Q.	c #393939",
"R.	c #313131",
"S.	c #848484",
"T.	c #2E2E2E",
"U.	c #232323",
"V.	c #777777",
"W.	c #6F6F6F",
"X.	c #F4F4F4",
"Y.	c #2A2A2A",
"Z.	c #1E1E1E",
"`.	c #494949",
" +	c #3A3A3A",
".+	c #323232",
"++	c #101010",
"@+	c #161616",
"                                                            ",
"                      . + @ # $ % & *                       ",
"                  = . - @ # $ ; & * > , '                   ",
"              = = . ) ! ~ { ] ^ / ( _ : < [ }               ",
"            = = | 1 2 3 4 5 6 7 8 9 0 a b c d c             ",
"          = = e f 2 g h ] ^ i j / k ~ l m n o p q           ",
"        = = r 2 2 s t u v w x y k z A m n B C ! o D         ",
"      = = c 2 E F G H I J K L M N O ( P Q b R D ! S T       ",
"      U | f V W X Y 7 Z ` L  ...+.@.#.Q $.%.T &.*.=.-.      ",
"    U ;.1 3 >.,.6 '.8 9 ).a !.~.1 %.-.-.{.L ( ].^.q %.1     ",
"    ;./.(.h _.:.i x / k a ..~.n <.$.C m ` j 1 [.d } Q ~.    ",
"  ;.}.&.|.u v 1.x 2.3.a 0 / l B C 4.1 / 1.~ ].5.: 6.&.l ~   ",
"  7.8.A 9.I J 0.L M z 0 7 { 0 <.4.<.0 1.z _ 5.a.b.c.5.~ k   ",
"  d.e.x 7 f.` 0  .z ).J g.g.f.{.B 2.J 3.R 5.h.i.j.k.l.k y   ",
"  m.n.1.j / ).~ !. .f.I / K '.0 a w 2.4.o.[ p.' , > * / x   ",
"  q.| K / k ~ A !.` i 9 1 O J '.'.9 -.e [ < l.r.s.t.| x w   ",
"  & /.N 3.N O A L w K 1 S b k I f.Q o.b.u.v.w.x.y.z./.w v   ",
"  /.> B ..+.~.2.7 j m A.o ].C l C d b.c.B.C.D.E.% F.c.v u   ",
"  > , r ~.( ~ Z Z ..=.r *.^.G.G.H.p.j., > * & q.e.8.r u |.  ",
"    ' : 1 n 3.8 l R r [.^.o.} [ < ' , I./.| J.K.L.M.0 |.    ",
"    < 6.D -.1 {.=.].N.G.d } 6.< v.w.s.) O.P.Q.R.- 6.t F     ",
"      } c =.S.! q p c 5.: b.c.v.w.x.y.; $ # T.U.. / s       ",
"      d c q o *.V.e W.h.i.c.k.C.D.& % F.d.7.;.U R s X.      ",
"        p q ].^.e H.h.p.' , > /.& n.e.8.Y.Z.= r s X.        ",
"          o D r } [ < ' r.I.t.`.J. +.+M.. ++4.(.2           ",
"            S T R c v.w.x.) O.P.Q.@ + @+b./ (.2             ",
"              -.%.1 B q b.x.P.Q.n., *.0 >.g 2               ",
"                  m l ~ 3.2.K Z 7 Y 5 >.g                   ",
"                      k 2.K J 7 Y 5 4                       ",
"                                                            "};
