/* XPM */
static char * poweron_xpm[] = {
"30 30 307 2",
"  	c None",
". 	c #191919",
"+ 	c #252525",
"@ 	c #303030",
"# 	c #383838",
"$ 	c #404040",
"% 	c #454545",
"& 	c #4B4B4B",
"* 	c #515151",
"= 	c #000000",
"- 	c #272727",
"; 	c #464646",
"> 	c #565656",
", 	c #5B5B5B",
"' 	c #606060",
") 	c #4E4E4E",
"! 	c #818181",
"~ 	c #A4A4A4",
"{ 	c #C0C0C0",
"] 	c #CCCCCC",
"^ 	c #C4C4C4",
"/ 	c #AFAFAF",
"( 	c #989898",
"_ 	c #828282",
": 	c #6C6C6C",
"< 	c #646464",
"[ 	c #696969",
"} 	c #6D6D6D",
"| 	c #4A4A4A",
"1 	c #969696",
"2 	c #FFFFFF",
"3 	c #E6E6E6",
"4 	c #D8D8D8",
"5 	c #CECECE",
"6 	c #C5C5C5",
"7 	c #BEBEBE",
"8 	c #B6B6B6",
"9 	c #B0B0B0",
"0 	c #ABABAB",
"a 	c #A5A5A5",
"b 	c #8B8B8B",
"c 	c #747474",
"d 	c #717171",
"e 	c #737373",
"f 	c #ECECEC",
"g 	c #E4E4E4",
"h 	c #D5D5D5",
"i 	c #BCBCBC",
"j 	c #B5B5B5",
"k 	c #A9A9A9",
"l 	c #9F9F9F",
"m 	c #9A9A9A",
"n 	c #959595",
"o 	c #7F7F7F",
"p 	c #787878",
"q 	c #7C7C7C",
"r 	c #7E7E7E",
"s 	c #DFDFDF",
"t 	c #D4D4D4",
"u 	c #C9C9C9",
"v 	c #C2C2C2",
"w 	c #BBBBBB",
"x 	c #B4B4B4",
"y 	c #AEAEAE",
"z 	c #A3A3A3",
"A 	c #9E9E9E",
"B 	c #909090",
"C 	c #8C8C8C",
"D 	c #838383",
"E 	c #EFEFEF",
"F 	c #DDDDDD",
"G 	c #D1D1D1",
"H 	c #C8C8C8",
"I 	c #BFBFBF",
"J 	c #B9B9B9",
"K 	c #B3B3B3",
"L 	c #ACACAC",
"M 	c #A7A7A7",
"N 	c #A2A2A2",
"O 	c #9D9D9D",
"P 	c #949494",
"Q 	c #8F8F8F",
"R 	c #8B8B8C",
"S 	c #888888",
"T 	c #868686",
"U 	c #8A8A8A",
"V 	c #0B0B0B",
"W 	c #E9E9E9",
"X 	c #DADADA",
"Y 	c #CFCFCF",
"Z 	c #C6C6C6",
"` 	c #B8B8B8",
" .	c #B1B1B1",
"..	c #A6A6A6",
"+.	c #A1A1A1",
"@.	c #9C9C9C",
"#.	c #979797",
"$.	c #939393",
"%.	c #8D8D92",
"&.	c #90919D",
"*.	c #8A8A92",
"=.	c #808081",
"-.	c #7B7B7B",
";.	c #878787",
">.	c #8E8E8E",
",.	c #202020",
"'.	c #D7D7D7",
").	c #CDCDCD",
"!.	c #BDBDBD",
"~.	c #AAAAAA",
"{.	c #A0A0A0",
"].	c #9B9B9B",
"^.	c #929292",
"/.	c #8D8E93",
"(.	c #9698AB",
"_.	c #A6A9CF",
":.	c #9597AD",
"<.	c #7D7D80",
"[.	c #767676",
"}.	c #505050",
"|.	c #E1E1E1",
"1.	c #CACACA",
"2.	c #C3C3C3",
"3.	c #A5A5A8",
"4.	c #A1A1A5",
"5.	c #9B9B9D",
"6.	c #919191",
"7.	c #8D8D8D",
"8.	c #8C8C90",
"9.	c #9799AD",
"0.	c #AAAED9",
"a.	c #ADB2E1",
"b.	c #9395AC",
"c.	c #797A7E",
"d.	c #2B2B2B",
"e.	c #808080",
"f.	c #D2D2D2",
"g.	c #BABABA",
"h.	c #ADADAD",
"i.	c #A8A8A8",
"j.	c #A4A5AA",
"k.	c #A7AABF",
"l.	c #AAADCB",
"m.	c #9D9FAC",
"n.	c #909092",
"o.	c #89898B",
"p.	c #9395A5",
"q.	c #A8ACD4",
"r.	c #B1B6E9",
"s.	c #9EA2C4",
"t.	c #7C7D84",
"u.	c #707071",
"v.	c #686868",
"w.	c #2D2D2D",
"x.	c #353535",
"y.	c #C7C7C7",
"z.	c #B2B2B2",
"A.	c #A2A3A6",
"B.	c #A8AAC0",
"C.	c #B5BAEC",
"D.	c #B7BCF1",
"E.	c #A6A9C9",
"F.	c #909198",
"G.	c #8F909E",
"H.	c #A5A9CF",
"I.	c #B1B7E9",
"J.	c #9EA1C3",
"K.	c #80828C",
"L.	c #707070",
"M.	c #6B6B6B",
"N.	c #676767",
"O.	c #626262",
"P.	c #363636",
"Q.	c #3C3C3C",
"R.	c #B7B7B7",
"S.	c #A3A3A7",
"T.	c #A7A9BF",
"U.	c #B2B6E2",
"V.	c #B8BDF4",
"W.	c #AFB4E1",
"X.	c #8E8F9C",
"Y.	c #A6AAD1",
"Z.	c #B0B5E7",
"`.	c #A2A6CC",
" +	c #858796",
".+	c #707072",
"++	c #6A6A6A",
"@+	c #666666",
"#+	c #616161",
"$+	c #5C5C5C",
"%+	c #5F5F5F",
"&+	c #3D3D3D",
"*+	c #434343",
"=+	c #A0A0A2",
"-+	c #A3A5B5",
";+	c #B0B4DE",
">+	c #B6BBEF",
",+	c #A9ADD1",
"'+	c #ACB0D9",
")+	c #B4B9ED",
"!+	c #A5A9CE",
"~+	c #9FA3C3",
"{+	c #B2B7EB",
"]+	c #A6AAD3",
"^+	c #868899",
"/+	c #727275",
"(+	c #656565",
"_+	c #444444",
":+	c #9E9E9F",
"<+	c #9FA0AB",
"[+	c #ABAFD2",
"}+	c #B4B9EA",
"|+	c #AAAED4",
"1+	c #9496A4",
"2+	c #999CB3",
"3+	c #B1B6E7",
"4+	c #B4B9EE",
"5+	c #A9ADD9",
"6+	c #8B8DA3",
"7+	c #737378",
"8+	c #5A5A5A",
"9+	c #545454",
"0+	c #4F4F4F",
"a+	c #9D9EA7",
"b+	c #A7AAC7",
"c+	c #B3B8E9",
"d+	c #9495A3",
"e+	c #868688",
"f+	c #8A8B95",
"g+	c #A3A7CC",
"h+	c #B5BBF2",
"i+	c #AFB3E5",
"j+	c #8C8EA4",
"k+	c #717276",
"l+	c #676768",
"m+	c #636363",
"n+	c #5E5E5E",
"o+	c #595959",
"p+	c #535353",
"q+	c #4D4D4D",
"r+	c #474747",
"s+	c #9A9B9F",
"t+	c #A8ABCA",
"u+	c #B5BAED",
"v+	c #AEB2DE",
"w+	c #9799AC",
"x+	c #858587",
"y+	c #7D7D7F",
"z+	c #8A8B9C",
"A+	c #9A9DBD",
"B+	c #898BA0",
"C+	c #707175",
"D+	c #5D5D5D",
"E+	c #575757",
"F+	c #525252",
"G+	c #4C4C4C",
"H+	c #3F3F3F",
"I+	c #98989C",
"J+	c #A1A3B8",
"K+	c #B1B5E4",
"L+	c #B0B5E4",
"M+	c #9DA0BA",
"N+	c #87878D",
"O+	c #757678",
"P+	c #747579",
"Q+	c #6E6E71",
"R+	c #95959B",
"S+	c #A4A6C4",
"T+	c #AFB3E1",
"U+	c #9B9DB6",
"V+	c #888890",
"W+	c #7E7F80",
"X+	c #7A7A7A",
"Y+	c #727272",
"Z+	c #555555",
"`+	c #424242",
" @	c #3B3B3B",
".@	c #333333",
"+@	c #282828",
"@@	c #8E8E91",
"#@	c #9698AC",
"$@	c #87878E",
"%@	c #7D7D7E",
"&@	c #797979",
"*@	c #757575",
"=@	c #484848",
"-@	c #414141",
";@	c #393939",
">@	c #313131",
",@	c #848485",
"'@	c #818283",
")@	c #7C7C7D",
"!@	c #2E2E2E",
"~@	c #232323",
"{@	c #777777",
"]@	c #6F6F6F",
"^@	c #F4F4F4",
"/@	c #7D7D7D",
"(@	c #6E6E6E",
"_@	c #2A2A2A",
":@	c #1E1E1E",
"<@	c #494949",
"[@	c #3A3A3A",
"}@	c #323232",
"|@	c #101010",
"1@	c #898989",
"2@	c #161616",
"                                                            ",
"                      . + @ # $ % & *                       ",
"                  = . - @ # $ ; & * > , '                   ",
"              = = . ) ! ~ { ] ^ / ( _ : < [ }               ",
"            = = | 1 2 3 4 5 6 7 8 9 0 a b c d c             ",
"          = = e f 2 g h ] ^ i j / k ~ l m n o p q           ",
"        = = r 2 2 s t u v w x y k z A m n B C ! o D         ",
"      = = c 2 E F G H I J K L M N O ( P Q R S D ! T U       ",
"      V | f W X Y Z 7 `  .L ..+.@.#.$.Q %.&.*.=.-.;.>.      ",
"    V ,.1 3 '.).6 !.8 9 ~.a {.].1 ^.>./.(._.:.<.[.q ^.1     ",
"    ,.}.|.h 1.2.i x / k 3.4.5.n 6.7.8.9.0.a.b.c.d } Q ].    ",
"  ,.d.e.f.u v g.x h.i.j.k.l.m.n.C o.p.q.r.s.t.u.: v.e.l ~   ",
"  w.x.A y.I J z.L M A.B.C.D.E.F.o.G.H.I.J.K.L.M.N.O.L.~ k   ",
"  P.Q.x 7 R. .0 ..S.T.U.V.V.W.(.X.Y.Z.`. +.+++@+#+$+%+k y   ",
"  &+*+g.j / ~.~ =+-+;+>+,+'+)+!+~+{+]+^+/+[ (+' , > * / x   ",
"  _+| K / k ~ :+<+[+}+|+1+2+3+4+4+5+6+7+[ < %+8+9+0+| x w   ",
"  & }.N i.N O a+b+c+'+d+e+f+g+h+i+j+k+l+m+n+o+p+q+r+}.w v   ",
"  }.> B +.@.s+t+u+v+w+x+o y+z+A+B+C+N.O.D+E+F+G+% H+O.v u   ",
"  > , r ].I+J+K+L+M+N+r -.[.O+P+Q+(+#+, > * & _+Q.x.r u f.  ",
"    ' : 1 R+S+T+U+V+W+X+[.Y+} [ < ' , Z+}.| `+ @.@+@0 f.    ",
"    < v.D @@1+#@$@%@&@*@d } v.< n+o+9+) =@-@;@>@- v.t F     ",
"      } c ;.,@'@)@p c L.: N.O.n+o+p+q+; $ # !@~@. / s       ",
"      d c q o -.{@e ]@++@+O.$+E+F+& % H+P.w.,.V S s ^@      ",
"        p q /@[.e (@++(+' , > }.& *+Q.x._@:@= r s ^@        ",
"          o D r } [ < ' 8+Z+0+<@`+[@}@+@. |@1@|.2           ",
"            T U S c n+o+p+) =@-@;@@ + 2@N./ |.2             ",
"              >.^.1 B q N.p+-@;@*+, -.0 '.g 2               ",
"                  m l ~ i.h.K ` 7 Z 5 '.g                   ",
"                      k h.K J 7 Z 5 4                       ",
"                                                            "};
