/* XPM */
static char * scene_screenshot_xpm[] = {
"48 32 206 2",
"  	c None",
". 	c #35579E",
"+ 	c #3B5BA1",
"@ 	c #3A5BA0",
"# 	c #3B5CA1",
"$ 	c #36589F",
"% 	c #395AA0",
"& 	c #4060A3",
"* 	c #385AA0",
"= 	c #36589E",
"- 	c #37589F",
"; 	c #3A5BA1",
"> 	c #4161A4",
", 	c #3F5FA3",
"' 	c #3C5CA1",
") 	c #3E5EA2",
"! 	c #37599F",
"~ 	c #405FA3",
"{ 	c #3D5DA2",
"] 	c #4463A5",
"^ 	c #4664A6",
"/ 	c #4564A6",
"( 	c #4563A6",
"_ 	c #4765A7",
": 	c #4261A4",
"< 	c #4160A4",
"[ 	c #38599F",
"} 	c #36579E",
"| 	c #3F5EA3",
"1 	c #4966A7",
"2 	c #3C5DA2",
"3 	c #4563A5",
"4 	c #8D9AC8",
"5 	c #7A8CBF",
"6 	c #C0C4E1",
"7 	c #C7C9E4",
"8 	c #B7BDDC",
"9 	c #4B68A9",
"0 	c #3859A0",
"a 	c #99A5CE",
"b 	c #A4B1D3",
"c 	c #CDCFE7",
"d 	c #D5D6EB",
"e 	c #C7CAE4",
"f 	c #BEC2DF",
"g 	c #5973AF",
"h 	c #546FAD",
"i 	c #C4C9E3",
"j 	c #97A6CD",
"k 	c #4462A5",
"l 	c #657CB5",
"m 	c #9CA8CF",
"n 	c #8898C6",
"o 	c #D3D4E9",
"p 	c #CDD0E7",
"q 	c #CED0E7",
"r 	c #C5C8E3",
"s 	c #D2D4E9",
"t 	c #D0D2E8",
"u 	c #BCC1DF",
"v 	c #4966A8",
"w 	c #4260A4",
"x 	c #A0ABD1",
"y 	c #A9B2D5",
"z 	c #B6BDDC",
"A 	c #C3C7E2",
"B 	c #7488BC",
"C 	c #3C5CA2",
"D 	c #7F91C1",
"E 	c #D6D7EB",
"F 	c #D1D2E8",
"G 	c #D6D8EB",
"H 	c #B2B9DA",
"I 	c #6279B3",
"J 	c #BBC1DE",
"K 	c #CBCEE6",
"L 	c #BCC2DF",
"M 	c #7286BB",
"N 	c #506BAB",
"O 	c #546EAD",
"P 	c #5770AF",
"Q 	c #5972B0",
"R 	c #5B72B1",
"S 	c #5A72B0",
"T 	c #566FAE",
"U 	c #5B73B1",
"V 	c #6278B5",
"W 	c #7082BC",
"X 	c #8996C8",
"Y 	c #9FA8D2",
"Z 	c #B8BDDD",
"` 	c #D4D5EA",
" .	c #CACDE5",
"..	c #C6C9E3",
"+.	c #BDC1DF",
"@.	c #B7BCDD",
"#.	c #DBDEEE",
"$.	c #E5E7F2",
"%.	c #7084BA",
"&.	c #687CB8",
"*.	c #6278B4",
"=.	c #808FC3",
"-.	c #A2AAD3",
";.	c #ACB3D7",
">.	c #A8B0D6",
",.	c #A2ABD3",
"'.	c #9BA5D0",
").	c #949FCD",
"!.	c #8B98C9",
"~.	c #8391C5",
"{.	c #7A89C1",
"].	c #7585BF",
"^.	c #7183BD",
"/.	c #6F81BC",
"(.	c #6E80BC",
"_.	c #7384BE",
":.	c #7888C0",
"<.	c #7485BF",
"[.	c #7686BF",
"}.	c #7485BE",
"|.	c #7283BD",
"1.	c #7989C1",
"2.	c #7988C0",
"3.	c #7887C0",
"4.	c #7787C0",
"5.	c #7484BE",
"6.	c #7283BE",
"7.	c #7182BD",
"8.	c #7081BD",
"9.	c #B1B6D9",
"0.	c #B0B6D9",
"a.	c #B0B5D9",
"b.	c #B0B5D8",
"c.	c #AFB4D8",
"d.	c #AEB3D8",
"e.	c #AEB3D7",
"f.	c #ADB2D7",
"g.	c #ACB2D7",
"h.	c #ABB1D6",
"i.	c #AAB0D6",
"j.	c #A9AFD5",
"k.	c #A7AED5",
"l.	c #A6ACD4",
"m.	c #A4ABD3",
"n.	c #A2A9D2",
"o.	c #A0A8D2",
"p.	c #9FA7D1",
"q.	c #9DA6D0",
"r.	c #9CA4D0",
"s.	c #9AA3CF",
"t.	c #99A2CE",
"u.	c #97A1CE",
"v.	c #96A0CD",
"w.	c #959FCD",
"x.	c #949ECC",
"y.	c #939DCC",
"z.	c #929CCB",
"A.	c #919CCB",
"B.	c #919BCA",
"C.	c #8E97C3",
"D.	c #959FCC",
"E.	c #98A2CE",
"F.	c #9CA5D0",
"G.	c #AFB3D5",
"H.	c #B9BBD6",
"I.	c #C3C5E0",
"J.	c #B5B7D3",
"K.	c #B0B5D7",
"L.	c #A8ACCA",
"M.	c #9F9FAA",
"N.	c #9A9783",
"O.	c #ADAEC5",
"P.	c #ACB0D1",
"Q.	c #8F94B1",
"R.	c #A5A4A8",
"S.	c #8F8437",
"T.	c #AEB0CA",
"U.	c #AEB3D5",
"V.	c #8991B4",
"W.	c #7382B9",
"X.	c #717FB6",
"Y.	c #7785BD",
"Z.	c #A8AED2",
"`.	c #8591BF",
" +	c #6E79A4",
".+	c #7684B8",
"++	c #99A0C9",
"@+	c #99A0C6",
"#+	c #646F98",
"$+	c #707FB6",
"%+	c #7A84AE",
"&+	c #979FC8",
"*+	c #B5B4CB",
"=+	c #CFAA6F",
"-+	c #A6A6BA",
";+	c #777D89",
">+	c #7B84A0",
",+	c #7B85A1",
"'+	c #9EA4C7",
")+	c #A6A8C2",
"!+	c #ADA4A9",
"~+	c #A5ACD3",
"{+	c #B3B7D2",
"]+	c #B3B7D3",
"^+	c #B5B8CC",
"/+	c #B2B6D7",
"      . . . . . . . . . . . . . . . . . . . . . . . . . . . . . . . . . . . . . . . . . . .     ",
"      . . + @ . # . $ . . . . . . . . . . . . . . % . . . & . . . * . . . . . . . . . . . .     ",
"      . = . . . . . # @ . - . . . . . . . . . # ; . . . . = . . . > . . . . . . . . % % . .     ",
"      = , . . . ' . ' . . % . . . $ @ . . ) . ! ! . ~ . - ; . { @ . . . ) = . ] . . + @ + .     ",
"      ) . . . . . . - . . . . # . . ' . ^ . . . . . . = . . . ; . . ) . ) = . % = @ . . . .     ",
"      ! . . % ! # = . . @ . . . . . . . $ . . . % . . ~ . . . . / ! . . . . ~ . . . . - { %     ",
"      = . . % . . . . . . ~ . . # . . . . . ( . . $ . . . . , . . . . . ; . @ . . _ $ @ . :     ",
"      . . . * . . . . = % . . . . . . . < . . . . ) . . . . ! . [ . # . . . . } + . . . _ -     ",
"      - . . . . . ) . . . . . . . . % [ . . # . . . . ' . @ } . [ . ! . . = . . . . . . . {     ",
"      % . . + . . . . . . . ~ . . . . . . . [ . . . . . . . } . . . - ' . , . . ! ' . < . .     ",
"      . . . $ . . . . . . . . . . + . . . ) . . % . . . . [ ) . ( . ! { . . . . . . . . . %     ",
"      & . . . . ' . . . @ . . # . . . < . | . . . - , . ' . . . . . . . . . 1 . . ( [ # . [     ",
"      . . . . . . . . . . . . } . . . . . . . } . . . . . . . . . 2 . . + . . . . . . . . =     ",
"      . . . . ' . . . . . . . . . # . . ' . . 3 . . . [ ! . . . . - . . . 4 5 { . . . . . .     ",
"      < } . . . . [ = . . . ) . . . . . . . . . . , . . . . _ . . . . . = 6 7 8 9 . # [ . }     ",
"      . . . . . . [ = . 0 . . . . . . . . . ) . . . . . . . . . . . . a b c d e f g . . . {     ",
"      . . . . . . . . h i j k . . . . . . . . . . . . . . . . . l m n o p q r s t u v . . .     ",
"      . . . . . w x y z d c A B [ . . . . . . . . . . . . . C D s E E E E E F p G H ; . . .     ",
"      . . . ; I J E E E E E E K L M N O P Q R S T O T U V W X Y Z q `  .r ..+.@.#.$.%.. . .     ",
"      &.*.=.-.;.>.,.'.).!.~.{.].^./.(.(.(.(.(.(.(.(.(.(.(.(.(.(.(._.:.:.<./.(.(./._.[.}.|.|.    ",
"      (.(.(.(.(.(.(.(.(.(.(.(.(.(.(.(.(.(.(.(.(.(.(.(.(.(.(.(.(.(.(.(.(.(.(.(.(.(.(.(.(.(.(.    ",
"      1.2.:.3.4.[.].].5._.6.7.8./.(.(.(.(.(.(.(.(.(.(.(.(.(.(.(.(.(.(.(.(.(.(.(.(.(.(.(.(.(.    ",
"      9.9.9.9.0.a.b.c.c.d.e.f.g.h.i.j.k.l.m.n.o.p.q.r.s.t.u.v.w.x.y.z.A.A.A.A.A.B.C.D.E.F.n.    ",
"      9.9.9.9.9.9.9.9.9.9.9.9.9.9.9.9.9.9.9.9.9.9.9.9.9.9.9.9.9.9.9.9.9.9.9.9.G.H.I.J.K.9.9.    ",
"      9.9.9.9.9.9.9.9.9.9.9.9.9.9.9.9.9.9.9.9.9.9.9.9.9.9.9.9.9.9.9.9.9.9.9.9.L.M.N.O.P.9.9.    ",
"      9.9.9.9.9.9.9.9.9.9.9.9.9.9.9.9.9.9.9.9.9.9.9.9.9.9.9.9.9.9.9.9.9.9.9.9.Q.R.S.T.U.9.9.    ",
"      9.9.9.9.9.9.9.9.9.9.9.9.9.9.9.9.9.9.9.9.9.9.9.9.9.9.9.9.9.9.9.9.9.9.9.9.V.W.X.Y.Z.9.9.    ",
"      9.9.9.9.9.9.9.9.9.9.9.9.9.9.9.9.9.9.9.9.9.9.9.9.9.9.9.9.9.9.9.9.9.9.9.9.`. +X..+++9.9.    ",
"      9.9.9.9.9.9.9.9.9.9.9.9.9.9.9.9.9.9.9.9.9.9.9.9.9.9.9.9.9.9.9.9.9.9.9.9.@+#+$+%+&+9.9.    ",
"      9.9.9.9.9.9.9.9.9.9.9.9.9.9.9.9.9.9.9.9.9.9.9.9.9.9.9.9.9.9.9.9.9.9.*+=+-+;+>+,+'+9.9.    ",
"      9.9.9.9.9.9.9.9.9.9.9.9.9.9.9.9.9.9.9.9.9.9.9.9.9.9.9.9.9.9.9.9.9.h.)+!+~+{+]+^+/+9.9.    ",
"      9.9.9.9.9.9.9.9.9.9.9.9.9.9.9.9.9.9.9.9.9.9.9.9.9.9.9.9.9.9.9.9.9.9.9.9.9.9.9.9.9.9.9.    "};
