/* XPM */
static char * scene_trim_xpm[] = {
"64 32 182 2",
"  	c None",
". 	c #535353",
"+ 	c #585858",
"@ 	c #616161",
"# 	c #6A6A6A",
"$ 	c #727272",
"% 	c #7B7B7B",
"& 	c #848484",
"* 	c #8D8D8D",
"= 	c #969696",
"- 	c #9F9F9F",
"; 	c #A7A7A7",
"> 	c #B0B0B0",
", 	c #B8B8B8",
"' 	c #C1C1C1",
") 	c #CDCDCD",
"! 	c #C7C7C7",
"~ 	c #BEBEBE",
"{ 	c #B5B5B5",
"] 	c #ACACAC",
"^ 	c #A3A3A3",
"/ 	c #9A9A9A",
"( 	c #909090",
"_ 	c #878787",
": 	c #7E7E7E",
"< 	c #757575",
"[ 	c #6C6C6C",
"} 	c #636363",
"| 	c #595959",
"1 	c #565656",
"2 	c #404040",
"3 	c #474747",
"4 	c #555555",
"5 	c #828282",
"6 	c #666666",
"7 	c #898989",
"8 	c #BABABA",
"9 	c #747474",
"0 	c #AEAEAE",
"a 	c #B3B3B3",
"b 	c #676767",
"c 	c #656565",
"d 	c #646464",
"e 	c #6E6E6E",
"f 	c #464646",
"g 	c #494949",
"h 	c #000000",
"i 	c #1D1D1D",
"j 	c #515151",
"k 	c #525252",
"l 	c #BBBBBB",
"m 	c #2E2E2E",
"n 	c #8E8E8E",
"o 	c #ADADAD",
"p 	c #0D0D0D",
"q 	c #252525",
"r 	c #484848",
"s 	c #020202",
"t 	c #010101",
"u 	c #1E1E1E",
"v 	c #4D4D4D",
"w 	c #2A2A2A",
"x 	c #A6A6A6",
"y 	c #505050",
"z 	c #262626",
"A 	c #575757",
"B 	c #868686",
"C 	c #B1B1B1",
"D 	c #B7B7B7",
"E 	c #B9B9B9",
"F 	c #AAAAAA",
"G 	c #939393",
"H 	c #8A8A8A",
"I 	c #838383",
"J 	c #717171",
"K 	c #626262",
"L 	c #5B5B5B",
"M 	c #BFBFBF",
"N 	c #C4C4C4",
"O 	c #C9C9C9",
"P 	c #CECECE",
"Q 	c #D4D4D4",
"R 	c #D9D9D9",
"S 	c #D5D5D5",
"T 	c #CFCFCF",
"U 	c #CACACA",
"V 	c #C5C5C5",
"W 	c #C0C0C0",
"X 	c #BCBCBC",
"Y 	c #B4B4B4",
"Z 	c #A0A0A0",
"` 	c #FFFFFF",
" .	c #BDBDBD",
"..	c #1B1B1B",
"+.	c #3E3E3E",
"@.	c #3C3C3C",
"#.	c #151515",
"$.	c #131313",
"%.	c #212121",
"&.	c #5A5A5A",
"*.	c #979797",
"=.	c #353535",
"-.	c #4E4E4E",
";.	c #888888",
">.	c #333333",
",.	c #0F0F0F",
"'.	c #222222",
").	c #242424",
"!.	c #FEFEFE",
"~.	c #3F3F3F",
"{.	c #1A1A1A",
"].	c #707070",
"^.	c #4C4C4C",
"/.	c #3B3B3B",
"(.	c #FDFDFD",
"_.	c #1F1F1F",
":.	c #8F8F8F",
"<.	c #7C7C7C",
"[.	c #989898",
"}.	c #818181",
"|.	c #B2B2B2",
"1.	c #8B8B8B",
"2.	c #686868",
"3.	c #4F4F4F",
"4.	c #080808",
"5.	c #191919",
"6.	c #AFAFAF",
"7.	c #303030",
"8.	c #434343",
"9.	c #6F6F6F",
"0.	c #393939",
"a.	c #949494",
"b.	c #777777",
"c.	c #202020",
"d.	c #424242",
"e.	c #171717",
"f.	c #2F2F2F",
"g.	c #5C5C5C",
"h.	c #606060",
"i.	c #121212",
"j.	c #6B6B6B",
"k.	c #161616",
"l.	c #959595",
"m.	c #DCDCDC",
"n.	c #DFDFDF",
"o.	c #E3E3E3",
"p.	c #E7E7E7",
"q.	c #EAEAEA",
"r.	c #ECECEC",
"s.	c #EEEEEE",
"t.	c #F0F0F0",
"u.	c #F1F1F1",
"v.	c #F3F3F3",
"w.	c #F5F5F5",
"x.	c #F4F4F4",
"y.	c #F2F2F2",
"z.	c #EFEFEF",
"A.	c #EDEDED",
"B.	c #EBEBEB",
"C.	c #E4E4E4",
"D.	c #E0E0E0",
"E.	c #DBDBDB",
"F.	c #A1A1A1",
"G.	c #A9A9A9",
"H.	c #C8C8C8",
"I.	c #D2D2D2",
"J.	c #A4A4A4",
"K.	c #797979",
"L.	c #737373",
"M.	c #696969",
"N.	c #141414",
"O.	c #9B9B9B",
"P.	c #282828",
"Q.	c #383838",
"R.	c #5E5E5E",
"S.	c #2C2C2C",
"T.	c #3D3D3D",
"U.	c #9D9D9D",
"V.	c #323232",
"W.	c #343434",
"X.	c #232323",
"Y.	c #373737",
"                                                                                                                                ",
"                                                                                                                                ",
"                                                                                                                                ",
"                                    . + @ # $ % & * = - ; > , ' ) ! ~ { ] ^ / ( _ : < [ } | .                                   ",
"                                    . 1 2 3 4 % & 5 } 6 7 > 8 _ 9 $ 0 { a b c d _ : e 3 2 f .                                   ",
"                                    . g h h i % & j h h k > l m h h n { o h h p _ : k h h q .                                   ",
"                                    . r s t u % & v h h j > 8 w h h n { x t h p _ : y s s z .                                   ",
"                                    . A | @ # % & B B n - > , C D a E { F G H I _ : J K L 4 .                                   ",
"                                    . + @ % 0 > a D l M N O P Q R S T U V W X D Y > 0 ( } | .                                   ",
"                                    . + @ Z ` ` ` ` ` ` ` ` ` ` ` ` ` ` ` ` ` ` ` ` `  .} | .                                   ",
"                w ..                . + @ Z ` ` ` ` ` ` ` ` ` ` ` ` ` ` ` ` ` ` ` ` `  .} | .                                   ",
"              +.@...#.              . + @ Z ` ` ` ` ` ` ` ` ` ` ` ` ` ` ` ` ` ` ` ` `  .} | < ~                                 ",
"              +.  $.%.              . + @ Z ` ` ` ` ` ` ` ` ` ` ` ` ` ` ` ` ` ` ` ` `  .} &.7 ( *.                              ",
"            =.  h u -.              . + @ Z ` ` ` ` ` ` ` ` ` ` ` ` ` ` ` ` ` ` ` ` `  .} . 1 -.< ;.o                           ",
"          >.k ,.'.1 | ).            . + @ Z ` ` !.!.` ` ` ` ` ` ` ` ` ` ` ` !.!.!.!.!. .} | ~.{.+ ].n o                         ",
"            ^./.9 $ d 3             . + @ Z ` !.(.(.` ` ` ` ` ` ` ` ` ` ` ` (.(.(.(.(. .} | .   _.g e H >                       ",
"                  :.<.b v %.        . + @ Z ` !.(.(.` ` ` ` ` ` ` ` ` ` (.(.(.(.(.(.(. .} | .       r 6 B C                     ",
"                    [.& d &.'.      . + @ Z ` !.(.(.` ` ` ` ` ` ` ` ` ` (.(.(.(.(.(.(. .} | .       %.1 @ }.*.                  ",
"                      |.1.2.3.  4.  . + @ Z ` !.(.(.` ` ` ` ` ` ` ` ` ` (.(.(.(.(.(.(. .} | .         5.3.c % n                 ",
"                        6.:.J ^.7.  . + @ Z ` !.(.(.(.` ` ` ` ` ` ` ` ` (.(.(.(.(.(.(. .} | .             8.c 9.# 0.-.          ",
"                          o a.b.| c.d.+ @ Z ` !.(.(.(.` ` ` ` ` ` ` ` ` (.(.(.(.(.(.(. .} | .           4.  + v e.#.-.f.        ",
"                              ;.: &.g.y h.Z ` !.(.(.(.` ` ` ` ` ` ` ` (.(.(.(.(.(.(.(. .} | .               r i.    =.          ",
"                                  Z G L @ Z ` !.(.(.(.(.(.(.` ` ` ` ` (.(.(.(.(.(.(.(. .} | .               ..    +.            ",
"                                    j.+ @ Z ` !.(.(.(.(.(.(.(.(.(.(.(.(.(.(.(.(.(.(.(. .} | .               k.%.@.              ",
"                                    . + @ l.m.n.o.p.q.r.s.t.u.v.w.x.y.u.z.A.B.p.C.D.E.F } | .                 ..                ",
"                                    . &.2.$ b.% & l.F.G.F > E H.I.) ~ { 6.o J.[._ : K.L.M.L .                                   ",
"                                    . -.i.N.m % & K i i d > l f i i O.{ > i i P._ : g.N.i.f..                                   ",
"                                    . g h h i % & j h h k > l m h h n { o h h p _ : k h h q .                                   ",
"                                    . v %.'.Q.% & R.S.f.j.> E 4 T./.U.{ J.V.m W._ : L X.'.Y..                                   ",
"                                    . + @ # $ % & * = - ; > , ' ) ! ~ { ] ^ / ( _ : < [ } | .                                   ",
"                                                                                                                                ",
"                                                                                                                                "};
