/* XPM */
static char * scene_delete_xpm[] = {
"32 32 154 2",
"  	c None",
". 	c #535353",
"+ 	c #585858",
"@ 	c #616161",
"# 	c #6A6A6A",
"$ 	c #727272",
"% 	c #7B7B7B",
"& 	c #848484",
"* 	c #8D8D8D",
"= 	c #969696",
"- 	c #9F9F9F",
"; 	c #A7A7A7",
"> 	c #B0B0B0",
", 	c #B8B8B8",
"' 	c #C1C1C1",
") 	c #CDCDCD",
"! 	c #C7C7C7",
"~ 	c #BEBEBE",
"{ 	c #B5B5B5",
"] 	c #ACACAC",
"^ 	c #A3A3A3",
"/ 	c #9A9A9A",
"( 	c #909090",
"_ 	c #878787",
": 	c #7E7E7E",
"< 	c #757575",
"[ 	c #6C6C6C",
"} 	c #636363",
"| 	c #595959",
"1 	c #565656",
"2 	c #404040",
"3 	c #474747",
"4 	c #555555",
"5 	c #828282",
"6 	c #666666",
"7 	c #898989",
"8 	c #BABABA",
"9 	c #747474",
"0 	c #AEAEAE",
"a 	c #B3B3B3",
"b 	c #676767",
"c 	c #656565",
"d 	c #646464",
"e 	c #6E6E6E",
"f 	c #464646",
"g 	c #494949",
"h 	c #000000",
"i 	c #1D1D1D",
"j 	c #515151",
"k 	c #525252",
"l 	c #BBBBBB",
"m 	c #2E2E2E",
"n 	c #8E8E8E",
"o 	c #ADADAD",
"p 	c #0D0D0D",
"q 	c #252525",
"r 	c #484848",
"s 	c #020202",
"t 	c #010101",
"u 	c #1E1E1E",
"v 	c #4D4D4D",
"w 	c #2A2A2A",
"x 	c #A6A6A6",
"y 	c #505050",
"z 	c #262626",
"A 	c #575757",
"B 	c #868686",
"C 	c #B1B1B1",
"D 	c #B7B7B7",
"E 	c #B9B9B9",
"F 	c #AAAAAA",
"G 	c #939393",
"H 	c #8A8A8A",
"I 	c #838383",
"J 	c #717171",
"K 	c #626262",
"L 	c #5B5B5B",
"M 	c #BFBFBF",
"N 	c #C4C4C4",
"O 	c #C9C9C9",
"P 	c #CECECE",
"Q 	c #D4D4D4",
"R 	c #D9D9D9",
"S 	c #D5D5D5",
"T 	c #CFCFCF",
"U 	c #CACACA",
"V 	c #C5C5C5",
"W 	c #C0C0C0",
"X 	c #BCBCBC",
"Y 	c #B4B4B4",
"Z 	c #A0A0A0",
"` 	c #FFFFFF",
" .	c #BDBDBD",
"..	c #C46D74",
"+.	c #9F3C44",
"@.	c #B5444E",
"#.	c #BD5A62",
"$.	c #7B2D34",
"%.	c #FEFEFE",
"&.	c #8C343C",
"*.	c #FDFDFD",
"=.	c #959595",
"-.	c #DCDCDC",
";.	c #DFDFDF",
">.	c #E3E3E3",
",.	c #E7E7E7",
"'.	c #EAEAEA",
").	c #ECECEC",
"!.	c #EEEEEE",
"~.	c #F0F0F0",
"{.	c #F1F1F1",
"].	c #F3F3F3",
"^.	c #F5F5F5",
"/.	c #F4F4F4",
"(.	c #F2F2F2",
"_.	c #EFEFEF",
":.	c #EDEDED",
"<.	c #EBEBEB",
"[.	c #E4E4E4",
"}.	c #E0E0E0",
"|.	c #DBDBDB",
"1.	c #5A5A5A",
"2.	c #686868",
"3.	c #777777",
"4.	c #A1A1A1",
"5.	c #A9A9A9",
"6.	c #C8C8C8",
"7.	c #D2D2D2",
"8.	c #AFAFAF",
"9.	c #A4A4A4",
"0.	c #989898",
"a.	c #797979",
"b.	c #737373",
"c.	c #696969",
"d.	c #4E4E4E",
"e.	c #121212",
"f.	c #141414",
"g.	c #9B9B9B",
"h.	c #282828",
"i.	c #5C5C5C",
"j.	c #2F2F2F",
"k.	c #212121",
"l.	c #222222",
"m.	c #383838",
"n.	c #5E5E5E",
"o.	c #2C2C2C",
"p.	c #6B6B6B",
"q.	c #3D3D3D",
"r.	c #3B3B3B",
"s.	c #9D9D9D",
"t.	c #323232",
"u.	c #343434",
"v.	c #232323",
"w.	c #373737",
"                                                                ",
"                                                                ",
"                                                                ",
"    . + @ # $ % & * = - ; > , ' ) ! ~ { ] ^ / ( _ : < [ } | .   ",
"    . 1 2 3 4 % & 5 } 6 7 > 8 _ 9 $ 0 { a b c d _ : e 3 2 f .   ",
"    . g h h i % & j h h k > l m h h n { o h h p _ : k h h q .   ",
"    . r s t u % & v h h j > 8 w h h n { x t h p _ : y s s z .   ",
"    . A | @ # % & B B n - > , C D a E { F G H I _ : J K L 4 .   ",
"    . + @ % 0 > a D l M N O P Q R S T U V W X D Y > 0 ( } | .   ",
"    . + @ Z ` ` ` ` ` ` ` ` ` ` ` ` ` ` ` ` ` ` ` ` `  .} | .   ",
"    . + @ Z ` ` ` ` ` ` ` h h ` ` ` ` ` ` h ` ` ` ` `  .} | .   ",
"    . + @ Z ` ` ` ` ` ` h ..+.h ` ` ` ` h @.h ` ` ` `  .} | .   ",
"    . + @ Z ` ` ` ` ` ` h @.@.h ` ` ` h #.@.h ` ` ` `  .} | .   ",
"    . + @ Z ` ` ` ` ` ` ` h @.+.h ` h #.@.$.h ` ` ` `  .} | .   ",
"    . + @ Z ` ` %.%.%.%.%.h @.@.h h #.@.&.h %.%.%.%.%. .} | .   ",
"    . + @ Z ` %.*.*.*.*.*.*.h @.@.@.@.+.h *.*.*.*.*.*. .} | .   ",
"    . + @ Z ` %.*.*.*.*.*.*.h @.@.@.@.h *.*.*.*.*.*.*. .} | .   ",
"    . + @ Z ` %.*.*.*.*.*.h #.@.@.@.h *.*.*.*.*.*.*.*. .} | .   ",
"    . + @ Z ` %.*.*.*.*.h #.@.@.@.@.h *.*.*.*.*.*.*.*. .} | .   ",
"    . + @ Z ` %.*.*.*.h #.@.&.h h @.&.h *.*.*.*.*.*.*. .} | .   ",
"    . + @ Z ` %.*.*.h ..@.&.h *.h +.@.h *.*.*.*.*.*.*. .} | .   ",
"    . + @ Z ` %.*.*.h @.&.h *.*.*.h @.+.h *.*.*.*.*.*. .} | .   ",
"    . + @ Z ` %.*.*.*.h h *.*.*.*.h +.@.h *.*.*.*.*.*. .} | .   ",
"    . + @ Z ` %.*.*.*.*.*.*.*.*.*.*.h h *.*.*.*.*.*.*. .} | .   ",
"    . + @ =.-.;.>.,.'.).!.~.{.].^./.(.{._.:.<.,.[.}.|.F } | .   ",
"    . 1.2.$ 3.% & =.4.5.F > E 6.7.) ~ { 8.o 9.0._ : a.b.c.L .   ",
"    . d.e.f.m % & K i i d > l f i i g.{ > i i h._ : i.f.e.j..   ",
"    . g h h i % & j h h k > l m h h n { o h h p _ : k h h q .   ",
"    . v k.l.m.% & n.o.j.p.> E 4 q.r.s.{ 9.t.m u._ : L v.l.w..   ",
"    . + @ # $ % & * = - ; > , ' ) ! ~ { ] ^ / ( _ : < [ } | .   ",
"                                                                ",
"                                                                "};
