/* XPM */
static char * scene_detection_xpm[] = {
"64 32 148 2",
"  	c None",
". 	c #535353",
"+ 	c #585858",
"@ 	c #616161",
"# 	c #6A6A6A",
"$ 	c #727272",
"% 	c #7B7B7B",
"& 	c #848484",
"* 	c #8D8D8D",
"= 	c #969696",
"- 	c #9F9F9F",
"; 	c #A7A7A7",
"> 	c #B0B0B0",
", 	c #B8B8B8",
"' 	c #C1C1C1",
") 	c #CDCDCD",
"! 	c #C7C7C7",
"~ 	c #BEBEBE",
"{ 	c #B5B5B5",
"] 	c #ACACAC",
"^ 	c #A3A3A3",
"/ 	c #9A9A9A",
"( 	c #909090",
"_ 	c #878787",
": 	c #7E7E7E",
"< 	c #757575",
"[ 	c #6C6C6C",
"} 	c #636363",
"| 	c #595959",
"1 	c #565656",
"2 	c #404040",
"3 	c #474747",
"4 	c #555555",
"5 	c #828282",
"6 	c #666666",
"7 	c #898989",
"8 	c #BABABA",
"9 	c #747474",
"0 	c #AEAEAE",
"a 	c #B3B3B3",
"b 	c #676767",
"c 	c #656565",
"d 	c #646464",
"e 	c #6E6E6E",
"f 	c #464646",
"g 	c #494949",
"h 	c #000000",
"i 	c #1D1D1D",
"j 	c #515151",
"k 	c #525252",
"l 	c #BBBBBB",
"m 	c #2E2E2E",
"n 	c #8E8E8E",
"o 	c #ADADAD",
"p 	c #0D0D0D",
"q 	c #252525",
"r 	c #484848",
"s 	c #020202",
"t 	c #010101",
"u 	c #1E1E1E",
"v 	c #4D4D4D",
"w 	c #2A2A2A",
"x 	c #A6A6A6",
"y 	c #505050",
"z 	c #262626",
"A 	c #575757",
"B 	c #868686",
"C 	c #B1B1B1",
"D 	c #B7B7B7",
"E 	c #B9B9B9",
"F 	c #AAAAAA",
"G 	c #939393",
"H 	c #8A8A8A",
"I 	c #838383",
"J 	c #717171",
"K 	c #626262",
"L 	c #5B5B5B",
"M 	c #BFBFBF",
"N 	c #C4C4C4",
"O 	c #C9C9C9",
"P 	c #CECECE",
"Q 	c #D4D4D4",
"R 	c #D9D9D9",
"S 	c #D5D5D5",
"T 	c #CFCFCF",
"U 	c #CACACA",
"V 	c #C5C5C5",
"W 	c #C0C0C0",
"X 	c #BCBCBC",
"Y 	c #B4B4B4",
"Z 	c #A0A0A0",
"` 	c #FFFFFF",
" .	c #BDBDBD",
"..	c #FEFEFE",
"+.	c #FDFDFD",
"@.	c #959595",
"#.	c #DCDCDC",
"$.	c #DFDFDF",
"%.	c #E3E3E3",
"&.	c #E7E7E7",
"*.	c #EAEAEA",
"=.	c #ECECEC",
"-.	c #EEEEEE",
";.	c #F0F0F0",
">.	c #F1F1F1",
",.	c #F3F3F3",
"'.	c #F5F5F5",
").	c #F4F4F4",
"!.	c #F2F2F2",
"~.	c #EFEFEF",
"{.	c #EDEDED",
"].	c #EBEBEB",
"^.	c #E4E4E4",
"/.	c #E0E0E0",
"(.	c #DBDBDB",
"_.	c #5A5A5A",
":.	c #686868",
"<.	c #777777",
"[.	c #A1A1A1",
"}.	c #A9A9A9",
"|.	c #C8C8C8",
"1.	c #D2D2D2",
"2.	c #AFAFAF",
"3.	c #A4A4A4",
"4.	c #989898",
"5.	c #797979",
"6.	c #737373",
"7.	c #696969",
"8.	c #4E4E4E",
"9.	c #121212",
"0.	c #141414",
"a.	c #9B9B9B",
"b.	c #282828",
"c.	c #5C5C5C",
"d.	c #2F2F2F",
"e.	c #212121",
"f.	c #222222",
"g.	c #383838",
"h.	c #5E5E5E",
"i.	c #2C2C2C",
"j.	c #6B6B6B",
"k.	c #3D3D3D",
"l.	c #3B3B3B",
"m.	c #9D9D9D",
"n.	c #323232",
"o.	c #343434",
"p.	c #232323",
"q.	c #373737",
"                                                                                                                                ",
"                                                                                                                                ",
"                                                                                                                                ",
"  . + @ # $ % & * = - ; > , ' ) ! . + @ # $ % & * = - ; > , ' ) ! . + @ # $ % & * = - ; > , ' ) ! ~ { ] ^ / ( _ : < [ } | .     ",
"  . 1 2 3 4 % & 5 } 6 7 > 8 _ 9 $ . 1 2 3 4 % & 5 } 6 7 > 8 _ 9 $ . 1 2 3 4 % & 5 } 6 7 > 8 _ 9 $ 0 { a b c d _ : e 3 2 f .     ",
"  . g h h i % & j h h k > l m h h . g h h i % & j h h k > l m h h . g h h i % & j h h k > l m h h n { o h h p _ : k h h q .     ",
"  . r s t u % & v h h j > 8 w h h . r s t u % & v h h j > 8 w h h . r s t u % & v h h j > 8 w h h n { x t h p _ : y s s z .     ",
"  . A | @ # % & B B n - > , C D a . A | @ # % & B B n - > , C D a . A | @ # % & B B n - > , C D a E { F G H I _ : J K L 4 .     ",
"  . + @ % 0 > a D l M N O P Q R S . + @ % 0 > a D l M N O P Q R S . + @ % 0 > a D l M N O P Q R S T U V W X D Y > 0 ( } | .     ",
"  . + @ Z ` ` ` ` ` ` ` ` ` ` ` ` . + @ Z ` ` ` ` ` ` ` ` ` ` ` ` . + @ Z ` ` ` ` ` ` ` ` ` ` ` ` ` ` ` ` ` ` ` ` `  .} | .     ",
"  . + @ Z ` ` ` ` ` ` ` ` ` ` ` ` . + @ Z ` ` ` ` ` ` ` ` ` ` ` ` . + @ Z ` ` ` ` ` ` ` ` ` ` ` ` ` ` ` ` ` ` ` ` `  .} | .     ",
"  . + @ Z ` ` ` ` ` ` ` ` ` ` ` ` . + @ Z ` ` ` ` ` ` ` ` ` ` ` ` . + @ Z ` ` ` ` ` ` ` ` ` ` ` ` ` ` ` ` ` ` ` ` `  .} | .     ",
"  . + @ Z ` ` ` ` ` ` ` ` ` ` ` ` . + @ Z ` ` ` ` ` ` ` ` ` ` ` ` . + @ Z ` ` ` ` ` ` ` ` ` ` ` ` ` ` ` ` ` ` ` ` `  .} | .     ",
"  . + @ Z ` ` ` ` ` ` ` ` ` ` ` ` . + @ Z ` ` ` ` ` ` ` ` ` ` ` ` . + @ Z ` ` ` ` ` ` ` ` ` ` ` ` ` ` ` ` ` ` ` ` `  .} | .     ",
"  . + @ Z ` ` ..................... + @ Z ` ` ..................... + @ Z ` ` ...................................... .} | .     ",
"  . + @ Z ` ..+.+.+.+.+.+.+.+.+.+.. + @ Z ` ..+.+.+.+.+.+.+.+.+.+.. + @ Z ` ..+.+.+.+.+.+.+.+.+.+.+.+.+.+.+.+.+.+.+. .} | .     ",
"  . + @ Z ` ..+.+.+.+.+.+.+.+.+.+.. + @ Z ` ..+.+.+.+.+.+.+.+.+.+.. + @ Z ` ..+.+.+.+.+.+.+.+.+.+.+.+.+.+.+.+.+.+.+. .} | .     ",
"  . + @ Z ` ..+.+.+.+.+.+.+.+.+.+.. + @ Z ` ..+.+.+.+.+.+.+.+.+.+.. + @ Z ` ..+.+.+.+.+.+.+.+.+.+.+.+.+.+.+.+.+.+.+. .} | .     ",
"  . + @ Z ` ..+.+.+.+.+.+.+.+.+.+.. + @ Z ` ..+.+.+.+.+.+.+.+.+.+.. + @ Z ` ..+.+.+.+.+.+.+.+.+.+.+.+.+.+.+.+.+.+.+. .} | .     ",
"  . + @ Z ` ..+.+.+.+.+.+.+.+.+.+.. + @ Z ` ..+.+.+.+.+.+.+.+.+.+.. + @ Z ` ..+.+.+.+.+.+.+.+.+.+.+.+.+.+.+.+.+.+.+. .} | .     ",
"  . + @ Z ` ..+.+.+.+.+.+.+.+.+.+.. + @ Z ` ..+.+.+.+.+.+.+.+.+.+.. + @ Z ` ..+.+.+.+.+.+.+.+.+.+.+.+.+.+.+.+.+.+.+. .} | .     ",
"  . + @ Z ` ..+.+.+.+.+.+.+.+.+.+.. + @ Z ` ..+.+.+.+.+.+.+.+.+.+.. + @ Z ` ..+.+.+.+.+.+.+.+.+.+.+.+.+.+.+.+.+.+.+. .} | .     ",
"  . + @ Z ` ..+.+.+.+.+.+.+.+.+.+.. + @ Z ` ..+.+.+.+.+.+.+.+.+.+.. + @ Z ` ..+.+.+.+.+.+.+.+.+.+.+.+.+.+.+.+.+.+.+. .} | .     ",
"  . + @ Z ` ..+.+.+.+.+.+.+.+.+.+.. + @ Z ` ..+.+.+.+.+.+.+.+.+.+.. + @ Z ` ..+.+.+.+.+.+.+.+.+.+.+.+.+.+.+.+.+.+.+. .} | .     ",
"  . + @ @.#.$.%.&.*.=.-.;.>.,.'.).. + @ @.#.$.%.&.*.=.-.;.>.,.'.).. + @ @.#.$.%.&.*.=.-.;.>.,.'.).!.>.~.{.].&.^./.(.F } | .     ",
"  . _.:.$ <.% & @.[.}.F > E |.1.) . _.:.$ <.% & @.[.}.F > E |.1.) . _.:.$ <.% & @.[.}.F > E |.1.) ~ { 2.o 3.4._ : 5.6.7.L .     ",
"  . 8.9.0.m % & K i i d > l f i i . 8.9.0.m % & K i i d > l f i i . 8.9.0.m % & K i i d > l f i i a.{ > i i b._ : c.0.9.d..     ",
"  . g h h i % & j h h k > l m h h . g h h i % & j h h k > l m h h . g h h i % & j h h k > l m h h n { o h h p _ : k h h q .     ",
"  . v e.f.g.% & h.i.d.j.> E 4 k.l.. v e.f.g.% & h.i.d.j.> E 4 k.l.. v e.f.g.% & h.i.d.j.> E 4 k.l.m.{ 3.n.m o._ : L p.f.q..     ",
"  . + @ # $ % & * = - ; > , ' ) ! . + @ # $ % & * = - ; > , ' ) ! . + @ # $ % & * = - ; > , ' ) ! ~ { ] ^ / ( _ : < [ } | .     ",
"                                                                                                                                ",
"                                                                                                                                "};
