/* XPM */
static char * scene_add_xpm[] = {
"32 32 164 2",
"  	c None",
". 	c #535353",
"+ 	c #585858",
"@ 	c #616161",
"# 	c #6A6A6A",
"$ 	c #727272",
"% 	c #7B7B7B",
"& 	c #848484",
"* 	c #8D8D8D",
"= 	c #969696",
"- 	c #9F9F9F",
"; 	c #A7A7A7",
"> 	c #B0B0B0",
", 	c #B8B8B8",
"' 	c #C1C1C1",
") 	c #CDCDCD",
"! 	c #C7C7C7",
"~ 	c #BEBEBE",
"{ 	c #B5B5B5",
"] 	c #ACACAC",
"^ 	c #A3A3A3",
"/ 	c #9A9A9A",
"( 	c #909090",
"_ 	c #878787",
": 	c #7E7E7E",
"< 	c #757575",
"[ 	c #6C6C6C",
"} 	c #636363",
"| 	c #595959",
"1 	c #565656",
"2 	c #404040",
"3 	c #474747",
"4 	c #555555",
"5 	c #828282",
"6 	c #666666",
"7 	c #898989",
"8 	c #BABABA",
"9 	c #747474",
"0 	c #AEAEAE",
"a 	c #B3B3B3",
"b 	c #676767",
"c 	c #656565",
"d 	c #646464",
"e 	c #6E6E6E",
"f 	c #464646",
"g 	c #494949",
"h 	c #000000",
"i 	c #1D1D1D",
"j 	c #515151",
"k 	c #525252",
"l 	c #BBBBBB",
"m 	c #2E2E2E",
"n 	c #8E8E8E",
"o 	c #ADADAD",
"p 	c #0D0D0D",
"q 	c #252525",
"r 	c #484848",
"s 	c #020202",
"t 	c #010101",
"u 	c #1E1E1E",
"v 	c #4D4D4D",
"w 	c #2A2A2A",
"x 	c #A6A6A6",
"y 	c #505050",
"z 	c #262626",
"A 	c #575757",
"B 	c #868686",
"C 	c #B1B1B1",
"D 	c #B7B7B7",
"E 	c #B9B9B9",
"F 	c #AAAAAA",
"G 	c #939393",
"H 	c #8A8A8A",
"I 	c #838383",
"J 	c #717171",
"K 	c #626262",
"L 	c #5B5B5B",
"M 	c #BFBFBF",
"N 	c #C4C4C4",
"O 	c #C9C9C9",
"P 	c #CECECE",
"Q 	c #D4D4D4",
"R 	c #D9D9D9",
"S 	c #D5D5D5",
"T 	c #CFCFCF",
"U 	c #CACACA",
"V 	c #C5C5C5",
"W 	c #C0C0C0",
"X 	c #BCBCBC",
"Y 	c #B4B4B4",
"Z 	c #A0A0A0",
"` 	c #FFFFFF",
" .	c #BDBDBD",
"..	c #B3C2A7",
"+.	c #708C58",
"@.	c #859D71",
"#.	c #627B4D",
"$.	c #97AB86",
"%.	c #566C43",
"&.	c #FEFEFE",
"*.	c #A2BD9E",
"=.	c #789774",
"-.	c #FDFDFD",
";.	c #88AC84",
">.	c #5E764A",
",.	c #698566",
"'.	c #6D8855",
").	c #688251",
"!.	c #668050",
"~.	c #6D8956",
"{.	c #4F633E",
"].	c #959595",
"^.	c #DCDCDC",
"/.	c #DFDFDF",
"(.	c #E3E3E3",
"_.	c #E7E7E7",
":.	c #EAEAEA",
"<.	c #ECECEC",
"[.	c #EEEEEE",
"}.	c #F0F0F0",
"|.	c #F1F1F1",
"1.	c #F3F3F3",
"2.	c #F5F5F5",
"3.	c #F4F4F4",
"4.	c #F2F2F2",
"5.	c #EFEFEF",
"6.	c #EDEDED",
"7.	c #EBEBEB",
"8.	c #E4E4E4",
"9.	c #E0E0E0",
"0.	c #DBDBDB",
"a.	c #5A5A5A",
"b.	c #686868",
"c.	c #777777",
"d.	c #A1A1A1",
"e.	c #A9A9A9",
"f.	c #C8C8C8",
"g.	c #D2D2D2",
"h.	c #AFAFAF",
"i.	c #A4A4A4",
"j.	c #989898",
"k.	c #797979",
"l.	c #737373",
"m.	c #696969",
"n.	c #4E4E4E",
"o.	c #121212",
"p.	c #141414",
"q.	c #9B9B9B",
"r.	c #282828",
"s.	c #5C5C5C",
"t.	c #2F2F2F",
"u.	c #212121",
"v.	c #222222",
"w.	c #383838",
"x.	c #5E5E5E",
"y.	c #2C2C2C",
"z.	c #6B6B6B",
"A.	c #3D3D3D",
"B.	c #3B3B3B",
"C.	c #9D9D9D",
"D.	c #323232",
"E.	c #343434",
"F.	c #232323",
"G.	c #373737",
"                                                                ",
"                                                                ",
"                                                                ",
"    . + @ # $ % & * = - ; > , ' ) ! ~ { ] ^ / ( _ : < [ } | .   ",
"    . 1 2 3 4 % & 5 } 6 7 > 8 _ 9 $ 0 { a b c d _ : e 3 2 f .   ",
"    . g h h i % & j h h k > l m h h n { o h h p _ : k h h q .   ",
"    . r s t u % & v h h j > 8 w h h n { x t h p _ : y s s z .   ",
"    . A | @ # % & B B n - > , C D a E { F G H I _ : J K L 4 .   ",
"    . + @ % 0 > a D l M N O P Q R S T U V W X D Y > 0 ( } | .   ",
"    . + @ Z ` ` ` ` ` ` ` ` ` ` ` ` ` h h ` ` ` ` ` `  .} | .   ",
"    . + @ Z ` ` ` ` ` ` ` ` ` ` ` ` h ..+.h ` ` ` ` `  .} | .   ",
"    . + @ Z ` ` ` ` ` ` ` ` ` ` ` ` h @.#.h ` ` ` ` `  .} | .   ",
"    . + @ Z ` ` ` ` ` ` ` ` ` ` ` h $.+.h ` ` ` ` ` `  .} | .   ",
"    . + @ Z ` ` ` ` ` h h ` ` ` ` h @.%.h ` ` ` ` ` `  .} | .   ",
"    . + @ Z ` ` &.&.h *.=.h &.&.h @.+.h &.&.&.&.&.&.&. .} | .   ",
"    . + @ Z ` &.-.-.h ;.;.h h -.h +.%.h -.-.-.-.-.-.-. .} | .   ",
"    . + @ Z ` &.-.-.-.h ;.=.h h >.+.h -.-.-.-.-.-.-.-. .} | .   ",
"    . + @ Z ` &.-.-.-.h ;.;.,.h '.%.h -.-.-.-.-.-.-.-. .} | .   ",
"    . + @ Z ` &.-.-.-.-.h ;.;.).!.h -.-.-.-.-.-.-.-.-. .} | .   ",
"    . + @ Z ` &.-.-.-.-.-.h ;.~.{.h -.-.-.-.-.-.-.-.-. .} | .   ",
"    . + @ Z ` &.-.-.-.-.-.h ;.;.h -.-.-.-.-.-.-.-.-.-. .} | .   ",
"    . + @ Z ` &.-.-.-.-.-.-.h ,.h -.-.-.-.-.-.-.-.-.-. .} | .   ",
"    . + @ Z ` &.-.-.-.-.-.-.-.h -.-.-.-.-.-.-.-.-.-.-. .} | .   ",
"    . + @ Z ` &.-.-.-.-.-.-.-.-.-.-.-.-.-.-.-.-.-.-.-. .} | .   ",
"    . + @ ].^./.(._.:.<.[.}.|.1.2.3.4.|.5.6.7._.8.9.0.F } | .   ",
"    . a.b.$ c.% & ].d.e.F > E f.g.) ~ { h.o i.j._ : k.l.m.L .   ",
"    . n.o.p.m % & K i i d > l f i i q.{ > i i r._ : s.p.o.t..   ",
"    . g h h i % & j h h k > l m h h n { o h h p _ : k h h q .   ",
"    . v u.v.w.% & x.y.t.z.> E 4 A.B.C.{ i.D.m E._ : L F.v.G..   ",
"    . + @ # $ % & * = - ; > , ' ) ! ~ { ] ^ / ( _ : < [ } | .   ",
"                                                                ",
"                                                                "};
