/* XPM */
static char * slider_brightness_xpm[] = {
"20 20 20 1",
" 	c None",
".	c #FFFFFF",
"+	c #000000",
"@	c #636363",
"#	c #7A7A7A",
"$	c #686868",
"%	c #E5E5E5",
"&	c #D6D6D6",
"*	c #C5C5C5",
"=	c #B3B3B3",
"-	c #A2A2A2",
";	c #7E7E7E",
">	c #6C6C6C",
",	c #ECECEC",
"'	c #DADADA",
")	c #C8C8C8",
"!	c #B6B6B6",
"~	c #A3A3A3",
"{	c #7F7F7F",
"]	c #6D6D6D",
"                    ",
"                    ",
"                  ..",
"                ....",
"              ......",
"           .........",
"       +++..........",
"      ++@+..........",
"+++++++#$+..........",
"+%&*=-+;>+..........",
"+,')!~+{]+..........",
"+++++++;>+..........",
"      ++$+..........",
"       +++  ........",
"                ....",
"                    ",
"                    ",
"                    ",
"                    ",
"                    "};
