/* XPM */
static char * slider_contrast_xpm[] = {
"20 20 22 1",
" 	c None",
".	c #424242",
"+	c #4B4B4B",
"@	c #545454",
"#	c #5E5E5E",
"$	c #676767",
"%	c #717171",
"&	c #7A7A7A",
"*	c #848484",
"=	c #8D8D8D",
"-	c #979797",
";	c #A0A0A0",
">	c #A9A9A9",
",	c #B3B3B3",
"'	c #BCBCBC",
")	c #C6C6C6",
"!	c #CFCFCF",
"~	c #D9D9D9",
"{	c #E2E2E2",
"]	c #ECECEC",
"^	c #F5F5F5",
"/	c #000000",
".+@#$%&*=-;>,')!~{]^",
".+@#$%&*=-;>,')!~{]^",
".+@#$%&*=-;>,')!~{]^",
".+@#$%&*=-;>,')!~{]^",
".+@#$%&*=-;>,')!~{]^",
".+@#$%&*=-;>,')!~{]^",
".+@#$%&*=-;>,')!~{]^",
".+@#$%&*=///,')!~{]^",
".+@#$%&*=///,')!~{]^",
".+/#$%/*=///,'/!~{/^",
".+/#$%/*=///,'/!~{/^",
".+/#$%/*=///,'/!~{/^",
"////////////////////",
".+@#$%&*=///,')!~{]^",
".+@#$%&*=-/>,')!~{]^",
".+@#$%&*=-;>,')!~{]^",
".+@#$%&*=-;>,')!~{]^",
".+@#$%&*=-;>,')!~{]^",
".+@#$%&*=-;>,')!~{]^",
".+@#$%&*=-;>,')!~{]^"};
