/* XPM */
static char * slider_hue_xpm[] = {
"20 20 21 1",
" 	c None",
".	c #ED8F8F",
"+	c #EC8787",
"@	c #EB7F7F",
"#	c #E97777",
"$	c #E86F6F",
"%	c #E76767",
"&	c #E65F5F",
"*	c #E45757",
"=	c #E34F4F",
"-	c #E24747",
";	c #E03F3F",
">	c #DF3737",
",	c #DE2F2F",
"'	c #DD2727",
")	c #DC1F1F",
"!	c #DA1717",
"~	c #D90F0F",
"{	c #D80707",
"]	c #D70000",
"^	c #000000",
".+@#$%&*=-;>,')!~{]]",
".+@#$%&*=-;>,')!~{]]",
".+@#$%&*=-;>,')!~{]]",
".+@#$%&*=-;>,')!~{]]",
".+@#$%&*=-;>,')!~{]]",
".+@#$%&*=-;>,')!~{]]",
".+@#$%&*=-;>,')!~{]]",
".+@#$%&*=^^^,')!~{]]",
".+@#$%&*=^^^,')!~{]]",
".+^#$%^*=^^^,'^!~{^]",
".+^#$%^*=^^^,'^!~{^]",
".+^#$%^*=^^^,'^!~{^]",
"^^^^^^^^^^^^^^^^^^^^",
".+@#$%&*=^^^,')!~{]]",
".+@#$%&*=-^>,')!~{]]",
".+@#$%&*=-;>,')!~{]]",
".+@#$%&*=-;>,')!~{]]",
".+@#$%&*=-;>,')!~{]]",
".+@#$%&*=-;>,')!~{]]",
".+@#$%&*=-;>,')!~{]]"};
