/* XPM */
static char * slider_volume_xpm[] = {
"20 20 86 1",
" 	c None",
".	c #000000",
"+	c #181818",
"@	c #1E1E1E",
"#	c #0B0B0B",
"$	c #090909",
"%	c #080808",
"&	c #1A1A1A",
"*	c #151515",
"=	c #2D2D2D",
"-	c #0A0A0A",
";	c #262626",
">	c #2A2A2A",
",	c #292929",
"'	c #212121",
")	c #121212",
"!	c #1D1D1D",
"~	c #2F2F2F",
"{	c #060606",
"]	c #353535",
"^	c #3F3F3F",
"/	c #404040",
"(	c #3A3A3A",
"_	c #242424",
":	c #1C1C1C",
"<	c #202020",
"[	c #4D4D4D",
"}	c #484848",
"|	c #393939",
"1	c #585858",
"2	c #4A4A4A",
"3	c #3E3E3E",
"4	c #414141",
"5	c #272727",
"6	c #565656",
"7	c #636363",
"8	c #545454",
"9	c #282828",
"0	c #141414",
"a	c #333333",
"b	c #5E5E5E",
"c	c #303030",
"d	c #2E2E2E",
"e	c #6E6E6E",
"f	c #6F6F6F",
"g	c #4E4E4E",
"h	c #050505",
"i	c #111111",
"j	c #222222",
"k	c #7B7B7B",
"l	c #7C7C7C",
"m	c #171717",
"n	c #5D5D5D",
"o	c #737373",
"p	c #888888",
"q	c #747474",
"r	c #3B3B3B",
"s	c #444444",
"t	c #787878",
"u	c #858585",
"v	c #464646",
"w	c #5F5F5F",
"x	c #939393",
"y	c #7F7F7F",
"z	c #6C6C6C",
"A	c #818181",
"B	c #707070",
"C	c #3D3D3D",
"D	c #323232",
"E	c #8B8B8B",
"F	c #9E9E9E",
"G	c #979797",
"H	c #575757",
"I	c #2B2B2B",
"J	c #343434",
"K	c #969696",
"L	c #ABABAB",
"M	c #515151",
"N	c #252525",
"O	c #757575",
"P	c #9B9B9B",
"Q	c #B5B5B5",
"R	c #B3B3B3",
"S	c #4F4F4F",
"T	c #363636",
"U	c #313131",
"   ....      ....   ",
"  .              .  ",
" .  ..        ..  . ",
".  .  +@#$%#&*  .  .",
". .  =-@;>,;')!  . .",
". . ~{]^/////(_: . .",
".  <)/[[[[[[[[};+  .",
"   =|11123/[11145   ",
"   ,677890&a177bc   ",
"   deffg0hij8fffa   ",
"   akll1&im;nlll(   ",
"   ]oppqrj;stppuv   ",
"   |wxxxyzeAxxxBC   ",
"   DaEFFFFFFFFGHI   ",
". . J5KLLLLLLGMN . .",
". .  a(OPQRxB39  . .",
".  .  ]^2Sg4TU  .  .",
" .  ..        ..  . ",
"  .              .  ",
"   ...        ...   "};
