/* XPM */
static char * slider_sat_colour_xpm[] = {
"20 20 33 1",
" 	c None",
".	c #AF0000",
"+	c #A20000",
"@	c #950000",
"#	c #880000",
"$	c #CE0000",
"%	c #C10000",
"&	c #B40000",
"*	c #ED0000",
"=	c #E00000",
"-	c #FF1A00",
";	c #FF0D00",
">	c #FF3900",
",	c #FF2B00",
"'	c #FF6500",
")	c #FF5700",
"!	c #000000",
"~	c #FF8300",
"{	c #FF7600",
"]	c #FFA200",
"^	c #FF9500",
"/	c #FFC100",
"(	c #FFB400",
"_	c #FFE000",
":	c #FFD300",
"<	c #FFFF00",
"[	c #FFDD00",
"}	c #FFBB00",
"|	c #FF9900",
"1	c #FF5400",
"2	c #FF3200",
"3	c #FF1000",
"4	c #EE0000",
"         .+@#       ",
"         $%&        ",
"         *=         ",
"        -;          ",
"        >,          ",
"       ')           ",
"  !    ~{  !        ",
"  !    ]^  !        ",
"  !    /(  !        ",
"  !   __:  !        ",
"  !<<<<<<<<!        ",
"  ![[[[[[[[!        ",
"  !}}}}}}}}!        ",
"  !||||||||!        ",
"  !{{{{{{{{!        ",
"  !11111111!        ",
"  !22222222!        ",
"  !33333333!        ",
"  !44444444!        ",
"  !!!!!!!!!!        "};
