/* XPM */
static char * stv_fullscreen_xpm[] = {
"20 20 90 1",
" 	c None",
".	c #5A5A5A",
"+	c #868686",
"@	c #4F4F4F",
"#	c #585858",
"$	c #808080",
"%	c #5D5D5D",
"&	c #707070",
"*	c #545454",
"=	c #FFFFFF",
"-	c #666666",
";	c #B2B2B2",
">	c #7E7E7E",
",	c #C2C2C2",
"'	c #6A6A6A",
")	c #535353",
"!	c #696969",
"~	c #D1D1D1",
"{	c #80DB56",
"]	c #65E62B",
"^	c #6AE432",
"/	c #6BE434",
"(	c #A1CE8D",
"_	c #B4B4B4",
":	c #65E52B",
"<	c #62E725",
"[	c #62E726",
"}	c #68E331",
"|	c #6AE233",
"1	c #98C583",
"2	c #A5A5A5",
"3	c #67E230",
"4	c #64E52A",
"5	c #63E628",
"6	c #65E42C",
"7	c #9FAA9A",
"8	c #969696",
"9	c #66E02E",
"0	c #86AE73",
"a	c #63E627",
"b	c #63E528",
"c	c #87AD75",
"d	c #878787",
"e	c #65DD2F",
"f	c #83907D",
"g	c #63E329",
"h	c #62E527",
"i	c #73B953",
"j	c #777777",
"k	c #70995D",
"l	c #767876",
"m	c #64D82F",
"n	c #62E625",
"o	c #67C93A",
"p	c #686868",
"q	c #63C537",
"r	c #62E526",
"s	c #62D72D",
"t	c #676967",
"u	c #659351",
"v	c #5EA43E",
"w	c #61E426",
"x	c #61E027",
"y	c #5A6754",
"z	c #61DA2A",
"A	c #4B4B4B",
"B	c #517A3F",
"C	c #61E326",
"D	c #527E3E",
"E	c #60DA28",
"F	c #3B3B3B",
"G	c #3E4B38",
"H	c #5FDE26",
"I	c #61E325",
"J	c #60E125",
"K	c #5ED926",
"L	c #2D2D2D",
"M	c #3D662A",
"N	c #5CD425",
"O	c #5DD825",
"P	c #61E525",
"Q	c #61E725",
"R	c #5FDE25",
"S	c #1D1D1D",
"T	c #325B1F",
"U	c #5AD224",
"V	c #5CD624",
"W	c #5FDF24",
"X	c #4AA322",
"Y	c #0E0E0E",
"                    ",
" .+.@@@@@@@@#$$%&&* ",
" +=+@@@@@@@@-;;>,,' ",
" .+.@@@@@@@@)!!#&&* ",
" @~~~~~~~~~~~~~~~~@ ",
" @,{]^^/(,,,,,,,,,@ ",
" @_:<[}|1_________@ ",
" @2345672222222222@ ",
" @8990abc888888888@ ",
" @deedfghidddddddd@ ",
" @jkkjjlmnojjjjjjj@ ",
" @pppppppqrstppuup@ ",
" @........vwxy.zz.@ ",
" @AAAAAAAAABCCDEEA@ ",
" @FFFFFFFFFFGHIJKF@ ",
" @LLLLLLLLLMNOPQRL@ ",
" @SSSSSSSSSTUVVWXS@ ",
" @YYYYYYYYYYYYYYYY@ ",
" @@@@@@@@@@@@@@@@@@ ",
"                    "};
