/* XPM */
static char * stv_arrow_up_xpm[] = {
"16 16 2 1",
" 	c None",
".	c #000000",
"                ",
"       .        ",
"      ...       ",
"     .....      ",
"    ... ...     ",
"   ...   ...    ",
"  ...     ...   ",
" ....     ....  ",
"   ..     ..    ",
"   ..     ..    ",
"   ..     ..    ",
"   ..     ..    ",
"   .........    ",
"   .........    ",
"                ",
"                "};
