/* XPM */
static char * tv_xpm[] = {
"30 15 47 1",
" 	c None",
".	c #050505",
"+	c #060606",
"@	c #070707",
"#	c #030303",
"$	c #000000",
"%	c #292929",
"&	c #9B9B9B",
"*	c #898989",
"=	c #A6A6A6",
"-	c #1D1D1D",
";	c #9C9C9C",
">	c #676767",
",	c #8D8D8D",
"'	c #BABABA",
")	c #818181",
"!	c #C1C1C1",
"~	c #7E7E7E",
"{	c #E9E9E9",
"]	c #D9D9D9",
"^	c #E2E2E2",
"/	c #FDFDFD",
"(	c #DEDEDE",
"_	c #DADADA",
":	c #DFDFDF",
"<	c #D5D5D5",
"[	c #585858",
"}	c #A7A7A7",
"|	c #858585",
"1	c #939393",
"2	c #B3B3B3",
"3	c #8C8C8C",
"4	c #00C800",
"5	c #00DB00",
"6	c #878787",
"7	c #1E1E1E",
"8	c #626262",
"9	c #313131",
"0	c #404040",
"a	c #6A6A6A",
"b	c #3D3D3D",
"c	c #1A1A1A",
"d	c #1B1B1B",
"e	c #202020",
"f	c #282828",
"g	c #232323",
"h	c #0C0C0C",
"    .+@@@@@@@@@@@@@@@@@@.#    ",
"   $%&******************=-$   ",
"   $;$$$$$$$$$$$$$$$$$$$$>$   ",
"   $,$$$$$$$$$$$$$$$$$$$$,$   ",
"   $,$$$$$$$$$$$$$$$$$$$$,$   ",
"   $,$$$$$$$$$$$$$$$$$$$$,$   ",
"   $,$$$$$$$$$$$$$$$$$$$$,$   ",
"   $,$$$$$$$$$$$$$$$$$$$$,$   ",
"   $,$$$$$$$$$$$$$$$$$$$$,$   ",
"   $,$$$$$$$$$$$$$$$$$$$$,$   ",
"   $'$$$$$$$$$$$$$$$$$$$$)$   ",
"   $!~{]^]^/(((((((((__:<[$   ",
"   $}|$1$1$211111111134567$   ",
"   $890abab[cccccccccdefgh$   ",
"    $$$$$$$$$$$$$$$$$$$$$$    "};
